<svg xmlns="http://www.w3.org/2000/svg" viewBox="0 0 11.88 11.35"><defs><style>.cls-1{fill:#9b9839;}</style></defs><title>caca</title><g id="Layer_2" data-name="Layer 2"><g id="Layer_1-2" data-name="Layer 1"><path class="cls-1" d="M11.87,4.91c0-.61-.09-.3-.31-.87s-.17-.21-.41-.35-.07-.34,0-1a7.89,7.89,0,0,0,0-1c0-.4-1.7-1-2.27-1.27a4,4,0,0,0-1.92,0L6.29,0A5.71,5.71,0,0,1,4.2,0a.62.62,0,0,0-.83.66s-.78.65-1,.56S1.5,1.78,1.19,2A1.57,1.57,0,0,0,.76,3c-.05.22-.31.31-.18,1.62s-.3,1-.52,1.65.22.92.26,1.44a10.7,10.7,0,0,0,0,1.61c.13.74,1.35,1.05,2,1a10.38,10.38,0,0,1,1.66.17c.61,0,.78.4,1.74.79s.87,0,1.7-.13,1-.18,1.18-.66.61-.13,1.83-.61.34-.3.69-.89,0-.85.26-1.59.4-.83.48-1.09A5.35,5.35,0,0,0,11.87,4.91ZM2.64,8.67a1,1,0,0,1-.24-.89s.76.11,1,.4a1.77,1.77,0,0,1,.31,1A2.1,2.1,0,0,1,2.64,8.67Zm.88-5.32a.84.84,0,0,1-.74,0s.28-.55.55-.63a1.46,1.46,0,0,1,.8,0A1.67,1.67,0,0,1,3.52,3.35ZM7.32,8.9s-.46,0-.62-.59.21-.7.21-.7a.81.81,0,0,1,.63.56A.58.58,0,0,1,7.32,8.9Zm2.65-2a.75.75,0,0,1-.88.44s-.44-.4,0-1.11.85-.42.85-.42A1.05,1.05,0,0,1,10,6.87Z"/></g></g></svg>