<svg xmlns="http://www.w3.org/2000/svg" viewBox="0 0 86.64 151.28"><defs><style>.cls-1{fill:#bab9b8;}.cls-2,.cls-3{fill:#9b9838;}.cls-3,.cls-4{stroke:#fff;stroke-miterlimit:10;stroke-width:0.5px;}.cls-4{fill:none;}.cls-5{fill:#1e1e1c;}</style></defs><title>mapa_gnrl</title><g id="Layer_2" data-name="Layer 2"><g id="Layer_1-2" data-name="Layer 1"><path class="cls-1" d="M25.77,149.69l-1.75.16-.94-1.14L22,148.63H20l3.91-11.36.71,1.41-3,6.73L24,147.3l2.59.79Zm4.9-84.95,1.08,1.43.72-1.6,2.1.08.3.42,3.39,3.25,1.5.3L42,70.11l1.9.79.26.9-1.81,3.11,1.86.56,2.07.31,1.46-.33,1.67-1.58.31-1.8.91-.39.93,1.18,0,1.64L50,75.64l-1.24.84-2.08,2-2.46,2.87-.46,1.7-.49,2.22,0,2.17-.41.49-.14,1.43-.12,1.15L45,92.46,44.7,94l1.15,1-.09,1.12L44,99.1l-2.74,1.26-3.7.49-2-.23.38,1.41-.37,1.79.34,1.22-1.1.85-1.89.34-1.78-.89-.71.64.26,2.44,1.24.75,1-.79.55,1.29-1.7.78L30.29,112,30,114.59,29.59,116H27.84l-1.44,1.34-.53,2,1.82,2,1.76.55-.63,2.45-2.18,1.57-1.2,3.31-1.68,1.13L23,131.63l.6,3.05,1.23,1.73-.78-.15-1.71-.47-4.46-.4-.76-1.73,0-2.19-1.23.18-.65-1.05-.16-3,1.41-1.23.59-1.77-.22-1.38,1-2.32.67-3.52-.2-1.53.81-.5-.2-1-.86-.51.61-1.07-.84-1-.42-2.9.74-.51-.31-3L18.3,103l.5-2.12,1.1-.85-.56-2.28V95.58l1.39-1.48,0-1.89L21.75,90V88l-.48-.4-.85-3.75,1.14-2.19-.18-2L22,77.7l1.21-1.94,1.3-1.29L24,73.66l.39-.65-.06-3.39,2-1L27,66.55l-.23-.5,1.54-1.79Z"/><path class="cls-1" d="M34.57,64.66l-2.1-.09-.72,1.6-1.08-1.43-2.42-.48-1.53,1.79-1.34.27-.72-2.73-1-2.2.58-1.89-1-.82L23,57.28,22.13,56,23.3,53.9l-.8-1.6.43-.64L22.59,51l.73-.94,0-1.61.08-1.33.4-.63-1.6-3,1.38.16.95-.05L25,43l1.61-.75,1-.7L30,41.21l-.19,1.4.23.71-.15,1.25,2,1.68,2.07.31.72.7,1.25.38.76.55,1.16,0,1.07.55.08,1.1.37.55,0,.82-.54,0,.71,2.21,3.54.08-.27,1.11.19.76,1,.53.44,1.2-.33,1.53-.51.85.18,1.11-.58.4,0-.6-1.73-1-1.71,0-3.21.56-.88,1.72,0,1.06-.73,2.36Z"/><path class="cls-1" d="M44.2,81.39l2.46-2.87,2.09-2L50,75.65l1.55-1.14,0-1.64-.93-1.17-.91.38.36-1.17.25-1.19V68.61l-.67-.36-.69.32-.68-.08-.22-.78-.17-1.82-.35-.59-1.24-.54-.75.38-1.95-.38.12-2.67L43.2,61l.58-.4-.18-1.11.51-.85.33-1.53L44,55.91l-1-.53-.19-.76.27-1.11-3.54-.08-.71-2.21.54,0,0-.82L39,49.82l-.08-1.1-1.07-.55-1.16,0-.76-.55-1.25-.38-.72-.7-2.07-.31-2-1.68L30,43.32l-.23-.71.19-1.4-2.41.32-1,.7L25,43l-.41.56-.95.05-1.38-.16-1,.32-.85-.22.13-2.82L19,41.8l-1.63,0-.7-1-1.22-.11.39-.79-1-1.13L14,37.06l.49-.33v-.79l1.12-.53-.19-1,.47-.65.14-.85,2.1-1.26,1.52-.35.24-.27,1.66.08.83-5,.05-.8-.29-1-.82-.67V22.25l1-.31.37.19.06-.7-1.08-.19,0-1.14,3.59,0,.61-.64.52.58.35,1.09.35-.23,1,1,1.43-.12.36-.56,1.37-.43.76-.3.21-.77,1.32-.53-.1-.38L32,18.66l-.26-1.16.07-1.23-.82-.47.34-.17,1.37.24,1.47.46.53-.44L36,15.6,38,14.92l.68-.71-.25-.52,1-.07.43.42-.24.81.63.27.43.86-.52.64-.29,1.57.47.93.13.84,1.14.86.91.09.2-.35.58-.08.84-.33.6-.48,1,.15.44-.07,1,.15.16-.37-.3-.36.18-.53.74.16.88-.19,1.05.39.81.38.57-.5.41.08.26.52.88-.13.7-.7.57-1.36,1.09-1.67.63-.09.45,1,1,3.21,1,.31.06,1.26L57,22.83l.57.55,3.26.29.07,1.83,1.4-1.2L64.6,25l3.06,1.12.9,1.07-.3,1,2.15-.57,3.59,1,2.75-.08L79.48,30l2.35,2.06,1.42.53,1.58.08.67.58.63,2.34.31,1.12-.74,3.06L84.76,41l-2.6,2.59L81,45.71l-1.36,1.63-.46,0-.52,1.38.13,3.55-.51,2.95-.2,1.27-.58.75-.33,2.6-1.86,2.55-.32,2-1.49.86L73,66.51H71l-2.9.77-1.3.88-2.07.59-2.17,1.6-1.56,2-.27,1.52L61.08,75l-.34,2.09-.42,1L59,79.29,57,83l-1.63,1.7-1.26,1-.83,2.08-1.22,1.25-.52-1.25.82-1-1.07-1.48-1.45-1.2-1.9-1.37-.68.06L45.4,81.17Z"/><path class="cls-1" d="M23.9,137.27,20,148.63h2l1.11.08-.61,1.3-1.58,1-.91-.1-1.09-.27-1.34-1-1.94-.47-2.32-1.78-1.88-1.69,1.37-7.86,1.52.64L13,145l2.45,1.12,1-1.43,4.51-6.51,1.7-1.25Zm.76-73.68.72,2.73,1.33-.27.23.5-.64,2.07-2,1L24.36,73l-.39.66.55.81-1.3,1.28L22,77.7l-.66,1.9.18,2.05-1.14,2.2.85,3.74.48.4v2L20.66,92.2l0,1.89-1.4,1.49v2.11l.56,2.28-1.11.86-.49,2.11-.43,2.47.31,3-.75.5.43,2.9.84,1-.61,1.07.86.51.19,1-.8.49.2,1.53-.67,3.52-1,2.32.21,1.39-.58,1.76-1.42,1.24.17,3,.65,1.06,1.23-.19,0,2.19.76,1.73,4.46.4,1.71.47-1.64,0-.89.74-1.66,1.1-4.21,7.29-.78.07-2.08-1,1.8-6.54h0l-2.29-1.73-.58-1.89.52-1.73-.93-1.93L11,125.77l.78-2.65,1.95-2.1-2.8-.78,1.76-2.35.62-4.32,2.05.91,1-5.25-1.23-.65-.58,3.12-1.17-.36.58-3.56.63-4.5.85-1.63-.53-2.3-.15-2.62.77-.07L16.67,93l1.27-3.57.79-3.27L18.3,82.9l.55-1.76-.22-2.6L19.71,76,20,72l.59-4.19.58-4.44-.14-3.21-.38-2.73.95-.49.49-1,.9,1.31.25,1.4,1,.82-.57,1.89Z"/><path class="cls-1" d="M11.47,23.52l-.79-.44-.91-.6-.52.29-1.57-.26-.45-.79-.34,0L5,20.71l-.25-.57L5.48,20l-.08-.92.43-.66.92-.13.78-1.15.7-1-.68-.44.35-1.07L7.48,13l.4-.48L7.59,11l-.75-1,.24-.89.59.13L8,8.65,7.59,7.56l.23-.27.95.06,1.38-1.3.76-.2,0-.61.34-1.57,1.06-.87,1.16,0,.14-.39,1.45.15,1.45-.94.72-.42.89-.9.66.11.48.49-.36.64-1.18.31-.47.93-.72.54L16,4l-.23,1.32L15.28,6.4l1,.12.24.85.41.41.14.74-.22.69.07.39.45.15.44.64,2.37-.18,1.08.24L22.51,12l.74-.2,1.33.1,1.05-.21.65.32L26,13l-.41.62L25.4,15l.36,1.21.53.55.06.42-.93.91.67.4.49.65.56,1.82-.35.23-.35-1.09-.52-.58-.61.64-3.59,0,0,1.14,1.08.19-.06.7-.37-.19-1,.31v1.33l.82.67.29,1-.05.8-.83,5-.92-1-.55,0,1.19-1.87-1.41-.86-1.11.16-.66-.32-1,.49-1.38-.23-1.08-1.92-.86-.47-.58-.87L12,23.34Z"/><path class="cls-1" d="M2.38,29.48l1-1.37-.4-.8-.71.85-1.1-.81.37-.51-.31-1.67.65-.27.34-1.14.7-1.18-.13-.75,1-.39L5,20.71l1.85,1,.34,0,.45.79,1.57.26.52-.29.91.6.79.44.26,1.38-.58,1.2L9.14,28l-2.22.72-1.13,1.6-.35,1.23-1,.76-.77-.93-.75-.19-.77.14,0-.67.53-.43Z"/><path class="cls-1" d="M37.61,134.9l2.21-1.77,1.57.74,1.11-1.18L44,134l-.55,1-2.49.9-.83-1-1.57,1.35Z"/><path class="cls-1" d="M53.55,18.65l-.7.7-.88.13L51.72,19l-.42-.07-.57.5-.8-.38.46-.78.16-.84.32-.79-.72-1.08L50,14.26l1-1.58.62.2,1.36.43,1.95,1.56.3.75-1.09,1.67Z"/><path class="cls-1" d="M40.27,7.85l1.21.68,1.14,1.2.05,1,.7,0,1,.9.74.64-.3,1.66-1.12.48.1.43-.34.95.82,1.33h.59l.24,1,1.12,1.59-.44.07-1-.15-.6.48-.84.33-.58.08-.2.35-.91-.09L40.47,20l-.13-.84-.47-.93.29-1.57.52-.64-.43-.86-.63-.27.24-.81-.43-.42-1,.07L37.22,12.3l.5-.51,0-.85,1.14-.3.46-.34-.64-.68.17-.68Z"/><path class="cls-1" d="M22.13,56l-.49,1-.95.49-1.85-1.11-.16-.79L15,53.63l-3.31-2.08-1.43-1.17-.76-1.56.3-.55L8.27,45.8,6.45,42.36l-1.74-3.7L4,37.81l-.58-1.35L1.94,35.25.63,34.5l.6-.82-.9-1.76L.9,30.64l1.48-1.16.22.77-.53.43,0,.67.77-.14.75.19.77.93,1-.76.35-1.23,1.13-1.6L9.14,28l2-1.92.58-1.2-.26-1.38.49-.18,1.23.87.58.87.86.47,1.08,1.92,1.38.23,1-.49.66.32,1.11-.16,1.41.86L20.1,30.1l.55,0,.92,1L19.91,31l-.24.27-1.52.35-2.1,1.26-.14.85-.47.65.19,1-1.12.53v.79l-.49.33.77,1.67,1,1.13-.39.79,1.22.11.7,1,1.63,0,1.51-1.09-.13,2.82.85.22,1-.32,1.6,3-.4.63-.08,1.33,0,1.61-.73.94.34.71-.43.64.8,1.6Z"/><path class="cls-1" d="M34.87,65.08l.73-2.36,0-1.06.88-1.72,3.21-.56,1.71,0,1.73,1,0,.6.55,1.09-.12,2.67,1.95.38.75-.38,1.24.54.35.59.17,1.82.22.78.68.08.69-.32.67.36v1.11l-.25,1.19-.36,1.17-.31,1.81-1.67,1.58-1.46.33-2.07-.31-1.86-.56,1.82-3.12-.27-.9L42,70.12l-2.26-1.48-1.51-.3Z"/><path class="cls-1" d="M45.09,12.27l2.21.37.19-.33,1.5-.13,2,.5-1,1.57.14,1.26.73,1.09-.32.79-.17.84-.47.77-1.05-.39L48,18.8l-.74-.16-.18.53.3.36-.16.37-1-.15-1.12-1.59-.24-1h-.59l-.82-1.33.34-.95-.1-.43,1.12-.48Z"/><path class="cls-1" d="M44.2,81.39l1.2-.22,1.85,1.64.68-.06,1.9,1.37,1.45,1.2,1.07,1.48-.82,1,.52,1.25-.8,1.4-2.09,1.23-1.36-.44-1,.24-1.7-1-1.25.07-1.13-1.23L42.87,88l.4-.49,0-2.17.49-2.21Z"/><path class="cls-1" d="M18.92,1.51,18.87,2l-1.09.21.61.85,0,1-.81,1.08.7,1.47.8-.11.41-1.35-.57-.65L18.8,3l2.29-.77-.25-.88.64-.59.67,1.32,1.29,0,1.2,1,.07.62h1.65l2-.19,1.06.84,1.4.23,1-.58,0-.48,2.29-.11,2.21,0L34.79,4l.62.88,1.48.14,1.4.91.3,1.49,1,0,.72.44L38.81,8.94l-.17.68.64.68-.46.34-1.14.3,0,.85-.5.51,1.25,1.39.25.52-.68.71L36,15.6l-1.32.29-.53.44-1.47-.46-1.37-.24-.34.17.82.47-.07,1.23L32,18.66l1.56.16.1.38-1.32.53-.21.77-.76.3L30,21.23l-.36.56-1.43.12-1-1-.56-1.82-.49-.65-.67-.4.93-.91-.06-.42-.53-.55L25.4,15l.14-1.32L26,13l.33-1-.65-.32-1.05.21-1.33-.1-.74.2-1.3-1.59-1.08-.24-2.37.18-.44-.64-.45-.15-.07-.39L17,8.52l-.14-.74-.41-.41-.24-.85-1-.12.51-1.09L16,4l.53-.7.72-.54.47-.93Z"/><path class="cls-2" d="M49.68,72.07l-.3,1.8-1.67,1.58-1.46.33-2.08-.31-1.86-.56,1.82-3.11-.26-.9L42,70.11l-2.25-1.49-1.51-.3-3.39-3.25-.29-.42-2.11-.08c-.74,6.89-2.18,11.73-.74,13.17,1.25,1.25,7.36,3.49,12.38,4l.1-.39,2.47-2.87,2.07-2,1.24-.84,1.55-1.14,0-1.64-.92-1.18Z"/><path class="cls-2" d="M77.43,57.28l.58-.75.19-1.27.52-2.95-.13-3.55.52-1.38.46,0,1.36-1.63,1.18-2.12L84.7,41l.94-1.21.74-3.06-.31-1.12-.62-2.34-.67-.58-1.58-.08-1.42-.53L79.42,30,76.7,28.5l-2.76.08-3.59-1-2.14.57.3-1-.9-1.07L64.55,25l-2.32-.66-1.41,1.2-.06-1.83-3.26-.29-.58-.55,1.39-1.51-.05-1.26-1-.31-1-3.21-.45-1-.64.09-1.09,1.67-.56,1.36-.71.7-.88.13L51.65,19l-.4-.08-.58.5L49.86,19l-1-.39-.87.19-.75-.16-.18.53.31.36-.17.37-1-.15-.45.07-1-.15-.6.48-.83.33-.58.08-.21.35-.9-.09L40.42,20l-.13-.84-.48-.93.3-1.57.51-.64-.43-.86-.63-.27.25-.81-.44-.42-1,.07.25.52-.68.71-2.06.68-1.32.29-.54.44-1.46-.46-1.37-.24-.34.17.82.47-.07,1.23.25,1.16,1.56.16.11.38-1.33.53L32,20.5l-.76.3-1.37.43-.35.56-1.44.12-1-1-.34.23-.36-1.09-.51-.58-.61.64-3.6,0,0,1.14,1.08.19-.06.7-.37-.19-1,.31v1.33l.81.67.29,1,0,.8-.83,5L19.85,31l-.24.27-1.51.35L16,32.92l-.14.85-.46.65.18,1-1.12.53v.79l-.48.33.77,1.67,1,1.13-.39.79,1.23.11.7,1,1.62,0,1.51-1.09-.12,2.82.84.22,1-.32,1.37.16,1-.05.42-.56,1.61-.75,1-.7,2.42-.32-.19,1.4.22.71-.15,1.25,2,1.68,2.06.31.73.7,1.25.38.76.55,1.16,0,1.07.55.08,1.1.36.55,0,.82-.54,0,.71,2.21,3.53.08-.27,1.11.2.76,1,.53.45,1.2-.33,1.53-.51.85.18,1.11-.58.4.54,1.09-.11,2.67,1.94.38.75-.38,1.25.54.35.59L48,67.71l.21.78.69.08.69-.32.66.36v1.11L50,70.91l-.36,1.17.92-.38.92,1.17,0,1.64-1.55,1.14-1.24.84-2.08,2-2.46,2.87,1.2-.22.8.71c2.32,0,7.45-1.1,12.93-2.67l1.19-1.07.41-1L61,75l-.31-1.14L61,72.37l1.56-2,2.17-1.6,2.06-.59,1.31-.88,2.9-.77h2l.43-1.19,1.5-.86.31-2,1.87-2.55Z"/><path class="cls-2" d="M10.85,18c-.53,1.53-1.29,3.1-2,4.71l.35.06.53-.29.9.6.79.44.5-.18,1.22.87.59.87.85.47,1.09,1.92L17,27.7l1-.49.67.32,1.1-.16,1.42.86L20.05,30.1l.55,0,.92,1,.83-5,0-.8-.29-1-.81-.67V22.25l1-.31.37.19.06-.7-1.08-.19,0-1.14,3.6,0,.61-.64.51.58.36,1.09.34-.23-.56-1.82L26,18.47l-.67-.4.93-.91-.05-.42-.53-.55L25.34,15l.15-1.32.4-.62.34-1-.65-.32-1.06.21-1.32-.1-.75.2-1.3-1.59-1.07-.24-2.37.18-.44-.64-.45-.15-.07-.39L17,8.52l-.15-.74-.41-.41-.23-.85-.95-.12.51-1.09L16,4l.53-.7.72-.54.46-.93,1.19-.31.35-.64L18.74.38,18.08.27l-.88.9-.72.42L15,2.53l-1.45-.15-.15.39-1.15,0-.92.75a10.88,10.88,0,0,0-.51,2.3C10.68,8.14,12.52,13.24,10.85,18Z"/><path class="cls-2" d="M10.62,23.08l-.9-.6-.53.29-.35-.06A21.25,21.25,0,0,0,7,28.7L9.09,28l2-1.92.57-1.2-.26-1.38Z"/><path class="cls-2" d="M21.15,43.75l-.84-.22.12-2.82L18.92,41.8l-1.62,0-.7-1-1.23-.11.39-.79-1-1.13L14,37.06l.48-.33v-.79l1.12-.53-.18-1,.46-.65.14-.85,2.11-1.26,1.51-.35.24-.27,1.67.08-.92-1-.55,0,1.19-1.87-1.42-.86-1.1.16-.67-.32-1,.49-1.37-.23-1.09-1.92-.85-.47-.59-.87-1.22-.87-.5.18.26,1.38-.57,1.2L9.09,28,7,28.7a10.51,10.51,0,0,0,.65,5.09C10,39.71,8.69,47.42,19.82,49.4a26.91,26.91,0,0,1,3.31.78l.13-.17,0-1.61.09-1.33.4-.63-1.6-3Z"/><path class="cls-2" d="M42.94,55.38l-.2-.76L43,53.51l-3.53-.08-.71-2.21.54,0,0-.82-.36-.55-.08-1.1-1.07-.55-1.16,0-.76-.55-1.25-.38-.73-.7-2.06-.31-2-1.68L30,43.32l-.22-.71.19-1.4-2.42.32-1,.7L24.93,43l-.42.56-1,.05-1.37-.16,1.6,3-.4.63L23.3,48.4l0,1.61-.13.17c8.26,2.56,10,8.25,9.28,14.39l2.11.09.29.42.73-2.36.05-1.06.88-1.72,3.22-.56,1.71,0,1.72,1,0,.6.58-.4-.18-1.11.51-.85.33-1.53-.45-1.2Z"/><path class="cls-3" d="M53.5,18.65l-.71.7-.88.13L51.66,19l-.41-.07-.58.5-.8-.38.47-.78.16-.84.31-.79-.71-1.08L50,14.26l1-1.58.63.2,1.35.43,2,1.56.31.75-1.09,1.67Z"/><path class="cls-3" d="M40.21,7.85l1.21.68,1.15,1.2,0,1,.69,0,1,.9.73.64-.3,1.66-1.11.48.09.43-.34.95.82,1.33h.59l.24,1,1.13,1.59-.45.07-1-.15-.6.48-.83.33-.58.08-.21.35-.9-.09L40.42,20l-.13-.84-.48-.93.3-1.57.51-.64-.43-.86-.63-.27.25-.81-.44-.42-1,.07L37.17,12.3l.5-.51,0-.85,1.14-.3.45-.34-.63-.68.16-.68Z"/><path class="cls-3" d="M34.81,65.08l.73-2.36.05-1.06.88-1.72,3.22-.56,1.71,0,1.72,1,0,.6.54,1.09-.11,2.67,1.94.38.75-.38,1.25.54.35.59L48,67.71l.21.78.69.08.69-.32.66.36v1.11L50,70.91l-.36,1.17-.3,1.81-1.67,1.58-1.46.33-2.08-.31-1.85-.56,1.82-3.12-.27-.9L42,70.12l-2.26-1.48-1.5-.3Z"/><path class="cls-3" d="M45,12.27l2.21.37.2-.33,1.49-.13,2,.5-1,1.57.15,1.26.73,1.09-.33.79-.16.84-.48.77-1-.39-.87.19-.75-.16-.18.53.31.36-.17.37-1-.15L45,18.16l-.24-1h-.59l-.82-1.33.34-.95-.09-.43,1.11-.48Z"/><path class="cls-3" d="M18.87,1.51,18.81,2l-1.08.21.6.85,0,1L17.5,5.07l.7,1.47L19,6.43l.42-1.35-.58-.65L18.74,3,21,2.25l-.26-.88.65-.59.66,1.32,1.3,0,1.19,1,.08.62h1.65l2-.19,1.06.84,1.41.23,1-.58,0-.48,2.29-.11,2.21,0L34.73,4l.63.88,1.48.14L38.23,6l.3,1.49,1,0,.72.44L38.75,8.94l-.16.68.63.68-.45.34-1.14.3,0,.85-.5.51,1.24,1.39.25.52-.68.71-2.06.68-1.32.29-.54.44-1.46-.46-1.37-.24-.34.17.82.47-.07,1.23.25,1.16,1.56.16.11.38-1.33.53L32,20.5l-.76.3-1.37.43-.35.56-1.44.12-1-1-.56-1.82L26,18.47l-.67-.4.93-.91-.05-.42-.53-.55L25.34,15l.15-1.32.4-.62.34-1-.65-.32-1.06.21-1.32-.1-.75.2-1.3-1.59-1.07-.24-2.37.18-.44-.64-.45-.15-.07-.39L17,8.52l-.15-.74-.41-.41-.23-.85-.95-.12.51-1.09L16,4l.53-.7.72-.54.46-.93Z"/><path class="cls-4" d="M25.71,149.69l-1.75.16L23,148.71l-1.11-.08h-2l3.91-11.36.71,1.41-3,6.73L24,147.3l2.58.79Zm4.9-84.95,1.09,1.43.71-1.6,2.11.08.29.42,3.39,3.25,1.51.3L42,70.11l1.91.79.26.9-1.82,3.11,1.86.56,2.08.31,1.46-.33,1.67-1.58.3-1.8.92-.39.92,1.18,0,1.64-1.55,1.14-1.24.84-2.07,2-2.47,2.87-.46,1.7L43.2,85.3l0,2.17-.4.49-.15,1.43-.12,1.15,2.34,1.92L44.64,94l1.15,1-.09,1.12-1.77,3-2.74,1.26-3.69.49-2-.23.39,1.41-.38,1.79.35,1.22-1.11.85-1.89.34-1.77-.89-.71.64.25,2.44,1.25.75,1-.79.55,1.29-1.69.78L30.24,112,30,114.59,29.53,116H27.79l-1.45,1.34-.53,2,1.82,2,1.76.55-.63,2.45-2.18,1.57-1.19,3.31-1.69,1.13L23,131.63l.59,3.05,1.23,1.73-.77-.15-1.71-.47-4.46-.4-.76-1.73,0-2.19-1.23.18-.65-1.05-.17-3,1.42-1.23.58-1.77-.22-1.38,1-2.32.68-3.52-.2-1.53.8-.5-.2-1-.85-.51.6-1.07-.83-1-.43-2.9.74-.51-.3-3,.43-2.47.49-2.12,1.11-.85-.56-2.28V95.58l1.4-1.48,0-1.89L21.69,90V88l-.48-.4-.85-3.75,1.14-2.19-.18-2L22,77.7l1.21-1.94,1.3-1.29L24,73.66l.38-.65,0-3.39,2-1,.63-2.08-.22-.5,1.54-1.79Z"/><path class="cls-4" d="M44.15,81.39l2.46-2.87,2.08-2,1.24-.84,1.55-1.14,0-1.64L50.6,71.7l-.92.38L50,70.91l.25-1.19V68.61l-.66-.36-.69.32-.69-.08L48,67.71l-.17-1.82-.35-.59-1.25-.54-.75.38-1.94-.38.11-2.67L43.15,61l.58-.4-.18-1.11.51-.85.33-1.53-.45-1.2-1-.53-.2-.76L43,53.51l-3.53-.08-.71-2.21.54,0,0-.82-.36-.55-.08-1.1-1.07-.55-1.16,0-.76-.55-1.25-.38-.73-.7-2.06-.31-2-1.68L30,43.32l-.22-.71.19-1.4-2.42.32-1,.7L24.93,43l-.42.56-1,.05-1.37-.16-1,.32-.84-.22.12-2.82L18.92,41.8l-1.62,0-.7-1-1.23-.11.39-.79-1-1.13L14,37.06l.48-.33v-.79l1.12-.53-.18-1,.46-.65.14-.85,2.11-1.26,1.51-.35.24-.27,1.67.08.83-5,0-.8-.29-1-.81-.67V22.25l1-.31.37.19.06-.7-1.08-.19,0-1.14,3.6,0,.61-.64.51.58.36,1.09.34-.23,1,1,1.44-.12.35-.56,1.37-.43.76-.3.21-.77,1.33-.53-.11-.38-1.56-.16-.25-1.16.07-1.23-.82-.47.34-.17,1.37.24,1.46.46.54-.44,1.32-.29L38,14.92l.68-.71-.25-.52,1-.07.44.42-.25.81.63.27.43.86-.51.64-.3,1.57.48.93.13.84,1.14.86.9.09.21-.35.58-.08.83-.33.6-.48,1,.15.45-.07,1,.15.17-.37L47,19.17l.18-.53.75.16.87-.19,1,.39.81.38.58-.5.4.08.26.52.88-.13.71-.7.56-1.36,1.09-1.67.64-.09.45,1,1,3.21,1,.31.05,1.26-1.39,1.51.58.55,3.26.29.06,1.83,1.41-1.2,2.32.66,3.06,1.12.9,1.07-.3,1,2.14-.57,3.59,1,2.76-.08L79.42,30l2.36,2.06,1.42.53,1.58.08.67.58.62,2.34.31,1.12-.74,3.06L84.7,41l-2.59,2.59-1.18,2.12-1.36,1.63-.46,0-.52,1.38.13,3.55-.52,2.95L78,56.53l-.58.75-.33,2.6-1.87,2.55-.31,2-1.5.86L73,66.51H71l-2.9.77-1.31.88-2.06.59-2.17,1.6-1.56,2-.27,1.52L61,75l-.35,2.09-.41,1L59,79.29l-2,3.74-1.62,1.7-1.26,1-.84,2.08L52,89.08l-.51-1.25.81-1-1.06-1.48-1.45-1.2-1.9-1.37-.69.06-1.84-1.64Z"/><path class="cls-4" d="M34.52,64.66l-2.11-.09-.71,1.6-1.09-1.43-2.41-.48-1.54,1.79-1.33.27-.73-2.73-1-2.2.58-1.89-1-.82L23,57.28,22.08,56l1.16-2.07-.79-1.6.42-.64L22.54,51l.72-.94,0-1.61.09-1.33.4-.63-1.6-3,1.37.16,1-.05.42-.56,1.61-.75,1-.7,2.42-.32-.19,1.4.22.71-.15,1.25,2,1.68,2.06.31.73.7,1.25.38.76.55,1.16,0,1.07.55.08,1.1.36.55,0,.82-.54,0,.71,2.21,3.53.08-.27,1.11.2.76,1,.53.45,1.2-.33,1.53-.51.85.18,1.11-.58.4,0-.6-1.72-1-1.71,0-3.22.56-.88,1.72-.05,1.06-.73,2.36Z"/><path class="cls-4" d="M22.08,56l-.5,1-.94.49-1.85-1.11-.17-.79L15,53.63l-3.31-2.08-1.42-1.17-.77-1.56.31-.55L8.22,45.8,6.39,42.36l-1.73-3.7-.76-.85-.58-1.35L1.89,35.25.57,34.5l.6-.82L.28,31.92l.57-1.28,1.47-1.16.22.77L2,30.68l.05.67.76-.14.75.19.77.93,1-.76.35-1.23,1.13-1.6L9.09,28l2-1.92.57-1.2-.26-1.38.5-.18,1.22.87.59.87.85.47,1.09,1.92L17,27.7l1-.49.67.32,1.1-.16,1.42.86L20.05,30.1l.55,0,.92,1L19.85,31l-.24.27-1.51.35L16,32.92l-.14.85-.46.65.18,1-1.12.53v.79l-.48.33.77,1.67,1,1.13-.39.79,1.23.11.7,1,1.62,0,1.51-1.09-.12,2.82.84.22,1-.32,1.6,3-.4.63L23.3,48.4l0,1.61-.72.94.33.71-.42.64.79,1.6Z"/><path class="cls-4" d="M23.84,137.27l-3.91,11.36h2l1.12.08L22.4,150l-1.58,1-.9-.1-1.1-.27-1.34-1-1.93-.47-2.32-1.78-1.88-1.69,1.37-7.86,1.52.64L12.92,145l2.44,1.12,1-1.43,4.51-6.51,1.7-1.25Zm.76-73.68.73,2.73,1.33-.27.22.5-.63,2.07-2,1L24.3,73l-.39.66.56.81-1.31,1.28L22,77.7l-.66,1.9.18,2.05-1.14,2.2.85,3.74.48.4v2L20.6,92.2l0,1.89-1.39,1.49v2.11l.55,2.28-1.1.86-.49,2.11-.44,2.47.31,3-.74.5.43,2.9.83,1-.6,1.07.85.51.2,1-.8.49.19,1.53-.67,3.52-1,2.32.22,1.39-.59,1.76L15,127.57l.16,3,.65,1.06,1.23-.19,0,2.19.77,1.73,4.46.4,1.71.47-1.64,0-.89.74-1.66,1.1-4.21,7.29-.78.07-2.08-1,1.8-6.54h0l-2.3-1.73-.58-1.89.52-1.73-.93-1.93L11,125.77l.78-2.65,2-2.1-2.81-.78,1.76-2.35.63-4.32,2,.91,1-5.25-1.24-.65-.58,3.12-1.16-.36.58-3.56.63-4.5.85-1.63-.54-2.3-.15-2.62.78-.07L16.61,93l1.28-3.57.78-3.27-.43-3.23.56-1.76-.23-2.6L19.65,76,20,72l.59-4.19.58-4.44L21,60.18l-.38-2.73.94-.49.5-1,.9,1.31.24,1.4,1,.82-.58,1.89Z"/><path class="cls-4" d="M37.56,134.9l2.21-1.77,1.57.74,1.1-1.18L43.92,134l-.55,1-2.5.9-.83-1-1.56,1.35Z"/><path class="cls-4" d="M44.15,81.39l1.2-.22,1.84,1.64.69-.06,1.9,1.37,1.45,1.2,1.06,1.48-.81,1L52,89.08l-.8,1.4-2.08,1.23-1.36-.44-1,.24-1.71-1-1.25.07-1.12-1.23L42.81,88l.4-.49,0-2.17.5-2.21Z"/><path class="cls-4" d="M11.41,23.52l-.79-.44-.9-.6-.53.29-1.56-.26-.45-.79-.34,0L5,20.71l-.25-.57L5.43,20l-.08-.92.43-.66.91-.13.78-1.15.71-1-.69-.44.35-1.07L7.43,13l.39-.48L7.53,11l-.75-1L7,9.07l.6.13L8,8.65,7.54,7.56l.22-.27,1,.06,1.39-1.3.76-.2V5.24l.35-1.57,1.06-.87,1.15,0,.15-.39L15,2.53l1.45-.94.72-.42.88-.9.66.11.48.49-.35.64-1.19.31-.46.93-.72.54L16,4l-.23,1.32L15.23,6.4l.95.12.23.85.41.41.15.74-.22.69.07.39.45.15.44.64,2.37-.18,1.07.24L22.45,12l.75-.2,1.32.1,1.06-.21.65.32-.34,1-.4.62L25.34,15l.37,1.21.53.55.05.42-.93.91.67.4.49.65.56,1.82-.34.23-.36-1.09-.51-.58-.61.64-3.6,0,0,1.14,1.08.19-.06.7-.37-.19-1,.31v1.33l.81.67.29,1,0,.8-.83,5-.92-1-.55,0,1.19-1.87-1.42-.86-1.1.16-.67-.32-1,.49-1.37-.23-1.09-1.92-.85-.47-.59-.87-1.22-.87Z"/><path class="cls-4" d="M2.32,29.48l1-1.37-.4-.8-.7.85-1.11-.81.38-.51-.31-1.67.64-.27.35-1.14.69-1.18-.13-.75,1-.39L5,20.71l1.85,1,.34,0,.45.79,1.56.26.53-.29.9.6.79.44.26,1.38-.57,1.2L9.09,28l-2.22.72-1.13,1.6-.35,1.23-1,.76-.77-.93-.75-.19-.76.14L2,30.68l.53-.43Z"/><circle class="cls-5" cx="33.12" cy="5.62" r="0.84"/><circle class="cls-5" cx="13.18" cy="5.62" r="0.84"/><circle class="cls-5" cx="8.47" cy="39.39" r="0.84"/><circle class="cls-5" cx="24.97" cy="57.11" r="0.84"/><circle class="cls-5" cx="45.77" cy="66.75" r="0.84"/><circle class="cls-5" cx="33.69" cy="102.8" r="0.84"/><circle class="cls-5" cx="62.93" cy="41.21" r="0.84"/></g></g></svg>