<svg xmlns="http://www.w3.org/2000/svg" viewBox="0 0 53.52 53.52"><defs><style>.cls-1{fill:#4b4038;}.cls-2{fill:#8e8e23;}</style></defs><title>NO_patas</title><g id="Layer_2" data-name="Layer 2"><g id="Layer_1-2" data-name="Layer 1"><path class="cls-1" d="M26.76,24.25c-6.75,0-4.05,2.19-6.17,4.31s-4.51,1-4.51,4.24c0,4.44,2.85,6.5,5.44,6.5s3.31-1.2,5.24-1.2,2.66,1.2,5.25,1.2,5.43-2.06,5.43-6.5c0-3.24-2.38-2.12-4.5-4.24S33.51,24.25,26.76,24.25Z"/><ellipse class="cls-1" cx="14.55" cy="23.16" rx="2.63" ry="4.95" transform="translate(-5.67 4.74) rotate(-15.53)"/><ellipse class="cls-1" cx="22.59" cy="17.02" rx="2.63" ry="4.95" transform="translate(-2.62 4.2) rotate(-10.04)"/><ellipse class="cls-1" cx="38.62" cy="23.16" rx="4.95" ry="2.63" transform="translate(5.96 54.17) rotate(-74.47)"/><ellipse class="cls-1" cx="31.34" cy="17.02" rx="4.95" ry="2.63" transform="translate(9.12 44.9) rotate(-79.96)"/><path class="cls-2" d="M26.76,0A26.76,26.76,0,1,0,53.52,26.76,26.76,26.76,0,0,0,26.76,0Zm0,6.45a20.25,20.25,0,0,1,11.6,3.64L10.09,38.36A20.31,20.31,0,0,1,26.76,6.45Zm0,40.62a20.17,20.17,0,0,1-12-3.89L43.18,14.81A20.31,20.31,0,0,1,26.76,47.07Z"/></g></g></svg>