<svg xmlns="http://www.w3.org/2000/svg" viewBox="0 0 56.45 37.56"><defs><style>.cls-1{fill:#9b9838;}</style></defs><title>tapir_03</title><g id="Layer_2" data-name="Layer 2"><g id="Layer_1-2" data-name="Layer 1"><path class="cls-1" d="M17.65,37.47c.19.14,1.93,0,2.27-.58a.85.85,0,0,0,1.23-.14c.65-.66.76-1.3.89-2.74a25.3,25.3,0,0,1,.76-3.78c.37-1.55.71-2.39.84-3.16A3.8,3.8,0,0,1,24,25.91s.33,1,.55,1.77a11.86,11.86,0,0,1,.66,3.62c-.16.78-.18,2.36-.71,2.77s-1,.42-1.43.68-1.13.84-1,1,.61.16,1,.09a6.57,6.57,0,0,0,1.17-.46s-.32.47-.29.64c0,0,.06.47.79.26a5.9,5.9,0,0,0,1.44-.58c.35-.19.84-.3,1-.51a2,2,0,0,0,.56-1c.14-.6-.09-1.23,0-2.09a32.69,32.69,0,0,0,.18-3.71c-.05-.88-.17-1.73-.18-2.44s-.55-3.33-.07-4.23c0,0,.08,0,.08,0a5.74,5.74,0,0,0,2.51.72,32.31,32.31,0,0,0,6.51,0c.83-.18,1.77-.3,1.77-.3l.4-.08.17.28.52-.81c0,.85,2.51,3.12,2.39,4S40.2,28,39.39,29.47a4.83,4.83,0,0,0-.73,2.83c-.12,1.22,1-.12,1-.12-.12,1.42,1.5-.81,1.5-.81.65-.73,4.58-4.86,4.58-4.86s.72,1.95,1.37,4-1.09,4.57-1.7,5.1a5.27,5.27,0,0,1-1.42.83c-1.33,1.4,1.71.49,1.71.49-.85.91.91.6,1.94.42s.67-.73,1.27-2.18,1.83-3.71,2.49-5.47-.3-2.37-.3-2.37a7.86,7.86,0,0,1-1.21-5.28,5.61,5.61,0,0,1,3.76-3.52c-.06,1.45.67,1.27.67,1.27.18-1.27.73-1.27,1.88-4.49S54.47,8,54.47,8C49.67.62,40.69.2,38.2,0S27.63,1.53,27.63,1.53c-3.58,1.1-9.29.79-9.29.79C6.07,1.41,4.43,5.9,4.43,5.9,1.7,6.27,3,8.64,3,8.64s.19.6-.42,3.22-1.52,5.52-1.52,5.52c-1.46,3.52-1,3.16-1,5.08,0,0,.06,1.7,1,1.42A7,7,0,0,0,2,23.4c.26-.2.6-.32.79,0a.47.47,0,0,0,.54.19,1.67,1.67,0,0,1,.54-.29,6.38,6.38,0,0,0,1.11-.56c.15-.07,1.26-.59,1.87-.95A16.73,16.73,0,0,0,10,19.2c.88-1,.73-.47,1.24-.36a1.19,1.19,0,0,0,.93-.23s-.14.4,1.7,1a15.42,15.42,0,0,0,3.23.91,1.62,1.62,0,0,1,1.23.68c.28.29.78.14.94,1.41s.57,10,.44,10.44c0,0,0,2.24-1.15,2.77C17.78,36.44,17.58,37,17.65,37.47Z"/></g></g></svg>