<svg xmlns="http://www.w3.org/2000/svg" viewBox="0 0 60.95 40.93"><defs><style>.cls-1{fill:#9b9838;}</style></defs><title>tapir_01</title><g id="Layer_2" data-name="Layer 2"><g id="Layer_1-2" data-name="Layer 1"><path class="cls-1" d="M1.68,14c0,.41-.75.1-.75.1s-1.24.11-.86-1.33A8.39,8.39,0,0,1,2.23,8.54C3.36,7.62,5.8,6,6.66,5.25c0,0,.72-1.75.92-2.2l0,.55L8,2.44V3l.41-.48s-.07-1.06.69-.82l.68-.51-.17.27L10.5.89l-.07.31.86-.55-.24.45L12,.58,11.8.86l.62-.35-.07.24L13.62.34l-.2.28L14.1.21l-.2.34.72-.34-.14.34.86-.48-.17.31.54-.31-.1.27.45-.13-.17.27L16.5.1l-.2.31L17,.1l-.17.28L17.57,0l-.24.34L18.12.1l-.21.38.82-.31-.2.34.82-.24L19,.62l1-.31-.2.31.82-.28-.31.35L21,.41l-.17.31s.75-.27.92-.31l-.27.45.75-.31L21.85,1l.79-.27-.27.44L23,.69l-.07.3.75-.24-.24.45L24,.72l-.24.45.62-.35-.17.41L24.91,1l-.31.35.82-.14-.24.31h.65l-.31.24.9-.1L26.11,2,27,1.78,26.69,2l2.3.14,7.2.69c2.16.2,7.41-.35,13.52,4.08,0,0,7.48,4.63,7.27,11.66,0,0-.24,2.88-.21,3.57a9.52,9.52,0,0,1-.13,2.4c-.17.82.86,3.43,1.68,4.49s1.06.86,1.13,2.34A20.62,20.62,0,0,1,60,34.65a10.46,10.46,0,0,0,.62,2.67c.17.55.65,2.71-.14,3.19s-.75-.27-1.54.21-.48,0-.48,0a4.59,4.59,0,0,1-1.37.17,11.62,11.62,0,0,0,.82-1.61,6.93,6.93,0,0,0-.41-4c-.52-1.27-1.13-3.53-5-7.89,0,0-2.91-3-3.15-3.05s-3.81-.24-3.78,3.05a13.06,13.06,0,0,0,.48,3.4c.41.82,1,1.4.14,2.3s-3.71,4.18-4.15,4.73-.38.93-2.16.79-3.33-.48-2.47-.89c0,0-1.41-.14-1.31-.35a7.45,7.45,0,0,1,2-1.3c.48-.14,1,.31,1.58.1a4.13,4.13,0,0,0,2.33-4c-.3-2.23-1.3-7.85-2.29-9.09a.67.67,0,0,0-.55-.31c-.38,0-5.63-.14-9.54-2.78a4,4,0,0,1-.58,1.55,16.34,16.34,0,0,0-1.31,4.8c0,.86-.51,4.46.52,6.21l-.17,0s.41,1.2.27,1.27-.27.11-.89-.44a8.5,8.5,0,0,0-.45.79c-.3.58-.85.58-1.88.54a5.22,5.22,0,0,1-2.06-.24s-.52.28-.38-.13,0-.11.79-.86c0,0,0-.07.48-.45,0,0,.62-.06.72-1.3a18.25,18.25,0,0,0,.1-4.05,18.42,18.42,0,0,1-.17-3.74,21.18,21.18,0,0,0,0-2.12s-1.75.85-2.71,1.23-3.26,1.31-2.54,2.78.69,1.48,1.27,2a1.37,1.37,0,0,1,.51,1.13s1.75,1.16.24,2.16c0,0,.28,1.65-.41,1.2s-1.13-1-1.78-1.37a9,9,0,0,1-1.61-3.12,9,9,0,0,1-.86-3.13,7.17,7.17,0,0,1,1.65-4c1.09-1.3,1.74-2.5,1.37-2.88A18.92,18.92,0,0,0,18,16.05a2.9,2.9,0,0,1-1.44-2.23,6.06,6.06,0,0,0-2.4-1.68c-1-.17-.93-.58-1.37-.37s-5.52,3-8,1.75a1.65,1.65,0,0,1-2-.48.79.79,0,0,0-1,.54Z"/></g></g></svg>