<svg xmlns="http://www.w3.org/2000/svg" viewBox="0 0 70.02 121.28"><defs><style>.cls-1{fill:#9b9839;}</style></defs><title>arbol</title><g id="Layer_2" data-name="Layer 2"><g id="Layer_1-2" data-name="Layer 1"><path class="cls-1" d="M38.44,54c0,1.14.93,8,.86,9.51s.18,7.24,0,8.59-.38,12.79,0,13.49-.72,11.63-.86,13.21a31.75,31.75,0,0,0,0,3.62c0,.46.93,5.44.86,5.89s1.09,1.24,1.09,1.24a3.54,3.54,0,0,0,.9.79c.57.34,1.59,1.14,2.24,1.47A24.22,24.22,0,0,0,47.07,113c2.27.67.22.79.19,1.13s1.16.56,2.79.9a26.62,26.62,0,0,1,2.85.57c1.08.34-.29.56-1.54.68s0,0-1.81.22a9.2,9.2,0,0,1-2.48.12,19.35,19.35,0,0,0-5.44,1.24c-2.26.68,0,0,1.55.34s1.62.68,2.19,1.81,0,0-.89-.23-1.49-.22-6,.46-.88.56-2.69.9a4,4,0,0,1-2.41,0s.71-.34,1-.45-2.15-1.36-2.6-1-.57-.26-2.94,0a24.88,24.88,0,0,1-6.57-.9s3.06-.57,3.19-.57A25.13,25.13,0,0,0,29,116.72c.45-.34.91-.11,1.25-.79s2.94-3.17,3.13-3.51a14.79,14.79,0,0,0,1-1.81c.35-.79.08-4.94,0-5.66-.15-1.43.07-9.61,0-10.86,0-1,1.36-6,1.13-8.46s.12-6.81,0-8.51a58.35,58.35,0,0,1-.34-6.45c.12-2,.23-3.73.23-5.65s.45-7.81.34-8.6,0-10.3,0-10.3c0-.24,0-2.28-.07-2.49a19.65,19.65,0,0,0-.87-3.73,47.67,47.67,0,0,1-1.69-6.23,9.69,9.69,0,0,0-1.05-2.56c-.44-.78-1.28-2.33-1.82-3.44C28.89,24.91,29,25,27.17,25.34c-1.46.26-1.55.26-2.16-.2a23.38,23.38,0,0,0-5.21-1.95c-.62,0-1.33-1-1.61-2.19-.4-1.86-.44-1.88-4.59-1.93-3.55,0-3.6-.05-4.35-.61-1-.77-1.57-.73-2.91.15C4.7,19.72,4,19.6,2.71,18a1.44,1.44,0,0,0-1.07-.34C.41,17.66,0,17.27,0,16a2.09,2.09,0,0,1,.68-1.88,2.48,2.48,0,0,0,.72-1.36,1.19,1.19,0,0,1,.31-.83A.91.91,0,0,0,2,11.37c0-.15.34-.54.75-.88,2.33-1.9,2.47-2,2.4-2.71l-.07-.67L6.37,7A4.23,4.23,0,0,0,9.44,5.66a8.38,8.38,0,0,1,3.37-1.2,14.61,14.61,0,0,0,2.66-.86,15.56,15.56,0,0,1,2.72-.85,3.05,3.05,0,0,0,2.56-1.29L21,.84h3.12A14.24,14.24,0,0,0,27.63.59C28.4.18,33,.26,34.5.71A3.65,3.65,0,0,0,37,.84,6.76,6.76,0,0,0,38.59.28,2.44,2.44,0,0,1,41,.33a11.14,11.14,0,0,0,3.14.45A11.37,11.37,0,0,1,47,1.17c.45.24,1.32.25,4.31.1,4.06-.19,5-.09,5.8.65a4.35,4.35,0,0,0,2,.76C60,2.84,60.68,3,60.7,3a2.12,2.12,0,0,0,1.85,1.42c.62.12,2.14.16,2.55.2a2.93,2.93,0,0,1,1.78,1.71c.07.48.32.77,1,1.14s.9.61.9,1a.68.68,0,0,0,.47.7.75.75,0,0,1,.52.79A7.07,7.07,0,0,0,70,11.21c.14.52.07.61-.95,1.09a4.16,4.16,0,0,1-2.74.4,14.32,14.32,0,0,1-3.44-1.24c-.5-.46-.92-.16-1.37,1A5.7,5.7,0,0,1,57,16.36a25.64,25.64,0,0,0-5.66,2.74,8.37,8.37,0,0,1-1.75,1c-.63.24-1,.51-1,.8a29.82,29.82,0,0,0-.48,4.46l-.1,2.1-1.67,1.73a7.53,7.53,0,0,1-3.19,2.35c-2.09.84-3.47,2-4,3.28-.36.92-.39,3.53-.38,10.94C38.77,45.79,38.46,52.91,38.44,54ZM23,20.48a6.67,6.67,0,0,0,1.46,3.24,1.59,1.59,0,0,0,1.15.51c.71,0,2.4-.75,2.4-1.05a5.78,5.78,0,0,0-2.08-2.59c-1.52-1.09-1.94-1.28-2.54-1.13S22.88,19.65,23,20.48Zm.73-1.87a11.91,11.91,0,0,1,3.65,1.65,7,7,0,0,1,1.21,1.55,8.5,8.5,0,0,0,1,1.43,2.48,2.48,0,0,0,2-.1,3.19,3.19,0,0,0,.36-1,6.78,6.78,0,0,1,1.31-2.07c1-1.2,1.14-1.49,1.14-2.27A5.06,5.06,0,0,0,32.2,14.1c-1.43-1-1.91-1.16-2.46-.79a6.34,6.34,0,0,1-1.46.62c-1,.3-1,.3-2.08-.38a3.59,3.59,0,0,0-4.1-.15c-1,.75-1,1.29-.46,3.13S22.3,18.37,23.73,18.61ZM52.43,6.72c-.1-.29-1.53-.58-3-.63-1.19,0-1.46.32-.8,1.07a2,2,0,0,0,1,.57C50.37,7.86,52.55,7.08,52.43,6.72Zm-1.2,3.51c0,.22,1.34.26,1.55,0s.13-.49-.38-.49S51.23,10,51.23,10.23ZM48.67,4.69c0-.1-.15-.25-.32-.3s-.33,0-.33.18a.32.32,0,0,0,.33.31C48.52,4.88,48.67,4.8,48.67,4.69Zm1.26,5.23C48.64,9.36,48,9.26,48,9.62c0,.17.22.41.48.52a2.12,2.12,0,0,0,1.75.26C50.63,10.26,50.59,10.21,49.93,9.92ZM48.6,8.59a2,2,0,0,0-.83-.2c-.39,0-1.18-.12-1.74-.2-.84-.14-1-.12-.94.11s.58.33,1.88.36A4.38,4.38,0,0,0,48.6,8.59Zm-.78-1.38a.64.64,0,0,0-.92-.49A3.14,3.14,0,0,1,46,7l-.64.15.78.36C47.36,8.05,47.82,8,47.82,7.21ZM44.58,9.65l-.71.31h.68a1.13,1.13,0,0,0,.82-.2C45.62,9.36,45.33,9.33,44.58,9.65ZM16.66,12.46c.5.36.77.39,1.64.27,1.27-.18,1.65-.51.87-.69-.41-.11-.55-.26-.48-.52.29-1,.31-1-.56-.93-1.09.08-2.05.59-2.05,1.07A1.36,1.36,0,0,0,16.66,12.46ZM18,15.1c.66-.41.81-.83.34-1a3.29,3.29,0,0,0-1.74,1.16C16.42,15.66,17.17,15.58,18,15.1Zm.1-6.3c.32-.32-.15-.51-1.36-.51-.94,0-1.26.07-1.2.27A4.23,4.23,0,0,0,18.06,8.8Zm-.67-1.13a3.27,3.27,0,0,0,2.78-.39c.26-.3.15-.32-1-.2C17.53,7.25,17,7.42,17.39,7.67ZM20,8.82c-.33,0-.65.12-.68.27s.15.27.68.27.75-.1.7-.27S20.36,8.82,20,8.82Zm-.48,2.41c-.1.31,1.33.31,2.68,0,1.05-.23,1-.51-.12-.69C21.23,10.38,19.68,10.81,19.54,11.23Zm2-2.72a5.76,5.76,0,0,0,2.73.29c1-.26,1.09-.31.75-.51a1.63,1.63,0,0,0-.8-.21c-1,0-.41-.41.69-.47,1.26-.07,1.52-.38.6-.68C24.17,6.48,20.85,7.81,21.55,8.51Zm2.3,1.7a1.18,1.18,0,0,0,.77.21c.37,0,.59-.09.51-.21a1.08,1.08,0,0,0-.77-.22C24,10,23.78,10.08,23.85,10.21Zm1.41,1.69a3.73,3.73,0,0,0-2.18.14c-1.31.37-1.58.56-1.34,1,.08.14.32.1.68-.14a4.33,4.33,0,0,1,3.95.4,2.65,2.65,0,0,0,1,.56,4.41,4.41,0,0,0,2.23-1c.21-.49-.34-.7-2-.7A13.43,13.43,0,0,1,25.26,11.9Zm1.79-.63a.47.47,0,0,0-.34-.21c-.12,0-.15.09-.08.21a.45.45,0,0,0,.34.22C27.09,11.49,27.12,11.39,27.05,11.27ZM26.2,10a.56.56,0,0,0,.44.22c.19,0,.26-.1.19-.22a.54.54,0,0,0-.44-.2C26.2,9.79,26.13,9.87,26.2,10Zm.44-.77a2.07,2.07,0,0,0,.69.11,5.93,5.93,0,0,0,2.38-.82c0-.36-1.35-.44-1.84-.12a1.89,1.89,0,0,1-.9.32C26.42,8.71,26.2,9.05,26.64,9.22Zm1.47,1.32a4.89,4.89,0,0,0,2.44.29c2.31,0,2.84-.12,2.72-.48s-1.7-.75-3.46-.63S27.46,10.06,28.11,10.54Zm2.15-3.09a3.37,3.37,0,0,0,2.38,0c.38-.37-.08-1-.72-1S30.07,7.16,30.26,7.45Zm.51-3.54c.32.39.44.39,1.8,0,1-.3,1-.34.65-.63a1.78,1.78,0,0,0-1.38-.17C30.68,3.26,30.39,3.47,30.77,3.91Zm.54,1.29c0,.31.16.43.53.45a8.45,8.45,0,0,0,2.66-.38c.07,0-.26-.29-.72-.49C32.71,4.3,31.31,4.54,31.31,5.2ZM34.5,6.81c0,.44.63.49,1,.08s.42-.7-.34-.54C34.8,6.43,34.5,6.64,34.5,6.81Zm1.16,2.76a2.3,2.3,0,0,0,1.82,0,5.14,5.14,0,0,1,1.45-.21c.69,0,1-.1,1-.31,0-.56-2.33-.76-3.88-.32C35.16,9,35,9.22,35.66,9.57Zm1.72-2.34a1.06,1.06,0,0,1,.75.21c.22.35.8.2,1.84-.5,1.65-1.11,1.32-1.6-.77-1.21S35.71,7.23,37.38,7.23Zm2.77.22c0,.26,1.45.22,2.11,0,.48-.19.48-.24.18-.56s-.43-.31-1.33,0C40.58,7.1,40.15,7.35,40.15,7.45Zm1.28-3.69c.51,0,.73,0,.48-.09a3.15,3.15,0,0,0-1,0C40.68,3.72,40.9,3.76,41.43,3.76Zm.36,1c-.68-.18-.85.16-.34.7a2,2,0,0,0,.59.5c.45-.07,1.3-.48,1.3-.65s-.26-.24-.58-.32S42,4.8,41.79,4.74Zm.7,3.6c-1.55.05-1.6.07-1.6.6s.39.68,2.21.4C45.45,9,45,8.25,42.49,8.34Zm2.16,3.08c-.32-.71-.56-1-.87-1a2.6,2.6,0,0,1-1-.24.83.83,0,0,0-1,.07,4.5,4.5,0,0,1-1.45.46,4.85,4.85,0,0,0-1.26.34c-.5.3.12,1.43,1.17,2.14a5.26,5.26,0,0,1,1.28,1.25,2.94,2.94,0,0,0,.94,1,1.59,1.59,0,0,0,1.9,0,5.25,5.25,0,0,0,.48-1.64A3.13,3.13,0,0,0,44.65,11.42ZM38.5,10c-.8,0-1.55.22-1.55.44s1.4.24,1.86.06S39.1,10,38.5,10Zm-3.1,1.18c-1.24,0-1.33,0-1.26.47s0,.48-.89.48c-1.12,0-2.13.34-1.94.63s2.05.26,2.66-.1a4,4,0,0,1,1.62-.31c.71,0,1.19-.12,1.36-.34C37.41,11.46,36.86,11.17,35.4,11.17Zm-16,11a2,2,0,0,0,1.06.5,8.37,8.37,0,0,1,1,.25c.44.17.63-.32.56-1.48-.07-1.68-.24-1.84-1.82-1.84a3.32,3.32,0,0,0-1.5.21A4.07,4.07,0,0,0,19.42,22.15ZM18,18.3h1.48c1.79,0,1.92-.17,1.41-1.75a7.65,7.65,0,0,1-.34-1.77c0-1-.51-1.09-1.56-.12a9.78,9.78,0,0,1-1.59,1.16c-.37.2-.68.44-.68.53a4.33,4.33,0,0,0,.63,1.07Zm-3.09.07c.62.24,1.79.16,1.81-.13A6.05,6.05,0,0,0,16.25,17c-.46-.94-.54-1-1.12-.9a2.07,2.07,0,0,0-.82.3C14.06,16.62,14.53,18.24,14.92,18.37Zm-.32-2.62c.22,0,.41-.1.41-.21s-.19-.13-.41-.08-.43.15-.43.2S14.36,15.75,14.6,15.75Zm.36-1a.47.47,0,0,0,.07-.8c-.28-.17-1.71.45-1.71.72h0C13.31,14.9,14.46,15,15,14.74ZM8.62,13.07a1,1,0,0,1-.53.87c-.29.21-.47.45-.41.55.21.32.21.32,3.56-1a3.7,3.7,0,0,0,1-.61c.19-.24-.1-.29-1.7-.29C8.66,12.55,8.62,12.55,8.62,13.07Zm1.25-2.65a.62.62,0,0,0-.5.22c-.17.25.12.25.53,0S10.17,10.42,9.87,10.42ZM7.24,13C6.61,13,5,13.74,5,14.05s.55.23,1.75-.14S8.18,13,7.24,13ZM9.49,15.1c0,.12.31.22.68.22.63,0,.65,0,.33-.35S9.49,14.69,9.49,15.1Zm1.28-3.81a3.38,3.38,0,0,0,2.11,0c.66-.17.82-.77.27-1.06S10.27,11,10.77,11.29ZM9.69,17.88c.74.65.87.66,2.92.48,1.07-.11,1.33-.57.82-1.54-.26-.51-.5-.65-1.23-.75-1.07-.15-2.71.29-3,.82C9,17.2,9.08,17.38,9.69,17.88ZM7.6,17.45,8.09,17H7.43c-.49,0-.7.1-.78.42C6.51,18,6.94,18,7.6,17.45Zm-2.52.92c.12.38.68.41,1,0,.15-.19.23-.4.17-.45C6,17.76,5,18.13,5.08,18.37Zm.78-3.05c.67,0,1-.08,1-.22s-.5-.2-1-.2-.88.08-1,.2S5.2,15.32,5.86,15.32Zm-2,.38c-.37-.17-.49-.36-.4-.63s0-.39-.21-.39c-.48,0-.58.3-.32,1,.19.54.36.66.85.66C4.52,16.38,4.55,16,3.83,15.7Zm-3-.6c-.46,0-.53.09-.48.58.08.67.7.92.9.38S1.4,15.1.84,15.1Zm1.09,2.15c1.16.24,1.58.24,1.58,0S3,17,2.3,17C1.09,17.06,1.08,17.08,1.93,17.25Zm.64-5.56c-.4,0-1,.94-.93,1.42s.61.63.61.12a1,1,0,0,1,.31-.68C3,12.21,3,11.69,2.57,11.69Zm2.2-1.75c-.32-.22-1.89.56-1.89.92s.21.22,1.45-.09C5.23,10.55,5.37,10.3,4.77,9.94ZM3.63,13.18c.19.32,1,.25,1.7-.16L6,12.65l-.64-.05C4.52,12.51,3.44,12.89,3.63,13.18Zm6-7a6,6,0,0,0-1.06.65,3,3,0,0,1-1.93.63c-.8,0-1,.06-.86.32a1.17,1.17,0,0,1-.21.85c-.41.61-.41.61,1.48,0,1.09-.34,1.54-.6,1.76-1a1.53,1.53,0,0,1,.61-.68C9.68,6.82,9.85,6.16,9.58,6.16ZM6.94,9.48a.31.31,0,0,0,.35.29c.53,0,1.59-.61,1.45-.83S6.94,9.16,6.94,9.48ZM10.12,9c-.14-.07-.46.12-.75.43A1.66,1.66,0,0,1,8.6,10a5.16,5.16,0,0,0-1.12.41c-.48.22-1.06.46-1.26.53s-.36.25-.31.39c.12.37,1.54.46,1.81.12a3,3,0,0,0,.34-.67A2.53,2.53,0,0,1,9.15,10C10.19,9.51,10.46,9.24,10.12,9Zm.24-2.55c-.07.42.24.85.46.61A1.18,1.18,0,0,0,11,6.43C11,5.83,10.48,5.87,10.36,6.47Zm1.09,1.77c-.17.49,1.6.32,2.13-.21.37-.37.41-.49.15-.54A4,4,0,0,0,11.45,8.24ZM12.9,5.73c-1,0-1.35.26-1.25.87,0,.29.21.53.4.55A3.71,3.71,0,0,0,14,6.41C14.36,6,13.89,5.73,12.9,5.73Zm1.31,4.65c.31.31,1.58.33,1.77,0s0-.28-.68-.22a1.89,1.89,0,0,1-.9-.21C13.92,9.74,13.8,10,14.21,10.38Zm3.9-7.19a6.75,6.75,0,0,0-2.83,1c-.1.31.73.31,1.33,0C18.09,3.48,18.52,3.19,18.11,3.19ZM20,3.6c-.58,0-1.13.22-1.13.45s1,.22,1.28-.12S20.32,3.6,20,3.6ZM19.4,5.19A3.35,3.35,0,0,1,17,5.73c-1.84,0-2.15.12-2.24.84,0,.27,0,.53.16.56.61.15,7.13-1.5,7.13-1.81a1.36,1.36,0,0,0-.4-.54C21.12,4.34,20.53,4.44,19.4,5.19Zm3.22-4.14c-1,0-1.15.07-1.8,1-.44.63-.44.7-.1.68a9.19,9.19,0,0,0,2.84-1C24,1.35,23.56,1.05,22.62,1.05Zm-.06,3c-.5.18-.55.25-.29.49a1.89,1.89,0,0,0,2,.29c.88-.22,1-.46.39-.8A2.63,2.63,0,0,0,22.56,4.05Zm3-2.3c-.17-.17-.77.1-.77.35s.14.23.31.23C25.45,2.33,25.78,1.93,25.59,1.75Zm.85,4.94c1.26.52,3.53.32,3.65-.34.05-.24-.31-.38-1.59-.6C26.07,5.36,24.72,6,26.44,6.69ZM30,3.62c-.26-.37-1.3-.14-1.3.31a.56.56,0,0,1-.32.46c-.19.05-.32.2-.32.3s.53.23,1.43-.05C30.15,4.44,30.29,4.17,30,3.62Zm-4.28.22c0,.24,2.06.24,2.22,0s0-.24-.16-.29C27.31,3.4,25.67,3.64,25.67,3.84Zm1.64-1.28c-.79,0-1.19.06-1.11.19s.19.21.27.19l1.11-.19,1-.15ZM30.48.66c-2.95.12-3.5.37-1.72.76,2.53.58,5,.51,5-.15S32.78.57,30.48.66Zm6.37,1.09c-.33-.45-.36-.45-1.43-.14-.6.19-1.33.41-1.6.53l-.52.19.64.64c.73.74.66.74,2.11.14C37.24,2.62,37.34,2.46,36.85,1.75ZM37,3.4A4.3,4.3,0,0,0,35,4.27h0c0,.22,1.78.25,2,.05S37.19,3.4,37,3.4Zm3.1-2C40,1.27,39.88,1,39.79.78,39.61.23,39,.33,38.38,1s-.73,1-.24,1.18.5.17,1.33-.19C39.91,1.81,40.14,1.59,40.05,1.42Zm6.3,0A7.81,7.81,0,0,0,43.82,1,27.2,27.2,0,0,1,40.89.72L40.25.59l.6.54c.56.53.7.57,3.19.57C46.1,1.7,46.56,1.63,46.35,1.42Zm-1.58,1c-2.88,0-4.5.13-4.46.27a5.24,5.24,0,0,0,2,.34,19.25,19.25,0,0,1,2.4.26,15.85,15.85,0,0,0,1.92.22c1.33.08,1.55,0,2.08-.41a2.43,2.43,0,0,0,.58-.61A38.31,38.31,0,0,0,44.77,2.38Zm6.86-.45c-.23,0-.44.17-.44.29s.53.4.73.19S52.06,1.87,51.63,1.93Zm.72,1A13.76,13.76,0,0,0,49.3,4.06c0,.09.22.31.48.5a1.62,1.62,0,0,0,2-.1c.48-.29.7-.58.7-1S52.43,3,52.35,3Zm1.36,5c1,.17,1.55.19,1.55.05,0-.29-1.38-.78-1.84-.66C52.67,7.5,52.81,7.79,53.71,7.93Zm-.36-3.27c-.47.29,0,.65.57.43a1.59,1.59,0,0,0,.59-.41C54.68,4.4,53.8,4.39,53.35,4.66Zm3-1.43A4.76,4.76,0,0,1,55,2.34c-.48-.58-.66-.56-1.31.14-1,1-.77,1.29,1.11,1.38a9.08,9.08,0,0,1,2,.25A.41.41,0,0,0,57.29,4C57.46,3.74,57.51,3.79,56.34,3.23Zm3.28,1.51c-1-.92-1-.93-1.46-.56-.61.53-.77.75-.75,1.13.07.71-.07.8-1.19,1-.65.07-1.16.22-1.16.32s.51.35,1.14.52c1.43.42,1.38.42,2.13-.19a3.61,3.61,0,0,1,1.33-.63,1.53,1.53,0,0,0,.85-.38C60.58,5.78,60.19,5.26,59.62,4.74Zm-.9,3.5h0a4,4,0,0,0,1.76.24H62L60.8,8.07C59,7.45,58,7.54,58.72,8.24Zm8.55-.7c-.73-.46-1-.78-1-1,.15-.4-2.08-1.6-3.68-1.79A2.87,2.87,0,0,1,61,4.22c-.79-.79-1.18-.28-.43.54a3.13,3.13,0,0,1,.56,1.35c.12.75.09.9-.2.9-.53,0-.39.41.19.55.73.18,1,0,.83-.75s-.07-.63.78-.87c1-.28,3.51.92,3.51,1.45a1.47,1.47,0,0,0,.38.73,2.2,2.2,0,0,0,1,.58C68.75,8.92,68.55,8.31,67.27,7.54ZM64.9,8.63a22,22,0,0,0-2-1.19c-.22,0-.63,1-.48,1.15s2,1.08,2.37.67S65.11,8.82,64.9,8.63ZM65.81,8a.85.85,0,0,0-.33-.44c-.25-.23-2-1.17-2.48-1s-.5.3-.43.37A12,12,0,0,0,65.81,8ZM67,9.55c.07.17.22.33.32.33s.19-.16.19-.33a.31.31,0,0,0-.31-.32C67,9.23,66.93,9.35,67,9.55Zm1.5,1.76a2,2,0,0,0,.73.47c.32,0,.48-.61.24-.9a1.83,1.83,0,0,1-.29-.8c-.05-.36-.22-.56-.53-.6s-.48.07-.56.64A1,1,0,0,0,68.5,11.31Zm-6.32-1.1a11.42,11.42,0,0,0,3.42,1.42,17.07,17.07,0,0,1,1.86.26c.7.22.58-.16-.22-.75a14,14,0,0,0-6-1.92c-1.48-.15-1.7.21-.27.46A3.23,3.23,0,0,1,62.18,10.21Zm-2.3-.13c-.8-.12-1.09-.26-1.26-.65-.29-.63-.51-.68-3.51-.77-1.79-.07-2.4,0-2.4.17,0,.53,1.65,1,3.73,1,1.79,0,2,0,2.23.42s.44.41,1.55.41C61.75,10.62,61.55,10.3,59.88,10.08ZM54.51,16.5a14.52,14.52,0,0,1,2.13-.73,5,5,0,0,0,3.77-2.68c.87-1.68.75-2-.63-2a2.66,2.66,0,0,1-1.26-.23c-.36-.38-.7,0-.7.68s-.39,1.12-2.88,3.13c-1.64,1.33-2,1.71-2,2.11S53.27,17.06,54.51,16.5Zm-2.42.1a12.45,12.45,0,0,1,2.13-2.28c2.27-1.82,3-2.69,2.92-3.39s-.16-.63-1.21-.79a5.07,5.07,0,0,0-2.52.28,9.24,9.24,0,0,1-2.07.42,1.56,1.56,0,0,0-.93.26,2.35,2.35,0,0,0,.07,2.23c.46,1.12.42,1.31-.75,3a7.61,7.61,0,0,0-1.06,2h0C48.65,19.39,51,18.19,52.09,16.6Zm-4.2,2a13.53,13.53,0,0,1,1.63-3.3c.63-1,.63-1,.33-1.76a4.71,4.71,0,0,1-.33-1.6c0-.8-.07-.87-1.43-1.7l-1.43-.89L46,9.79c-.7.44-.7.44-.42,2.82a7.47,7.47,0,0,1-.8,4.31c-.4.5-.41.86,0,2.59.11.6.66.62,2,.11C47.48,19.33,47.73,19.1,47.89,18.61ZM39.66,31.27c.41,0,.49,0,3.61-1.48s3.48-2,3.76-7.65l0-.74-1,.06c-1.26.1-1.7.35-1.7,1,0,.95-.56,1.69-1.75,2.28a6.2,6.2,0,0,1-1.38.58c-.45,0-1.33,1.28-1.66,2.39A9.85,9.85,0,0,0,39.3,30C39.3,31.1,39.35,31.28,39.66,31.27Zm.12-7.22A6.67,6.67,0,0,0,41,23.59c.87-.4,1.12-.67,1.82-2a3.84,3.84,0,0,0,.67-3.17c-.14-1.45-.22-1.69-.72-2A14.56,14.56,0,0,1,41.11,15a16.73,16.73,0,0,0-1.74-1.55,2.81,2.81,0,0,1-.92-1.09c-.34-.8-.77-.82-1.35-.1a1,1,0,0,1-1.19.46c-.9-.1-2.57.46-2.57.87a8.13,8.13,0,0,0,1,1.69l1.08,1.39v3.53l-.82.63a2.61,2.61,0,0,0-1.06,1.89c-.23,1.11-.22,1.26.11,1.5a2.58,2.58,0,0,0,1.27.27,4.12,4.12,0,0,1,1.5.29c1.2.61,1.45.6,2.29-.07A3.32,3.32,0,0,1,39.78,24.05ZM36.85,38.73a28.22,28.22,0,0,0,.29-3.44,24.35,24.35,0,0,1,.42-3.85,10.37,10.37,0,0,0,.24-2.59c0-2.35-.07-2.45-2-2.66a6.9,6.9,0,0,1-2.58-.83c-1.33-.7-2.21-.86-2.38-.41s.9,3.34,1.8,4.84a15.41,15.41,0,0,1,2.24,5.33,14.32,14.32,0,0,0,.8,2.69C36.13,38.71,36.61,39.1,36.85,38.73Z"/></g></g></svg>