<svg xmlns="http://www.w3.org/2000/svg" viewBox="0 0 16.86 17.14"><defs><style>.cls-1{fill:#9b9839;}</style></defs><title>brote</title><g id="Layer_2" data-name="Layer 2"><g id="Layer_1-2" data-name="Layer 1"><path class="cls-1" d="M7.71,17.14a12.89,12.89,0,0,0-.28-5.39c-.8-2.83.28-5.26-.17-6.22a4.66,4.66,0,0,0-2-2.38l.17-.34A14.28,14.28,0,0,1,7.6,4.51,6.61,6.61,0,0,1,11.27,1v.34s-3,1.24-3.22,4.3a22.9,22.9,0,0,0,.56,7.29,19.85,19.85,0,0,1,.56,4.26Z"/><path class="cls-1" d="M5.83,3.11l-.15,0A.15.15,0,0,1,5.59,3l-.08-.1a1.07,1.07,0,0,0-.22-.25.53.53,0,0,0-.1-.06l-.08-.06L5,2.46l-.29-.14,0,0-.39-.13a4,4,0,0,0-.5-.11,1.27,1.27,0,0,0-.28,0,1.08,1.08,0,0,0-.18,0l-.23,0H3a1.75,1.75,0,0,0-.32,0l-.18.05-.17,0-.21.08L2,2.31l-.28.11a1.58,1.58,0,0,0-.26.13l-.15.1h0a1.25,1.25,0,0,0-.24.16L.87,3l0,0L.75,3s0,0,0,0a.41.41,0,0,0-.11.07l-.1.1-.11.1-.11.11,0,0-.09.08a.39.39,0,0,1-.08.1.08.08,0,0,0,0,0l0,0v0H0a.67.67,0,0,1,.18.07l.18.09.24.12h0a1.87,1.87,0,0,0,.4.13l.37.06h.41a.41.41,0,0,0,.11,0H2.6a3.41,3.41,0,0,1,.64,0H3.6l.29,0,.17,0h0a.78.78,0,0,0,.27-.09L4.59,4a1.4,1.4,0,0,1,.17-.09l.13-.09.22-.19.1-.07a1.09,1.09,0,0,0,.17-.13l.16-.12,0,0h.09a.31.31,0,0,1,.13,0"/><path class="cls-1" d="M11,1.07l.15,0a.17.17,0,0,0,.1-.07.86.86,0,0,0,.07-.1,1.09,1.09,0,0,1,.23-.25l.09-.06.09-.05a.38.38,0,0,1,.13-.09l.29-.13.05,0,.38-.13a4,4,0,0,1,.5-.11,2.66,2.66,0,0,1,.28,0h.18l.23,0h.07a1.13,1.13,0,0,1,.32.05l.18,0,.17,0,.21.08.08,0,.28.11.26.13.15.1h0c.08,0,.15.1.23.15L16,.93l0,0a.24.24,0,0,1,.08.06l.05,0a.39.39,0,0,1,.1.08l.11.09.11.1.11.12h0s.07.05.09.09l.09.09,0,0,0,0s0,0,0,0h0a.46.46,0,0,0-.19.08l-.18.09L16.22,2l0,0a2.67,2.67,0,0,1-.4.13l-.37,0H14.9c-.12,0-.24,0-.36,0h-.28a4.56,4.56,0,0,0-.64,0h-.21a.75.75,0,0,1-.15,0l-.29,0a.45.45,0,0,1-.16,0h0a1.48,1.48,0,0,1-.27-.1L12.27,2l-.16-.09L12,1.8l-.23-.18-.1-.08a.66.66,0,0,1-.17-.12l-.15-.13-.06,0h0l0,0a.23.23,0,0,0-.14,0"/></g></g></svg>