<svg xmlns="http://www.w3.org/2000/svg" viewBox="0 0 22.67 22.67"><defs><style>.cls-1{fill:#9b9838;}.cls-2{fill:#fff;}</style></defs><title>food_hoja</title><g id="Layer_2" data-name="Layer 2"><g id="Layer_1-2" data-name="Layer 1"><path id="path13404" class="cls-1" d="M22.67,11.33A11.34,11.34,0,1,1,11.33,0,11.34,11.34,0,0,1,22.67,11.33Z"/><path class="cls-2" d="M12.39,13.27a1.39,1.39,0,0,1,.17.19l.15.13.19.17.34.31v0a2.79,2.79,0,0,1,1.74.32c.94.37,1.46.14,1.48-.79s.25-.64.57-1.7-.36-1.45-.36-1.45a2.67,2.67,0,0,1-.59,1.66,1.51,1.51,0,0,1-1.88.66c-.22-.16,0-.81.86-1a1.55,1.55,0,0,0,1.35-1.31,2.6,2.6,0,0,0,0-.4C16.36,9,15,8.33,15,8.33c.26-.48-.35-.88-1-1.06a2.48,2.48,0,0,1-.94-.46c.33.93-.57,2.62-1,2.35s.43-1.86.75-2.29a.16.16,0,0,0,0-.07c.18-.38-.6-.64-1.18-.65S11.05,6,11,5.92h0c.6,1.23-.17,3.29-.71,2.94s.08-1.56.37-2.41a.85.85,0,0,0,.06-.5c-.09-.4-.6-.47-1-.49a2.78,2.78,0,0,1-1-.23c.92,1.07.78,2.61.28,2.52s-.51-1.44-.4-2.08a.72.72,0,0,0,0-.4C8.42,5,8,5,7.36,5.06a1.94,1.94,0,0,1-1.23-.15S6.21,5.08,5.8,6c-.31.73-.46,1.08-.3,1.28a.43.43,0,0,0,.21.14c.44.16,2.06.44,2,.88s-.75.51-1.37-.07a10,10,0,0,1-.88-.87s-.67,1.19-.28,1.76l.18.21c.33.28.69.09,1.42.06a1.87,1.87,0,0,1,.55,0c.47.09.66.34.54.52s-.75.34-1.61.07a2.7,2.7,0,0,1-1.07-.5,2.12,2.12,0,0,1,0,.62c0,.45.11,1.56.57,1.57a15,15,0,0,0,2.35-.43c.51-.14.73.3.49.62A3.94,3.94,0,0,1,5.76,12a2.14,2.14,0,0,0,.9,2A1.61,1.61,0,0,0,8,13.8c.84-.5,1.12-.62,1.38-.2s-1.25,1.25-2.47.9a2.47,2.47,0,0,0,1.31,2,.75.75,0,0,0,.25-.06,1.62,1.62,0,0,0,.76-.79c.48-.9,1.1-1.34,1.25-.83a.49.49,0,0,1,0,.33,2.72,2.72,0,0,1-2,1.5h0a1.93,1.93,0,0,0,2.37,1c.79-.2,1.62,0,2.24-.64s-.51-2.4-.2-2.77l-.3-.31h0l-.38-.4L12,13.35h0l-.21-.24c-.22-.24-.43-.49-.64-.73l-.23-.28c-.32-.39-.64-.8-1-1.21h0l-.26-.35c-.12-.16-.25-.32-.37-.49L8.8,9.28,8.6,9l-.35-.54A13.24,13.24,0,0,1,6.91,5.89,24.23,24.23,0,0,0,9.09,9.35l.21.29q.43.6.93,1.2l.29.36h0q.35.42.72.84l.21.24"/></g></g></svg>