<svg xmlns="http://www.w3.org/2000/svg" viewBox="0 0 22.67 22.67"><defs><style>.cls-1{fill:#9b9838;}.cls-2{fill:#fff;}</style></defs><title>food_fruta</title><g id="Layer_2" data-name="Layer 2"><g id="Layer_1-2" data-name="Layer 1"><path id="path13404" class="cls-1" d="M22.67,11.33A11.34,11.34,0,1,1,11.33,0,11.34,11.34,0,0,1,22.67,11.33Z"/><path class="cls-2" d="M10.51,7.72c-.42.62-1.26.26-2.32.72a5.23,5.23,0,0,0-2.52,5.45,5.43,5.43,0,0,0,10.57.53,5.21,5.21,0,0,0-1.59-5.2,12.42,12.42,0,0,0-3.26-1.41h0a8.55,8.55,0,0,0,3.08-.62C15,7,15.88,6.54,16,5.76a1.29,1.29,0,0,0-.37-1.12c-.78-.71-2.55-.15-3.52.7A5.5,5.5,0,0,0,11,6.66c-.36.66-.37,1-.53,1.06C10,7.76,9.2,4.38,9.45,4.29S11.24,6.66,10.51,7.72Z"/></g></g></svg>