<svg xmlns="http://www.w3.org/2000/svg" viewBox="0 0 22.67 22.67"><defs><style>.cls-1{fill:#9b9838;}.cls-2{fill:#fff;}</style></defs><title>food_flor</title><g id="Layer_2" data-name="Layer 2"><g id="Layer_1-2" data-name="Layer 1"><path id="path13404" class="cls-1" d="M22.67,11.33A11.34,11.34,0,1,1,11.33,0,11.34,11.34,0,0,1,22.67,11.33Z"/><path class="cls-2" d="M19.94,10.61c-.17-.32-.92-.16-1-.37s.59-.32.63-.63c.06-.49-1.42-1.34-2.9-1.34a4.3,4.3,0,0,0-2.17.54c-.45.25-.72.53-.8.46s1-1.22,1.2-2.7C15.11,4.77,13.62,3,13,3.1c-.35.09-.44.87-.64.83s0-.64-.33-.86c-.62-.48-2.94,1-3,2.23,0,.17,0,.44,0,1.07a3.26,3.26,0,0,0,0,.7c0,.09,0,.07.06.47s0,.35.07.47c0,.27.09.34.07.36s-.5-.51-.94-.9a4.36,4.36,0,0,0-2.8-1c-.86,0-1.92.24-2,.64s.58.6.5.76-.84-.22-1.13,0c-.47.39,0,2.52,1.5,3.5s3.37.59,3.37.7-.51,0-1.07.2a4.11,4.11,0,0,0-2.07,1.47c-1,1.33-1.12,3.26-.6,3.54.32.16.87-.28,1-.14s-.43.49-.37.81c.1.47,1.5.8,2.71.46A4.82,4.82,0,0,0,9.4,17a3.54,3.54,0,0,0,.9-1.24c.15-.41.15-.73.23-.73s.14.95.57,2A4,4,0,0,0,12.43,19a5.31,5.31,0,0,0,2.67.74.53.53,0,0,0,.3-.1s.08-.09,0-.37-.16-.46-.12-.5.56.45.92.37c.51-.12.79-1.49.6-2.61a4.12,4.12,0,0,0-1.2-2.3c-.4-.36-.82-.57-.77-.7s.5,0,1.2,0A3.75,3.75,0,0,0,18.28,13a4.56,4.56,0,0,0,.9-.94C19.66,11.46,20.11,10.91,19.94,10.61Zm-9.54,2a.54.54,0,1,1,0-1.08.54.54,0,1,1,0,1.08Zm0-1.79a.54.54,0,1,1,0-1.08.54.54,0,1,1,0,1.08Zm2,1.79A.54.54,0,1,1,13,12.1.54.54,0,0,1,12.44,12.64Zm0-1.85a.54.54,0,1,1,.55-.54A.54.54,0,0,1,12.44,10.79Z"/></g></g></svg>