<?xml version="1.0" encoding="utf-8"?>
<!-- Generator: Adobe Illustrator 22.0.1, SVG Export Plug-In . SVG Version: 6.00 Build 0)  -->
<svg version="1.1" id="Capa_1" xmlns="http://www.w3.org/2000/svg" xmlns:xlink="http://www.w3.org/1999/xlink" x="0px" y="0px"
	 viewBox="0 0 1000 350" style="enable-background:new 0 0 1000 350;" xml:space="preserve">
<style type="text/css">
	.st0{fill:none;stroke:#BBBBCC;stroke-miterlimit:10;}
	.st1{fill:#1E1E1C;}
	.st2{font-family:"Roboto", sans-serif}
	.st3{font-size:18px;}
	.st4{fill:#CCC2B8;}
	.st5{fill:#FF8000;}
	.st6{fill:#807973;}
	.st7{font-size:16px;}
	#alturas{
	opacity:0; transition:all ease 0.25s
	}
	svg:hover #alturas{opacity:1; transition:all ease 0.25s}
</style>
<line class="st0" x1="0" y1="225" x2="1000" y2="225"/>
<line class="st0" x1="0" y1="150" x2="1000" y2="150"/>
<line class="st0" x1="0" y1="75" x2="1000" y2="75"/>
<line class="st0" x1="1" y1="1" x2="1000" y2="1"/>
<line class="st0" x1="0" y1="300" x2="1000" y2="300"/>
	<text transform="matrix(0.9839 0 0 1 452.2568 322.3755)" class="st1 st2 st3">Zorzal</text>

	<text transform="matrix(0.9839 0 0 1 16.6187 322.3755)" class="st1 st2 st3">Chercán</text>

	<text transform="matrix(0.9839 0 0 1 159.7725 322.3755)" class="st1 st2 st3">Gorrión</text>

	<text transform="matrix(0.9839 0 0 1 286.8936 322.3755)" class="st1 st2 st3">Chucao</text>

	<text transform="matrix(0.9839 0 0 1 581.124 322.3755)" class="st1 st2 st3">Pingüino de Humboldt</text>

	<text transform="matrix(0.9839 0 0 1 824.1514 322.3755)" class="st1 st2 st3">Flamenco chileno</text>
<path id="el_flamenco" class="st4" d="M868.6,247.5c1.5,0.8,1.1,2.2,1.1,2.2s-0.6,1-1.1,2.4c-0.6,1.4,0.2,1.8,0.9,1s0.7-0.8,1.5-0.4
	c0.7,0.4,0,13.9,0.2,15.9s0.4,4.8,0.9,6.2c0.6,1.4,0.6,0.8,1.1,1.2c0.5,0.4,0,1,0.7,2c0.8,1-0.4,2.2,1.7,2.8
	c2.1,0.6,0.4-1.4,0.9-2.6c0.6-1.2,0.4-19.9,0.6-22.8c0.2-2.8-3.5-9.1-4.7-10.1c-1.1-1-20.2-22.9-20.2-22.9l-5.6-6.4
	c0,0-12.3-14.3-12.7-15.5s-0.4-1.6-0.2-2.4c0.2-0.8-0.2-4.4,0.9-4.4c0,0,2.4-1.8,3.9-3.2s3.4-2,4.3-2.8c0.9-0.8,4.7-2.8,5.2-3.4
	c0.6-0.6,2.2-1.2,2.2-1.2l4.5-2.8c0.6-1.2,17.2-9.3,18.7-10.1s1.5-0.4,3,0.2c1.5,0.6,15.7,4,16.4,4.6c0.8,0.6,0.8,4.6,0.9,7
	c0.2,2.4-1.1,17.5-1.7,19.3c-0.6,1.8-1.3,16.7-1.7,18.9s-2.4,5.4-2.4,5.4s-0.6,4.2-0.4,4.8c0.2,0.6,2.4,4,2.4,4s4.3,55.4,4.1,57
	s-1.5,3.2-1.5,3.2s-0.6,1.8-0.2,2.4c0.4,0.6,1.1,0,1.7-0.4c0.6-0.4,1.3,0.6,1.3,0.6l0.4,1.8c0,0,1.9,1,3,1.2s5,0,6.4,0
	c1.3,0,12.1-0.2,12.1-0.2s0.7-0.2,2.4-0.2s6-0.2,6-0.2s-0.6-0.8-1.9-1.8c-1.3-1-4.7-0.4-6.7-0.6s-14.7-0.6-14.7-0.6
	c-4.3-0.4-4.8-5-4.8-5s-4.1-54.4-4.3-56.8c-0.2-2.4,1.1-4,2.1-5.6c0.9-1.6-1.3-5.2-1.3-5.2c-1.5-2.4,3.7-43.5,4.7-45.7
	c0.9-2.2,1.9-3.6,2.4-4.2c0.6-0.6,0.9-0.2,1.5-0.2s3.2-0.2,4.7-0.4s6.9-1,8-1.6s4.7-1.6,6.7-2.2c2.1-0.6,12.1-5,13.2-5.6
	c1.1-0.6,1.3-1.2,3.5-1.4c2.3-0.2,9.8-4.8,9.8-4.8l2.7-2.1c19.4-23.1-3.2-66.6-3.2-66.6c-9-16.6-6.8-40.1-6.8-40.1
	c0.4-2.8,1.9-1.6,1.9-1.6c1.9,1.7,10.8-0.7,12.3-0.3s5.6,2.4,6.7,3.4c1.1,1,0.7,2.4,1.7,4.8c0.9,2.4,3.4,9.1,3.7,9.7
	c0.4,0.6,1.3-0.4,1.6-1.7c0.4-1.8,0.8-18.3,0.4-20.7c-0.4-2.4-9.9-8.3-10.5-9.1s-0.4-1.4-1.1-2.4c-0.7-1-5.4-3.4-8.6-5.4
	c-3.2-2-8,0.2-8,0.2c-8.6,1.4-9.3,13.3-9.3,13.3c-3.4,14.1,0,39.7,9.5,61.2c0.1,0.2,0.2,0.4,0.3,0.7c9.2,21.1,5.1,29.3,5.1,29.3
	c-4.3,10.1-6.9,5.8-9.7,5s-5.8-8.9-8.8-16.3s-11.7-7-11.7-7s-22.9-5.8-51.5,10.6l-25,17.1l-15.5,14.8l-5.5,6.6v2.6l-3.3,3.3v0.8
	c1.5,0,4.4-0.1,5.7-0.8c1.5-0.8,4.3-0.6,4.3-0.6l-0.4,4c0,0,0.7-0.2,2.2-0.8s2.8-3.4,3.4-3.6c0.6-0.2,3-0.8,2.6-0.2
	s-0.9,3.2,0.2,2.8c1.1-0.4,3.2-2.6,3.7-2.8c0.6-0.2,2.6,0.4,5.4,0.8c2.8,0.4,9.3,1.4,9.3,1.4l3.9,0.8h8.2c0,0-1.5,2-2.8,3.2
	s-6.4,3.8-6.4,3.8l-4.1,2c0,0-19.6,12.5-20.2,12.7c-0.6,0.2-2.4,1.2-3,2s-0.6,2.8-0.9,4.4c-0.4,1.6,0,3.2,1.9,4.6
	C830.9,203.2,867.1,246.7,868.6,247.5"/>
<path id="el_pinguino" class="st4" d="M675.1,222c0,0,2.6-1.9,3.2-5.4c0,0,0.4-0.8,0.7-0.9c0.3-0.1,2.2-0.1,2.7-0.2
	c0.5-0.1,2.9-0.3,3.6-0.4c0.7-0.1,1.6-0.2,1.8-0.4c0.2-0.2,0.2-0.9,0.2-0.9h0.2c0,0-0.1-2.8-3-3.3c0,0-3-0.2-3.3-0.2
	c-0.3-0.1-1.4-0.2-1.7-0.2c-0.4-0.1-0.6-0.1-0.7-0.2s-1.5-2.5-4.9-3c0,0-2.7-0.2-3.1-0.2c-0.4,0.1-2.7,0.1-3.2,0.2
	c-0.4,0.1-2.5,0.6-5.1,3.8c0,0-2.5,2.6-2.9,5.1c-0.4,2.5-0.4,5.6-0.2,6.2c0.1,0.7,0.2,3,0,3.6c-0.2,0.6-0.1,1.4-0.4,1.9
	c-0.3,0.4-1.3,2-1.5,2.6c-0.2,0.6-1.2,2.6-1.4,3s-1.5,2.9-2.4,3.8c-0.9,0.9-4.7,5.5-5.3,6c-0.6,0.5-5.7,7-7.3,15.7
	c0,0-2.1,8.4-2.2,8.9c-0.1,0.5-1.8,9.3-2,10.1c-0.2,0.7-0.3,3.6-0.5,4.1c-0.2,0.4-0.1,0.3-0.4,0.7c-0.3,0.4-1.4,2.1-2.5,3.8
	c-1.1,1.7-1.4,2.3-1.6,2.7c-0.3,0.3-0.2,0.6-0.4,0.7c-0.2,0.2-1.4,1.6-1.7,1.9c-0.4,0.3-0.9,0.4-0.7,0.6c0.2,0.2,2.3,0.6,2.9,0.6
	c0.5,0.1,1.9,0.4,2.5,0.5c0.5,0.1,1,0.2,1.4,0.1c0.4-0.2,2.9,0.7,5.3,0.7c0,0,0.2,0.2,0.4,0.6c0.1,0.4,1.6,3.3,2.1,3.8
	c0.4,0.5,1.4,1.1,1.7,1.2c0.3,0.1,1.5,0.3,1.5,0.3s4.5,0.2,5.5,0.4c1.1,0.2,3.4,0.6,3.8,0.6c0.4,0.1,1.9,0.3,2.3,0.4
	c0.4,0.1,1,0.1,1.1,0.1s0.4-0.2,0.4-0.2s0.1-0.7-0.4-1.2c-0.6-0.4,0.2-0.7-1.5-1.3c-1.7-0.6-2.3-0.5-3.9-1c-1.5-0.4-4.6-1.1-5.4-1.1
	c-0.7,0-1.2,0.1-1.7-0.1c-0.5-0.2-0.6-0.2-0.7-0.4c-0.1-0.2-1.7-3.3-1.8-3.9c-0.1-0.7,0-0.2,0.5-0.6c0.5-0.3,1.3-1.1,1.5-1.3
	c0.2-0.2,0.3-0.7,1.1-0.6c0.7,0.1,0.9,0.1,1.5,0.2c0.6,0,4.9,0.7,8.4-0.7c0,0,0.2,0.1,0.2,0.4c-0.1,0.4,0.2,0.8,0.4,1.3
	c0.1,0.4,2.1,3.2,2.4,3.8c0.3,0.6,1.3,2.5,1.5,2.9s0.7,1.5,1.2,1.7c0.5,0.2,1.7,0.2,2.1,0.4c0.4,0.1,1.9,0.5,2.2,0.5
	c0.4,0,0.9,0.1,1.1,0.1c0.2,0.1,0.6-0.2,0.7-0.2c0.2,0,1.2,0.1,1.9,0.2c0.7,0.2,1.6,0.4,2.3,0.5s2.5,0.3,2.8,0.4
	c0.2,0.1,0.9,0.3,0.5-0.1c-0.3-0.4-0.2-1.3-1.4-2c-1.2-0.7-2.7-1-3.9-1.3s-4.2-0.9-4.9-1.1c-0.8-0.1-1.3,0.3-1.5-0.4
	c-0.2-0.7-1.9-3.8-1.9-4c-0.1-0.2-0.9-1.8-0.6-2.4s0.6-1.2,0.7-1.3c0.1-0.2,2.2-4.9,3-7.5c0,0,6.9-7.9,9.3-18.9l0.6-2
	c0,0,4.2-9.9,3.3-16c0,0-1.1-6.6-1.1-7s0.1-1.1,0.1-1.5c0.1-0.4,1.7-6.7-1.4-9.6c0,0-1.8-2.8-2.3-3L675.1,222z"/>
<path id="el_zorzal" class="st4" d="M488.5,287.7c3.5-1.1,6.9-2,10-3.3c9.8-3.9,15.5-10.9,17.2-20.2c0.5-2.9-0.1-6.2,0.5-9.1
	c0.8-3.5,2.2-6.9,3.4-10.2c0.2-0.4,1.1-0.8,1.7-1c1.5-0.5,3.2-1.1,5-1.6c-2.1-1.3-4-1.1-5.9-1.2c-1,0-2-0.3-2.8-0.8
	c-1.6-1-3.3-1.4-5.3-1.2c-2.6,0.4-5.3,0.7-7.4,2.5c-1.1,1.1-2.1,2.3-2.9,3.5c-0.7,1.1-1.2,2.2-1.6,3.4c-1.9,3.8-5.3,6-9.1,8.2
	c-3,1.7-5.9,3.8-8.6,6c-6.7,5.4-13.2,11.2-20.1,16.4c-4.1,3-9,5.2-13.7,7.6c-4.1,2.2-8.4,4.4-12.5,6.5c-0.4,0.2-0.9,0.3-1.1,0.7
	c-0.2,0.4-0.2,1-0.3,1.5c0.5,0,1.1,0.2,1.5,0.1c2.9-1.2,5.7-2.6,8.6-3.7c2.7-1,5.4-2.1,8.4-2.5c6-1.1,12.1-2.1,18.2-2.5
	c3.8-0.3,7.8,0.2,11.6,0.5c0.4,0,1,0.5,1.2,0.9c1.3,3,2.5,6.2,3.7,9.5c-2.1,0.7-4,1-6,0.5c-2-0.4-3.3,0.1-4.2,1.9
	c10.7,0,21.3,0,31.9,0c-0.8-0.7-1.3-1.3-2.1-1.9c-0.3-0.3-0.8-0.7-1.1-0.7c-2.1-0.1-4-0.9-6.1,0.2c-2.1,1.1-5,0.4-6.3-1.3
	c-1.9-2.5-3.7-5.1-5.4-7.7C488.6,288.4,488.6,287.9,488.5,287.7z M491.9,297.8c-0.2,0.1-0.5,0.2-0.8,0.3c-0.8-1.6-1.6-3.4-2.4-5
	c0.1,0,0.2-0.1,0.3-0.1C490.1,294.6,491.1,296.2,491.9,297.8z"/>
<path id="el_chucao" class="st5" d="M311,285c0,0-0.6,1.2-0.7,1.3c-0.1,0.1-0.5,0.8-0.2,1.7c0.4,0.9,0.8,1.4,0.8,1.4l2.6,5.2
	c0,0,1.6,2.7,1.2,2.7s0,0.2-0.5-0.1c-0.5-0.2-0.5-0.2-0.7-0.4c-0.2-0.2-0.2-0.5-0.4-0.6c-0.1-0.1,0-0.8-0.6-0.8c0,0-0.3,0.1-0.3,0.5
	c0,0,0.2-0.3,0.4-0.2c0,0,0.3,0.1,0.2,0.5c0,0-0.3,0.2-0.1,0.6c0.3,0.3,0.7,0.5,0.7,0.5s0.5,0.4,0.6,0.4c0.1,0.1,0.5,0.1,0.6,0.1
	s0.4,0,0.4,0.2c0,0.1,0,1,0.2,1.4c0.2,0.3,0.5,0.9,0.5,0.9s0.1,0.4,0.2,0.6s0.3,0.2,0.3,0.3c0,0.1,0,0.3,0,0.5
	c0.1,0.2,0.1,0.3,0.1,0.3s0.1-0.6,0.1-0.9c-0.1-0.3,0-0.7-0.1-0.9c-0.2-0.2-0.6-0.4-0.6-0.8s0.1-0.6,0.1-0.8c0-0.2,0.1-0.4,0.2-0.3
	s0.8,1.1,0.8,1.1s0.7,0.9,1.2,1.1s2.2,0.5,2.4,0.6c0.1,0.1,0.6,0.3,0.8,0v-0.2c0,0,0-0.1,0.2,0s0.5,0.4,0.5,0.5s0.1-0.6-0.5-0.8
	l-0.2-0.1v-0.1c0,0-0.3,0-0.5,0c-0.1,0-0.9-0.1-1.1-0.1s-1.2-0.3-1.6-0.5c-0.5-0.2-0.8-1.2-1-1.3c-0.1-0.2,0.2-0.1,0.3,0
	c0.1,0.1,0.8,0.3,1.2,0.4c0.4,0.1,1.4,0.2,1.8,0.3c0.4,0,0.4,0.1,0.7,0c0.2,0,0.2-0.2,0.2-0.2h0.1c0.1,0,0.1-0.3,0.1-0.3
	c0.3-0.1,0.5,0.4,0.5,0.4c0-0.7-0.7-0.6-0.7-0.6h-0.3c-0.6,0.1-1.1,0.1-1.1,0.1c-1,0-1.6-0.2-2.1-0.4c-0.4-0.2-1-0.4-1.4-0.6
	c-0.3-0.2-0.2-0.2-0.4-0.6c-0.2-0.4-0.5-0.9-0.5-0.9c-1.7-2.8-3.4-7.1-3.6-7.5c-0.3-0.4,0-0.7,0-1.1s0.5-1.6,0.6-1.9
	c0.1-0.2,0.3-0.2,0.3-0.2s0.2,0.1,0.4,0.2c0.1,0.1,0.7,0.3,0.9,0.4c0.3,0.1,0.9,0.1,1.4,0.2s1.9,0.6,2.1,0.7c0.2,0,0.1,0.2,0.1,0.2
	s-1.2,1.8-0.8,2.7c0,0,0.4,0.5,0.6,0.7s1.2,1,1.2,1l5.5,5.4l0.1,0.1c0,0-1.2,0-1.6-0.2s-0.2,0.2-0.8-0.4c-0.5-0.6-0.5-0.2-0.5-0.6
	c-0.1-0.4-0.3-0.8-0.9-0.6c0,0-0.4,0.1-0.8,0.8v0.2c0,0,0.7-0.7,1-0.5c0,0,0.3,0.1,0.2,0.4c0,0-0.4,0.1-0.3,0.5
	c0,0.3,0.2,0.3,0.5,0.4s0.4,0,0.7,0.2c0.3,0.2,0.5,0.2,0.7,0.3c0.2,0.1,1.9,0.1,2.2,0.3c0.3,0.2,0.4,0.1,0.5,0.4
	c0.2,0.3,0.1,0.8,0.4,1s0.9,0.4,1,0.5c0.2,0.1,0.5,0.2,0.6,0c0.1-0.1,0.1-0.3,0.1-0.3c0.4,0.2,0.3,0.9,0.3,0.9
	c0.1,0,0.2-0.2,0.2-0.2c0.2-1.1-0.6-1.1-1-1.2c-0.5,0-0.7-0.4-0.9-0.6c-0.1-0.2,0.4,0,0.7,0c0.3,0,0.5,0.2,0.9,0.3
	c0.4,0.1,1.1,0.1,1.7,0.2s1.7,0.2,2.1,0.3c0.4,0,0.4-0.3,0.4-0.3c0.1,0,0.1-0.2,0.1-0.2c0.3-0.1,0.5,0.4,0.5,0.4v-0.1
	c0-0.8-0.8-0.7-0.8-0.7v-0.1c-0.1-0.1-0.2,0-0.3,0.1c-0.1,0.1-0.1,0.1-0.5,0.1c-0.5,0.1-1.1,0-1.3-0.1c-0.2-0.1,0-0.1,0.2-0.2
	c0.1,0,1-0.3,1-0.4c0.1-0.1,0-0.2-0.1-0.3c0-0.1-0.1-0.2-0.1-0.2c0.2-0.2,0.8,0.3,0.8,0.3v-0.1c-0.5-0.9-1-0.5-1-0.5s0-0.1-0.1-0.1
	s-0.1,0.3-0.3,0.4c-0.2,0.2-0.9,0.5-1.4,0.5c-0.5,0.1-1.1,0-1.6-0.1s-1.2-0.8-1.2-0.8s-1.3-1.2-2.9-2.7c-1.9-1.8-4.1-4.1-4.2-4.2
	c-0.2-0.2-0.1-0.6-0.1-0.6s0.5-1.8,0.6-2c0.1-0.3,0.8-0.6,1.1-0.8c0.3-0.1,2-0.5,2-0.5c2.3-1,6.5-5.3,7.8-7.7
	c1.3-2.3,1.9-7.5,1.9-8.5s0.7-2,1.1-2.7c0.4-0.8,1.3-3.4,1.4-4s0.8-0.7,0.8-0.7c1.9,0.2,2.9-0.4,2.9-0.4s0,0,0-0.1
	c-0.5-1-2.8-1.1-2.8-1.1l-0.1-0.5c-0.6-1.5-4-3.1-4-3.1c-0.9-0.4-1.7-0.5-2.2-0.4s-2.2,0.6-2.2,0.6c-2.4,0.9-3,2.2-4.1,3.5
	s-2.2,2.3-2.8,2.7c-0.6,0.4-2.8,1.8-3.2,1.9c-0.4,0.2-2.7,1.3-3.1,1.5c-0.5,0.2-2.5,1.2-2.5,1.2l-0.3-0.6l-0.6-2.8l-0.6-2.1
	l-0.5-1.2c0,0-0.2-0.7-0.2-0.8c0-0.1-0.6-2.3-0.6-2.3l-1-3.1l-0.3-1.4l-0.1-0.2c0,0-0.1,0-0.2,0.2c0,0.2-0.1,0.3-0.1,0.3
	s-0.1,0.2-0.1,0c0-0.1-0.1-0.8-0.1-0.8c0-0.1,0.1-0.2,0-0.2c-0.1-0.1-0.3-0.2-0.4-0.2c0,0-0.2,0-0.1,0.2c0,0.2,0.1,0.5,0,0.6
	s-0.2,0.1-0.2-0.1c0-0.2-0.1-0.5-0.1-0.6s-0.3-0.4-0.4-0.4s-0.3-0.2-0.2,0c0.1,0.2,0.1,0.6,0.1,0.6s-0.2-0.1-0.2-0.3
	c0-0.1-0.1-0.2-0.2-0.1c-0.1,0.1-0.1,0.2-0.1,0.2s-0.1-0.3-0.1-0.2v0.3c0,0,0,0-0.2-0.2c-0.2-0.1-0.1-0.2-0.2-0.2s-0.2,0-0.2,0
	s-0.5-0.2-0.4,0.1c0.1,0.2,0.2,0.3,0.3,0.5c0.1,0.2,0.2,0.4,0.1,0.3c-0.1-0.1-0.3-0.3-0.4-0.3c0,0-0.2-0.1-0.2,0.1
	c0,0.1,0,0.3,0.1,0.4c0.2,0.1,0.4,0.5,0.4,0.5s0.1,0.2-0.1,0.2s-0.3,0-0.4-0.1s-0.3-0.2-0.3-0.2s-0.2,0.2-0.1,0.6
	c0.2,0.5,0.3,0.6,0.3,0.8c0,0.1,0.2,0.2,0.1,0.4c-0.1,0.2,0,0.2,0,0.4c0,0.1-0.1,0-0.1,0.3s0.2,0.3,0,0.3c-0.2,0.1-0.1,0.2-0.1,0.3
	c0.1,0.1,0.9,2.9,0.9,2.9s-0.1,0.6,0.1,0.9s1,2.6,1,2.6l-0.1,0.3c0,0,1.4,3.6,1.4,3.8c0,0.1,0.1,0.2,0,0.5s-0.3,0.1-0.3,0.4
	s0,0.4-0.1,0.4c0,0-0.1,0.2-0.1,0.1s-0.2-0.1-0.1,0c0,0.1,0.1,0.4,0.1,0.4c-0.1,0-0.3,0-0.3,0.1s0.2,0.3,0.2,0.5
	c0,0.1,0.2,0.7,0.2,0.7l0.2,0.3c0,0-0.2,0.1-0.3-0.1c-0.1-0.1-0.2-0.1-0.3-0.3c-0.1-0.2-0.2,0.1-0.1,0.2c0,0.1,0.1,0.3,0.1,0.4
	s0.1,0.3,0,0.3l-0.3-0.5c0,0-0.1,0.3,0,0.4s0.4,0.7,0.4,0.7s-0.5-0.4-0.5-0.3s-0.1,0,0.1,0.3s0.3,0.5,0.3,0.5
	c-0.1,0-0.3-0.2-0.4-0.3c-0.1-0.2-0.2-0.1,0,0.2c0.1,0.3,0.2,0.4,0.2,0.5s-0.2-0.2-0.2,0s0.1,0.3,0.2,0.4c0,0.1,0.2,0.3,0.2,0.3
	s-0.3,0.1-0.2,0.2c0.1,0.1,0.3,0.3,0.3,0.3s-1,1.3-1.1,1.6c-0.1,0.2-0.7,0.8-0.6,1.1c0.1,0.2,0.1,0.2,0.2,0.3
	c0.1,0.1,0.3,0.2,0.3,0.2s0.1,0.9,0.3,1.2c0.2,0.3,0.4,0.7,0.5,0.9c0.1,0.2,0.1,0.4,0.2,0.6c0.2,0.1,0.7,0.6,1.2,1.1
	c0.4,0.5,0.6,0.6,1,1s0.8,0.8,1.3,1.2c0.5,0.4,0.9,0.7,1.1,0.8C310.4,284.6,311,285,311,285"/>
<path id="el_gorrion" class="st4" d="M195,302.6c-0.4-0.3-0.8-0.4-1.2-0.7c0,0.3,0,0.4,0.1,0.6c0.9,0.2,1.7,0.4,2,1.5
	c-0.3-0.2-0.6-0.4-0.8-0.5c-0.3-0.2-0.6-0.3-1,0c-0.2,0.1-0.6,0.1-0.9,0.1c-0.7-0.1-1.4-0.3-2-0.5c0,0.4-0.1,0.7-0.1,1.1
	c-0.7-0.5-1.3-0.9-1.8-1.4c-0.5-0.7-1.1-1.2-1.8-1.7c-0.1-0.1-0.2-0.1-0.3-0.2c-0.4-0.3-0.6-0.6-0.4-1c0-0.1-0.1-0.3-0.2-0.4
	c-0.1,0-0.3,0.1-0.4,0.1c-0.1,0.1-0.2,0.2-0.3,0.3c-0.2-0.4,0-0.9,0.4-1.1c0.3-0.2,0.6,0,0.8,0.2c0.3,0.3,0.6,0.6,0.9,0.9
	c-0.2-0.6-0.3-1.1-0.5-1.6c-0.4-1.1-0.9-2.2-1.5-3.2c-0.3-0.6-0.5-1.3-0.6-1.9c-0.1-0.5-0.2-0.8-0.6-1.2c-0.6-0.6-1.1-1.4-1.5-2.2
	c0-0.1-0.2-0.2-0.3-0.2c-1.1-0.1-2.3-0.3-3.4-0.4c-0.3,0-0.6,0.1-0.9,0.1c-0.9,0.1-1.8,0.2-2.6,0.3c-0.2,0-0.4,0.1-0.6,0.2
	c-2.6,1.1-5.1,2.2-7.7,3.4c-0.2,0.1-0.4,0.2-0.5,0.2c-0.2,0-0.3-0.1-0.5-0.2c0.1-0.1,0.1-0.3,0.2-0.3c3.6-2.2,7.1-4.5,10.9-6.4
	c0.3-0.1,0.5-0.4,0.7-0.6c0.5-0.8,0.9-1.6,1.3-2.5c0.9-1.9,2.3-3.4,3.9-4.7c0.1-0.1,0.3-0.3,0.4-0.4c1.2-1.7,2.6-3.2,4.5-4.2
	c0.4-0.2,0.8-0.4,1.2-0.5c0.5-0.2,0.7-0.5,0.5-1c-0.1-0.6-0.7-0.9-1.3-0.8c-0.2,0-0.3-0.1-0.5-0.2c-0.1-0.1-0.2-0.2-0.4-0.2
	c-1.3-0.2-2.6-0.5-3.8-1c-0.2-0.1-0.4,0-0.7,0c0.3-0.3,0.5-0.6,0.7-0.8c1-0.6,2.1-1.3,3.2-1.9c0.2-0.1,0.3-0.1,0.4-0.4
	c0.2-0.5,0.7-0.7,1.2-1c1.2-0.7,2.5-1,3.8-1.1c0.9,0,1.8,0,2.7,0.1c1.3,0.2,2.4,0.8,3.3,1.7c1.6,1.5,2.8,3.2,3.5,5.2
	c0.3,0.9,0.4,1.7,0.1,2.7c-0.1,0.2,0,0.4,0,0.6c0,2.3-0.1,4.6-0.6,6.8c-0.2,0.9-0.5,1.6-1,2.4c-0.8,1.4-1.7,2.7-2.9,3.8
	c-0.6,0.6-1.3,1.1-2.1,1.3c-0.1,0-0.1,0-0.1,0.1c-0.8,0.4-1.5,0.8-2.3,1.2c0.4,0.4,0.9,0.9,1.3,1.3c0.9,1,1.8,2,2.6,3
	c0.4,0.5,1,0.6,1.6,0.7s1.2,0.2,1.7,0.2c0.3,0,0.6,0,0.8,0c0.6,0.1,0.9,0.3,1,0.9c-0.4,0-0.9-0.9-1.4,0c0.6,0.5,1.2,0.9,1.3,1.9
	c-0.2-0.2-0.2-0.3-0.3-0.4c-0.2-0.3-0.4-0.5-0.8-0.3c-0.1,0-0.3,0-0.4-0.1c-0.4-0.3-0.8-0.3-1.2-0.3c-0.3-0.1-0.7-0.2-1-0.4
	c0.1,0.4,0.1,0.8,0.2,1.3h-0.1c-0.1-0.1-0.1-0.2-0.2-0.4c-0.1-0.1-0.1-0.2-0.2-0.2c-0.8,0-1.3-0.6-1.9-1.1c-0.4-0.3-0.8-0.5-1.4-0.6
	s-1.2-0.2-1.7-0.4c-0.2-0.1-0.5-0.3-0.6-0.5c-0.3-0.6-0.9-0.8-1.4-0.3c-0.1,0.1-0.3,0.2-0.4,0.4l-0.1-0.1c0.1-0.2,0.1-0.5,0.3-0.6
	c0.5-0.6,1.2-0.6,1.9-0.3c0.7,0.4,1.3,0.9,2.2,0.9c0.3,0,0.4-0.1,0.4-0.4c-0.1-0.2-0.1-0.5-0.3-0.7c-0.8-1-1.5-1.9-2.3-2.8
	c-0.2-0.2-0.4-0.3-0.6-0.2c-1.6,0.3-3.2,0.5-4.8,0.4c-0.3,0-0.4,0.1-0.4,0.3c0,0.5,0.1,1,0.1,1.6c0,0.2,0.1,0.3,0,0.5
	c-0.2,0.7,0.2,1.2,0.4,1.8c0.3,0.9,0.6,1.8,1,2.7c0.1,0.3,0.3,0.6,0.5,0.9c0.3,0.4,0.6,0.8,0.8,1.2c0,0.1,0.1,0.1,0.1,0.2
	c0.7,0.2,1.4,0.7,2.2,0.6c0.5-0.1,1,0,1.5,0C194.4,301.4,194.8,301.8,195,302.6z"/>
<path id="el_charcan" class="st4" d="M66.8,297.6c-0.9-0.5-1.7-1.1-2.6-1.6c-0.5-0.3-1.2-0.2-1.9-0.3c-1.3-0.2-2.5,0.3-3.7,0.4
	c-1.4,0.1-2.8,0.9-4.2,1.3c-0.3,0.1-0.6,0.3-1.1,0.5c0.4,0.5,0.8,0.9,1.2,1.3l-0.1,0.1c-0.2-0.2-0.5-0.3-0.6-0.5
	c-0.6-0.9-1.4-0.7-2.1-0.4c-0.5,0.2-0.6,0.1-0.8-0.2c-0.4-0.6-0.9-0.7-1.6-0.8c-1.3-0.2-2.5-0.6-3.8-1c-1-0.3-2-0.6-3.3-0.9
	c0.3,0.5,0.4,0.8,0.6,1.1c0.7,1,1.5,2,2.3,2.9s1.3,0.9,2.2,0.3c0.2-0.1,0.5-0.1,0.9,0c-0.3,0.2-0.5,0.4-0.9,0.7
	c1.1,0.5,1.8,1.3,2.3,2.2c0,0.1-0.1,0.1-0.1,0.2c-0.5-0.2-1-0.4-1.5-0.7c-0.8-0.4-1.5-0.9-2.3-1.1c-1.4-0.4-1.8-1.7-2.6-2.7
	s-1.5-2-2.2-3c-0.1-0.2-0.3-0.5-0.3-0.7c0.2-1-0.4-1.8-1-2.5c-0.6-0.8-1.2-1.5-1.7-2.3c-0.2-0.3-0.3-0.8-0.4-1.2
	c-0.1-0.4-0.3-0.7-0.5-1.1c-0.1-0.3-0.3-0.5-0.3-0.8c0.1-1.1-0.4-1.7-1.4-1.9c-0.1,0-0.1-0.1-0.2-0.3c0.5,0,0.8,0,1.3,0
	c-1.8-3.7-3.4-7.2-6.4-10c0.9-0.5,1.4-0.1,1.8,0.3c1.1,1.1,2.2,2.3,3.3,3.5c0.5,0.6,1.2,1.1,1.6,1.7c1,1.4,2.5,1.7,4,2.1
	c2.7,0.7,5.5,1.3,8.2,2c2.8,0.7,5.7,1.3,8.4,2.1c2.2,0.7,4.2,2.1,5.6,4c0.5,0.7,0.8,1.6,0.9,2.5c0.1,0.9,0.6,1.5,1.2,2.1
	c0.7,0.7,1.3,1.5,1.9,2.3C66.9,297.5,66.9,297.5,66.8,297.6z"/>
<g id="alturas">
	<text transform="matrix(0.9839 0 0 1 48.45 270.3667)" class="st6 st2 st7">11 cm</text>
	<text transform="matrix(0.9839 0 0 1 201.8 259.511)" class="st6 st2 st7">16 cm</text>
	<text transform="matrix(0.9839 0 0 1 336.9003 252.511)" class="st6 st2 st7">19 cm</text>
	<text transform="matrix(0.9839 0 0 1 444.7998 240)" class="st6 st2 st7">25 cm</text>
	<text transform="matrix(0.9839 0 0 1 603.742 205.511)" class="st6 st2 st7">38 cm</text>
	<text transform="matrix(0.9839 0 0 1 866.6715 33.8)" class="st6 st2 st7">110 cm</text>
</g>
</svg>
