<?xml version="1.0" encoding="UTF-8"?>
<svg viewBox="0 0 97.54 155.54" xmlns="http://www.w3.org/2000/svg">
<defs>
	
<style>

	.cls-1{fill:#bab9b8;}
	.cls-2{fill:none;stroke:#fff;stroke-miterlimit:10;stroke-width:0.5px;}
	.cls-3,
	.cls-4{fill:#1e1e1c;}.cls-4{font-size:6px;
								font-family: 'Roboto', sans-serif;
								font-weight:100;}
	.cls-5{letter-spacing:-0.01em;}
	.cls-6{letter-spacing:0em;}
	.cls-7{letter-spacing:0em;}
	.cls-8{letter-spacing:-0.01em;}
	.cls-9{letter-spacing:-0.01em;}.cls-10{letter-spacing:-0.04em;}</style>
</defs>
<title>mapa_gnrl</title>
<g data-name="Layer 2">
<g data-name="Layer 1">
<path class="cls-1" d="M35.39,153.94l-1.75.17L32.7,153l-1.11-.09h-2l3.91-11.35.71,1.41-3,6.73,2.4,1.89,2.59.79ZM40.29,69l1.09,1.44.71-1.6,2.11.08.29.42,3.39,3.25,1.51.3,2.26,1.49,1.9.79.26.89L52,79.16l1.87.56,2.07.32,1.46-.33,1.67-1.58.3-1.8.92-.39.92,1.18,0,1.64-1.55,1.13-1.24.85-2.07,2-2.46,2.88-.46,1.7-.5,2.22,0,2.17-.4.49-.14,1.42-.13,1.16,2.34,1.92-.25,1.55,1.15,1-.09,1.12-1.77,3-2.73,1.26-3.7.49-2-.24.39,1.42-.37,1.79.34,1.21-1.11.86-1.89.33-1.77-.88-.71.63.25,2.44,1.25.75,1-.78.55,1.29-1.69.78-1.48,1.56-.27,2.57-.44,1.39H37.47L36,121.58l-.52,2,1.81,2,1.76.55-.63,2.45-2.18,1.57-1.19,3.31-1.69,1.13-.75,1.35.6,3.06,1.23,1.73-.78-.16L32,140.05l-4.46-.4-.76-1.73,0-2.19-1.23.18-.65-1-.17-3,1.42-1.24.58-1.76-.21-1.39,1-2.31.67-3.52-.2-1.53.8-.5-.2-1-.85-.51.6-1.08-.83-1-.43-2.89.75-.51-.31-3,.43-2.46.49-2.12,1.11-.86L29,102V99.84l1.4-1.49,0-1.88,1.05-2.18v-2l-.48-.41-.85-3.74,1.14-2.2-.18-2L31.67,82,32.88,80l1.3-1.28-.55-.81.39-.66L34,73.88l2-1,.63-2.08-.22-.5,1.54-1.79Z"/>
<path class="cls-1" d="M44.2,68.91l-2.11-.08-.71,1.6L40.29,69l-2.41-.48L36.34,70.3,35,70.57l-.73-2.73-1-2.19.58-1.89-1-.82-.24-1.4-.91-1.32,1.16-2.06-.79-1.61.42-.63-.33-.71.72-1,0-1.6.09-1.33.4-.63-1.6-3,1.38.15.94,0,.42-.56,1.61-.76,1-.69,2.41-.32-.19,1.39.22.72-.15,1.25,2,1.68,2.06.31.73.7,1.25.38.76.54,1.16,0,1.07.56.08,1.09.36.56,0,.82-.54,0,.71,2.21,3.53.08-.27,1.11.2.75,1,.54.44,1.2-.33,1.53-.51.84.18,1.12-.58.4,0-.6-1.72-1-1.71,0-3.22.57-.88,1.72-.05,1-.73,2.37Z"/>
<path class="cls-1" d="M53.83,85.65l2.46-2.87,2.08-2,1.24-.84,1.55-1.14,0-1.64L60.28,76l-.92.39.36-1.17L60,74v-1.1l-.66-.36-.69.32-.69-.09L57.72,72l-.17-1.82-.35-.6L56,69l-.75.39L53.26,69l.12-2.67-.55-1.09.58-.4-.18-1.12.51-.84.33-1.53-.44-1.2-1-.54-.2-.75.27-1.11-3.53-.08-.71-2.21.54,0,0-.82-.36-.56L48.52,53l-1.07-.56-1.16,0-.76-.54-1.25-.38-.73-.7-2.06-.31-2-1.68.15-1.25-.22-.72.19-1.39-2.41.32-1,.69-1.61.76-.42.56-.94,0-1.38-.15-1,.32L30,47.79,30.11,45l-1.51,1.1L27,46l-.7-1-1.22-.11.38-.8-1-1.13-.77-1.66.48-.34V40.2l1.12-.53-.18-1,.47-.64.13-.86,2.11-1.25,1.51-.35.25-.28,1.66.09.83-5,0-.8-.29-1.05L31,27.83V26.5l1-.3.36.19.06-.7-1.08-.19,0-1.15,3.6,0,.61-.63.51.58.36,1.09.34-.24,1,1,1.44-.12.35-.57,1.37-.42.77-.3.21-.78,1.32-.52-.11-.38-1.56-.16-.25-1.16.07-1.23-.82-.47.34-.17,1.37.23,1.46.46.54-.43,1.32-.29,2.07-.68.67-.71L48.09,18l1-.08.44.42-.25.81.64.28.42.85-.51.65-.3,1.57.48.92.13.85,1.14.86.91.09.2-.36.58-.08.83-.32.6-.48,1,.15.45-.07,1,.15.16-.37-.31-.36.18-.54.75.17.87-.19,1.06.38.8.39.58-.5.41.07.25.52.88-.13.71-.69.56-1.36,1.09-1.68.64-.08.45,1L67,24l1,.3,0,1.27-1.39,1.5.58.56,3.26.29.07,1.83,1.4-1.2,2.32.66,3.06,1.12.9,1.07-.3,1L80,31.86l3.59,1,2.76-.07,2.72,1.52,2.36,2.06,1.42.53,1.58.07.67.58.62,2.35L96.06,41l-.73,3.07-1,1.21-2.59,2.59L90.61,50l-1.36,1.63-.46,0L88.27,53l.13,3.55-.51,2.94-.2,1.27-.58.76-.33,2.59-1.87,2.55-.31,2-1.5.86-.43,1.19h-2l-2.9.77-1.3.89L74.4,73l-2.17,1.6-1.56,2-.27,1.53.31,1.14-.35,2.09-.41,1-1.29,1.15-2,3.74L65,89l-1.26,1-.84,2.07-1.22,1.26-.51-1.25.81-1-1.06-1.48-1.45-1.2L57.56,87l-.69.06L55,85.43Z"/>
<path class="cls-1" d="M33.52,141.53l-3.91,11.35h2l1.12.09-.62,1.3-1.57,1-.91-.11-1.09-.26-1.35-1-1.93-.47-2.32-1.78L21,150l1.37-7.86,1.52.64-1.32,6.46,2.45,1.12.95-1.43,4.51-6.51,1.7-1.25Zm.76-73.69L35,70.57l1.33-.27.22.5-.63,2.08-2,1L34,77.26l-.39.65.56.81L32.84,80,31.63,82,31,83.86l.17,2L30,88.1l.84,3.75.48.4v2l-1.05,2.18,0,1.89-1.39,1.48V102l.56,2.28-1.11.85-.49,2.12-.44,2.47.31,3-.74.51.43,2.9.83,1-.6,1.07.85.51.2,1-.8.49.19,1.53-.67,3.52-1,2.32.22,1.38-.59,1.77-1.41,1.23.16,3,.66,1.05,1.23-.18,0,2.19.77,1.73,4.46.4,1.71.47-1.64,0-.89.74-1.66,1.1-4.21,7.28-.78.08-2.08-1,1.8-6.54h0l-2.3-1.73-.58-1.89.52-1.72-.93-1.93L20.67,130l.78-2.65,1.95-2.1-2.8-.78,1.75-2.35.63-4.32,2.05.9,1-5.24-1.24-.66L24.17,116,23,115.6l.58-3.56.63-4.5.85-1.63-.53-2.31L24.38,101l.78-.07,1.13-3.68,1.28-3.57.78-3.27-.43-3.23.56-1.76-.23-2.6,1.08-2.55.34-4,.59-4.19.58-4.44-.14-3.21-.38-2.73.95-.49.49-1,.9,1.31.24,1.4,1,.82-.58,1.89Z"/>
<path class="cls-1" d="M21.1,27.77l-.79-.43-.91-.61-.53.29-1.56-.25L16.86,26l-.34,0L14.67,25l-.25-.57.69-.14L15,23.34l.43-.66.91-.13.78-1.15.71-1L17.17,20l.35-1.07-.41-1.68.39-.48-.29-1.56-.75-1,.24-.89.6.13.35-.55-.43-1.09.22-.28.95.06,1.39-1.29.76-.2,0-.61.34-1.57L22,7.06l1.15,0,.15-.39,1.45.15,1.45-.94.72-.42.89-.9.65.11.48.49-.35.63-1.19.32L26.9,7l-.72.54-.53.69-.23,1.32-.51,1.1.95.12.23.85.41.41.15.74-.22.69.07.38L27,14l.44.64,2.37-.18,1.07.24,1.3,1.58.75-.19,1.33.1,1-.21.65.32-.34,1-.4.62L35,19.23l.37,1.22.53.55.06.41-.94.92.67.4.5.64.55,1.82-.34.24-.36-1.09-.51-.58-.61.63-3.6,0,0,1.15,1.08.19-.06.7L32,26.2l-1,.3v1.33l.81.67.29,1.05,0,.8-.83,5-.92-1-.55,0,1.19-1.87-1.42-.86-1.1.16-.67-.32-1,.49-1.37-.23-1.09-1.92-.85-.48-.59-.87-1.22-.86Z"/>
<path class="cls-1" d="M12,33.73l1-1.36-.4-.81-.7.86-1.11-.81.38-.51-.31-1.67.64-.27L11.83,28l.69-1.19-.13-.74,1-.4L14.67,25,16.52,26l.34,0,.45.79,1.56.25.53-.29.91.61.79.43.25,1.39-.57,1.19-2,1.92L16.55,33l-1.13,1.6-.35,1.23L14,36.59l-.77-.93-.75-.2-.76.15-.05-.67.53-.44Z"/>
<path class="cls-1" d="M47.24,139.16l2.21-1.77,1.57.74L52.13,137l1.47,1.32-.55,1-2.5.9-.83-1.05-1.56,1.35Z"/>
<path class="cls-1" d="M63.18,22.91l-.71.69-.88.13-.25-.51-.41-.08-.58.5-.8-.37.47-.79.16-.83.31-.79-.71-1.09-.15-1.25,1-1.59.63.21,1.35.43,2,1.55.3.75-1.09,1.68Z"/>
<path class="cls-1" d="M49.9,12.11l1.21.68L52.25,14l0,1L53,15l1,.9.73.64-.3,1.66-1.11.48.09.43-.34.95.83,1.33h.58l.24,1L55.83,24l-.45.07-1-.15-.6.48-.83.32-.58.08-.2.36-.91-.09-1.14-.86L50,23.37l-.48-.92.3-1.57.51-.65-.42-.85-.64-.28.25-.81-.44-.42-1,.08-1.24-1.39.5-.51,0-.85,1.14-.3.45-.34-.63-.69.16-.67Z"/>
<path class="cls-1" d="M31.76,60.22l-.49,1-.95.49L28.47,60.6l-.17-.79-3.65-1.92L21.34,55.8l-1.42-1.17-.77-1.56.31-.54L17.9,50.06l-1.82-3.45-1.74-3.69-.76-.85L13,40.71,11.57,39.5l-1.32-.74.6-.82L10,36.18l.57-1.28L12,33.73l.22.77-.53.44.05.67.76-.15.75.2.77.93,1.05-.76.35-1.23L16.55,33l2.22-.73,2-1.92.57-1.19-.25-1.39.49-.17,1.22.86.59.87.85.48,1.09,1.92,1.37.23,1-.49.67.32,1.1-.16,1.42.86-1.19,1.87.55,0,.92,1-1.66-.09-.25.28-1.51.35-2.11,1.25-.13.86-.47.64.18,1-1.12.53V41l-.48.34L24.42,43l1,1.13-.38.8,1.22.11.7,1,1.62.05L30.11,45,30,47.79l.84.22,1-.32,1.6,3-.4.63L33,52.66l0,1.6-.72,1,.33.71-.42.63.79,1.61Z"/>
<path class="cls-1" d="M44.49,69.34,45.22,67l.05-1,.88-1.72,3.22-.57,1.71,0,1.72,1,0,.6.55,1.09L53.26,69l1.94.38L56,69l1.25.54.35.6L57.72,72l.21.77.69.09.69-.32.66.36V74l-.25,1.2-.36,1.17-.3,1.81-1.67,1.58-1.46.33-2.07-.32L52,79.18l1.82-3.11-.27-.9-1.9-.79L49.4,72.89l-1.51-.3Z"/>
<path class="cls-1" d="M54.71,16.53l2.21.37.2-.34,1.49-.13,2,.5-1,1.58.15,1.26.73,1.09-.33.79-.16.83-.47.77-1.06-.38-.87.19-.75-.17-.18.54.31.36-.16.37-1-.15L54.7,22.42l-.24-1h-.58l-.83-1.33.34-.95-.09-.43,1.11-.48Z"/>
<path class="cls-1" d="M53.83,85.65l1.2-.22,1.84,1.64.69-.06,1.9,1.37,1.45,1.2L62,91.06l-.81,1,.51,1.25-.8,1.4L58.79,96l-1.36-.45-1,.25-1.71-1-1.25.07-1.12-1.23.14-1.42.4-.49V89.57l.49-2.22Z"/>
<path class="cls-1" d="M28.55,5.76l-.05.44-1.09.22.61.85,0,1-.81,1.08.7,1.47.79-.12.42-1.34-.57-.66-.1-1.4,2.3-.77-.26-.88L31.11,5l.66,1.31,1.3,0,1.19,1,.08.62H36l2-.19L39,8.7l1.41.23,1-.58,0-.47,2.29-.11,2.21,0-1.56.56.62.88,1.48.13,1.4.92.29,1.49,1-.05.73.44L48.43,13.2l-.16.67.63.69-.45.34-1.14.3,0,.85-.5.51L48.09,18l.25.52-.67.71-2.07.68-1.32.29-.54.43-1.46-.46-1.37-.23-.34.17.82.47-.07,1.23.25,1.16,1.56.16.11.38L41.92,24l-.21.78-.77.3-1.37.42-.35.57-1.44.12-1-1-.55-1.82-.5-.64-.67-.4.94-.92L35.92,21l-.53-.55L35,19.23l.15-1.32.4-.62.34-1L35.26,16l-1,.21-1.33-.1-.75.19-1.3-1.58-1.07-.24-2.37.18L27,14l-.45-.16-.07-.38.22-.69L26.5,12l-.41-.41-.23-.85-.95-.12.51-1.1.23-1.32.53-.69L26.9,7l.46-.93Z"/>
<path class="cls-2" d="M35.34,153.94l-1.75.17L32.65,153l-1.11-.09h-2l3.91-11.35.71,1.41-3,6.73,2.4,1.89,2.59.79ZM40.24,69l1.08,1.44.72-1.6,2.1.08.3.42,3.39,3.25,1.5.3,2.26,1.49,1.9.79.26.89-1.81,3.11,1.86.56,2.07.32,1.46-.33L59,78.13l.31-1.8.91-.39.93,1.18,0,1.64-1.55,1.13-1.24.85-2.08,2-2.46,2.88-.46,1.7-.49,2.22,0,2.17-.41.49-.14,1.42-.12,1.16,2.34,1.92-.25,1.55,1.15,1-.09,1.12-1.77,3-2.74,1.26-3.7.49-2-.24.39,1.42-.38,1.79.34,1.21-1.1.86-1.89.33-1.78-.88-.71.63.26,2.44,1.24.75,1-.78.55,1.29-1.7.78-1.48,1.56-.27,2.57-.43,1.39H37.41L36,121.58l-.53,2,1.82,2,1.76.55-.63,2.45-2.18,1.57L35,133.4l-1.68,1.13-.76,1.35.6,3.06,1.23,1.73-.78-.16-1.71-.46-4.46-.4-.76-1.73,0-2.19-1.23.18-.65-1-.16-3,1.41-1.24.59-1.76-.22-1.39,1-2.31.67-3.52-.2-1.53.81-.5-.2-1-.86-.51.61-1.08-.84-1L27,113.17l.74-.51-.31-3,.43-2.46.5-2.12,1.1-.86L28.91,102V99.84l1.39-1.49,0-1.88,1.06-2.18v-2l-.48-.41L30,88.11l1.14-2.2-.18-2L31.61,82,32.82,80l1.3-1.28-.55-.81.39-.66-.06-3.38,2-1,.63-2.08-.23-.5,1.54-1.79Z"/>
<path class="cls-2" d="M53.77,85.65l2.46-2.87,2.09-2,1.24-.84,1.55-1.14,0-1.64L60.22,76l-.91.39.36-1.17.25-1.2v-1.1l-.67-.36-.69.32-.68-.09L57.66,72l-.17-1.82-.35-.6L55.9,69l-.75.39L53.2,69l.12-2.67-.55-1.09.58-.4-.17-1.12.5-.84L54,61.37l-.44-1.2-1-.54-.19-.75.27-1.11-3.54-.08-.71-2.21.54,0,0-.82-.37-.56L48.47,53l-1.08-.56-1.16,0-.76-.54-1.25-.38-.72-.7-2.07-.31-2-1.68.15-1.25-.23-.72.19-1.39-2.41.32-1,.69-1.61.76-.41.56-1,0-1.37-.15-1,.32-.85-.22L30.06,45l-1.51,1.1L26.92,46l-.7-1L25,44.91l.39-.8-1-1.13-.77-1.66.49-.34V40.2l1.12-.53-.19-1,.47-.64.14-.86,2.1-1.25,1.52-.35.24-.28,1.66.09.83-5,.05-.8-.29-1.05-.82-.67V26.5l1-.3.37.19.06-.7-1.08-.19,0-1.15,3.59,0,.61-.63.52.58.35,1.09.35-.24,1,1,1.43-.12.36-.57,1.37-.42.76-.3.21-.78,1.32-.52-.1-.38-1.56-.16-.26-1.16.07-1.23-.82-.47.34-.17,1.37.23,1.47.46.53-.43,1.32-.29,2.07-.68.68-.71L48,18l1-.08.43.42-.24.81.63.28.43.85-.52.65-.29,1.57.47.92.13.85,1.14.86.91.09.2-.36.58-.08.84-.32.6-.48,1,.15.44-.07,1,.15.16-.37-.3-.36.18-.54.74.17.88-.19,1.05.38.81.39.57-.5.41.07.26.52.88-.13.7-.69.57-1.36,1.09-1.68.63-.08.45,1,1,3.21,1,.3.06,1.27-1.39,1.5.57.56,3.26.29.07,1.83,1.4-1.2,2.32.66,3.06,1.12.9,1.07-.3,1L80,31.86l3.59,1,2.75-.07,2.73,1.52,2.35,2.06,1.42.53,1.58.07.67.58.63,2.35L96,41l-.74,3.07-.94,1.21-2.6,2.59L90.55,50l-1.36,1.63-.46,0L88.21,53l.13,3.55-.51,2.94-.2,1.27-.58.76-.32,2.59-1.87,2.55-.32,2-1.49.86-.44,1.19h-2l-2.9.77-1.3.89L74.34,73l-2.17,1.6-1.56,2-.27,1.53.31,1.14-.34,2.09-.42,1L68.6,83.55l-2,3.74L64.93,89l-1.26,1-.83,2.07-1.22,1.26-.52-1.25.82-1-1.07-1.48-1.45-1.2L57.5,87l-.68.06L55,85.43Z"/>
<path class="cls-2" d="M44.14,68.91,42,68.83l-.72,1.6L40.24,69l-2.42-.48L36.29,70.3,35,70.57l-.72-2.73-1-2.19.58-1.89-1-.82-.24-1.4-.91-1.32,1.17-2.06-.8-1.61.43-.63-.34-.71.73-1,0-1.6L33,51.33l.4-.63-1.59-3,1.37.15,1,0,.41-.56,1.61-.76,1-.69,2.41-.32-.19,1.39.23.72-.15,1.25,2,1.68,2.07.31.72.7,1.25.38.76.54,1.16,0,1.08.56.07,1.09.37.56,0,.82-.54,0,.71,2.21,3.54.08-.27,1.11.19.75,1,.54.44,1.2-.33,1.53-.5.84.17,1.12-.58.4,0-.6-1.73-1-1.71,0-3.21.57-.88,1.72,0,1-.73,2.37Z"/>
<path class="cls-2" d="M31.7,60.22l-.49,1-.95.49L28.41,60.6l-.16-.79L24.6,57.89,21.29,55.8l-1.43-1.17-.76-1.56.3-.54-1.56-2.47L16,46.61l-1.74-3.69-.75-.85L13,40.71,11.51,39.5l-1.31-.74.6-.82-.9-1.76.57-1.28L12,33.73l.22.77-.53.44,0,.67.76-.15.75.2.77.93,1-.76.35-1.23L16.49,33l2.22-.73,2-1.92.58-1.19L21,27.77l.49-.17,1.23.86.58.87.86.48,1.08,1.92,1.38.23,1-.49.66.32,1.11-.16,1.41.86-1.19,1.87.55,0,.92,1-1.66-.09-.24.28-1.52.35-2.1,1.25-.14.86-.47.64.19,1-1.12.53V41l-.49.34L24.36,43l1,1.13-.39.8,1.22.11.7,1,1.63.05L30.06,45l-.13,2.83.85.22,1-.32,1.59,3-.4.63-.08,1.33,0,1.6-.73,1,.34.71-.43.63.8,1.61Z"/>
<path class="cls-2" d="M33.47,141.53l-3.91,11.35h2l1.11.09-.61,1.3-1.58,1-.91-.11-1.09-.26-1.34-1-1.94-.47-2.32-1.78L21,150l1.37-7.86,1.52.64-1.32,6.46L25,150.36l1-1.43,4.51-6.51,1.7-1.25Zm.76-73.69L35,70.57l1.33-.27.23.5-.64,2.08-2,1,.06,3.38-.39.65.55.81L32.79,80,31.58,82l-.66,1.91.18,2L30,88.1l.85,3.75.48.4v2l-1.05,2.18,0,1.89-1.4,1.48V102l.56,2.28-1.1.85-.5,2.12-.43,2.47.31,3-.75.51.43,2.9.84,1-.61,1.07.86.51.19,1-.8.49.2,1.53-.67,3.52-1,2.32.21,1.38-.58,1.77-1.42,1.23.17,3,.65,1.05,1.23-.18,0,2.19.76,1.73,4.46.4,1.71.47-1.64,0-.88.74-1.67,1.1-4.21,7.28-.78.08-2.08-1,1.8-6.54h0l-2.29-1.73-.58-1.89.52-1.72-.93-1.93L20.61,130l.78-2.65,1.95-2.1-2.8-.78,1.76-2.35.62-4.32,2,.9,1-5.24-1.23-.66L24.12,116,23,115.6l.58-3.56.63-4.5.85-1.63-.53-2.31L24.33,101l.78-.07,1.13-3.68,1.27-3.57.79-3.27-.43-3.23.55-1.76-.22-2.6,1.08-2.55.33-4,.59-4.19.58-4.44-.14-3.21-.38-2.73.95-.49.49-1,.9,1.31.25,1.4,1,.82-.57,1.89Z"/>
<path class="cls-2" d="M47.18,139.16l2.21-1.77,1.57.74L52.07,137l1.47,1.32-.55,1-2.49.9-.83-1.05-1.57,1.35Z"/>
<path class="cls-2" d="M53.77,85.65l1.2-.22,1.85,1.64L57.5,87l1.9,1.37,1.45,1.2,1.07,1.48-.82,1,.52,1.25-.8,1.4L58.73,96l-1.36-.45-1,.25-1.7-1-1.25.07-1.13-1.23.15-1.42.4-.49,0-2.17.49-2.22Z"/>
<path class="cls-2" d="M21,27.77l-.79-.43-.91-.61-.52.29-1.57-.25L16.8,26l-.34,0L14.61,25l-.25-.57.69-.14L15,23.34l.43-.66.92-.13.78-1.15.7-1L17.12,20l.35-1.07-.42-1.68.4-.48-.29-1.56-.75-1,.24-.89.59.13.35-.55-.42-1.09.22-.28.95.06,1.38-1.29.76-.2,0-.61.34-1.57,1.06-.87,1.16,0,.14-.39,1.45.15,1.46-.94.71-.42.89-.9.66.11.48.49-.36.63-1.18.32L26.84,7l-.72.54-.53.69-.23,1.32-.5,1.1.94.12.24.85.41.41.14.74-.22.69.07.38.45.16.45.64,2.36-.18,1.08.24,1.3,1.58.74-.19,1.33.1L35.2,16l.65.32-.33,1-.41.62L35,19.23l.36,1.22.53.55.06.41-.93.92.67.4.49.64.56,1.82-.35.24L36,24.34l-.52-.58-.61.63-3.59,0,0,1.15,1.08.19-.06.7L32,26.2l-1,.3v1.33l.82.67L32,29.55l-.05.8-.83,5-.92-1-.55,0,1.19-1.87-1.41-.86-1.11.16-.66-.32-1,.49-1.38-.23L24.2,29.81l-.86-.48-.58-.87-1.23-.86Z"/>
<path class="cls-2" d="M12,33.73l1-1.36-.4-.81-.71.86-1.1-.81.37-.51-.31-1.67.65-.27L11.77,28l.7-1.19-.13-.74,1-.4L14.61,25,16.46,26l.34,0,.45.79,1.57.25.52-.29.91.61.79.43.26,1.39-.58,1.19-2,1.92L16.49,33l-1.13,1.6L15,35.83l-1,.76-.77-.93-.75-.2-.76.15,0-.67.53-.44Z"/>
<circle class="cls-3" cx="42.75" cy="9.88" r=".84"/>
<circle class="cls-3" cx="22.81" cy="9.88" r=".84"/>
<circle class="cls-3" cx="18.09" cy="43.65" r=".84"/>
<circle class="cls-3" cx="34.6" cy="61.37" r=".84"/>
<circle class="cls-3" cx="55.39" cy="71.01" r=".84"/>
<circle class="cls-3" cx="43.32" cy="107.05" r=".84"/>
<circle class="cls-3" cx="72.56" cy="45.47" r=".84"/>
</g>
<text class="cls-4" transform="translate(44.02 112.3)">Argentina</text>
<text class="cls-4" transform="translate(56.23 68.88)">Paraguay</text>
<text class="cls-4" transform="translate(11.92 65.97)">Bolivia</text>
<text class="cls-4" transform="translate(2.73 48.52)">Perú</text>
<text class="cls-4" transform="translate(73.14 44.77)">Brasil</text>
<text class="cls-4" transform="translate(0 6.37)">Colombia</text>
<text class="cls-4" transform="translate(43.49 8.93)">Venezuela</text>
</g>
</svg>
