<svg xmlns="http://www.w3.org/2000/svg" xmlns:xlink="http://www.w3.org/1999/xlink" viewBox="0 0 65.02 59.89"><defs><style>.cls-1,.cls-6{fill:none;}.cls-1{stroke:#261e16;}.cls-1,.cls-4{stroke-miterlimit:10;}.cls-2{clip-path:url(#clip-path);}.cls-3,.cls-4{fill:#4b4038;}.cls-4{stroke:#766a64;}.cls-4,.cls-6{stroke-linecap:round;}.cls-5{fill:#8e8e23;}.cls-6{stroke:#8e8e23;stroke-linejoin:round;stroke-width:3px;}</style><clipPath id="clip-path"><circle class="cls-1" cx="30.24" cy="30.19" r="23.25"/></clipPath></defs><title>NO_cabeza</title><g id="Layer_2" data-name="Layer 2"><g id="Layer_1-2" data-name="Layer 1"><g class="cls-2"><path class="cls-3" d="M24.2,36.33c-1.24.46-1.86,0-3.81,0S17.07,39.06,15,38.47s-2-1.72-2-1.72.18.13,1.82-2.87,2.15-5.54,5.48-7.13,4.52-1.11,7.22-3.78a1.68,1.68,0,0,0,.66-1.49c-.2-.82-2.59-2.93.34-4.81,1.46-.81,1.28,1.28,1.78,1.93s.81.34,1.11.11,3.84-3.65,10.75-2,9.53,4.75,13.54,5.34A16.87,16.87,0,0,0,62,22s6.15,6.16.78,17.33S47.51,49.93,47.51,49.93a40.26,40.26,0,0,1-7.62-5c-3.74-3.16-5.11-5-6.57-5.24s-2.77.35-6-.67a17.2,17.2,0,0,0-6.54-1.12C19,38,18.49,37.75,18,37.45"/><path class="cls-4" d="M34.64,22.83a8.71,8.71,0,0,1,2.78-2.46"/><path class="cls-4" d="M38.66,25.8s2-.41,2.81-4.14-.93-3.65-1.75-3.61-1.76.24-2.5,3S37.11,24,36.4,25.2"/><path class="cls-4" d="M41.7,19.83s3.62,0,9.86,2.33"/><path class="cls-4" d="M32,21.13a13.14,13.14,0,0,1,5.71-1.58"/><path class="cls-4" d="M27.41,30.48s-.31-1.31.32-1.5a4.47,4.47,0,0,1,2.22.24"/><path class="cls-4" d="M28.35,30.17a.45.45,0,0,1,.37-.69,3.15,3.15,0,0,1,1.52.35,2.35,2.35,0,0,1-1.22.65C28.46,30.48,28.35,30.17,28.35,30.17Z"/></g><circle class="cls-1" cx="30.24" cy="30.19" r="23.25"/><path class="cls-5" d="M30,2.91A26.76,26.76,0,1,0,56.71,29.67,26.77,26.77,0,0,0,30,2.91ZM30,50A20.31,20.31,0,1,1,50.26,29.67,20.31,20.31,0,0,1,30,50Z"/><line class="cls-6" x1="58.39" y1="29.95" x2="46.37" y2="29.95"/><line class="cls-6" x1="13.52" y1="29.95" x2="1.5" y2="29.95"/><line class="cls-6" x1="29.95" y1="1.5" x2="29.95" y2="13.52"/><line class="cls-6" x1="29.95" y1="46.37" x2="29.95" y2="58.39"/></g></g></svg>