<svg xmlns="http://www.w3.org/2000/svg" viewBox="0 0 53.52 53.52"><defs><style>.cls-1{fill:#4b4038;}.cls-1,.cls-2{stroke:#766a64;stroke-miterlimit:10;}.cls-2{fill:none;}.cls-3{fill:#8e8e23;}</style></defs><title>NO_hojas</title><g id="Layer_2" data-name="Layer 2"><g id="Layer_1-2" data-name="Layer 1"><path class="cls-1" d="M29.62,33.13c3.76,6,9.94-.57,12.11-3C43.52,28.12,45,28,45,28a12.28,12.28,0,0,0-8.72-3.18C31.1,25.14,27.25,29.35,29.62,33.13Z"/><path class="cls-1" d="M12.52,14.45s2,1.42,1.37,10.36,9.77,10.06,11.49,7.58c2.27-3.25,5.07-8.32-1.85-14.19A15.64,15.64,0,0,0,12.52,14.45Z"/><path class="cls-2" d="M12.75,14.81s4.5,1.62,9.65,9.67,2.89,23.94,2.89,23.94.87-9.81,5.65-14.58,10.7-7,13.88-5.92"/><path class="cls-3" d="M26.76,0A26.76,26.76,0,1,0,53.52,26.76,26.76,26.76,0,0,0,26.76,0Zm0,6.45a20.25,20.25,0,0,1,11.6,3.64L10.09,38.36A20.31,20.31,0,0,1,26.76,6.45Zm0,40.62a20.17,20.17,0,0,1-12-3.89L43.18,14.81A20.31,20.31,0,0,1,26.76,47.07Z"/></g></g></svg>