<svg xmlns="http://www.w3.org/2000/svg" viewBox="0 0 60.58 50.55"><defs><style>.cls-1{fill:#8d837e;}</style></defs><title>perfil_horse</title><g id="Layer_2" data-name="Layer 2"><g id="Layer_1-2" data-name="Layer 1"><path class="cls-1" d="M0,45.35l.13.1.06-.05a10.89,10.89,0,0,0,1.73-2.48A9.8,9.8,0,0,1,.8,45.83l0,0L.8,46l0,0a3.78,3.78,0,0,0,1.22.18l.63,0,.16,0h0c1.26-.68,1.56-2.44,1.58-3.61a6,6,0,0,1-.1,3l0,0,.1.09.06,0a7.26,7.26,0,0,0,1-.65c0,.12,0,.22-.06.31-.25,1-.05,1.18.35,1.57.1.1.21.21.33.35.31.35.28.46.26.56s0,.23.13.43a.83.83,0,0,0,.15.11c.49.56.06,1.85,0,1.87l0,.06.06,0a3.76,3.76,0,0,0,1.74.33,9.83,9.83,0,0,0,1.65-.15l.12,0-.15-.27c-.07-.13-.18-.3-.29-.5l0,0c-.19-.33-.6-1-.83-1.37L9,48.13C8.87,48,8.82,48,8.77,48s-.63-.63-.57-1a2.71,2.71,0,0,0-.23-2,9.85,9.85,0,0,1-.25-3.16,10.45,10.45,0,0,1,.29-3l.06-.07a2.91,2.91,0,0,0,.87-2.18.46.46,0,0,1,.16-.41,2.14,2.14,0,0,0,.12.28,21.91,21.91,0,0,1,1.58,7.13c-.1,1.1.13,1.33.58,1.77a5,5,0,0,1,.39.4c.38.41.36.54.35.66a.41.41,0,0,0,0,.19h0a.12.12,0,0,0,0,.12c.65.66.29,2.57.29,2.59l0,.08.06,0a3.69,3.69,0,0,0,2.06.5,8.4,8.4,0,0,0,1.86-.23l.14,0-.26-.38c-.12-.18-.28-.43-.48-.72l0-.05c-.29-.42-.84-1.24-1.17-1.68l0,0-.06,0-.11-.1a.5.5,0,0,0-.15-.15,1.68,1.68,0,0,1-.53-1,3.67,3.67,0,0,0-.54-2.26,13.23,13.23,0,0,1-.76-3.62,13.52,13.52,0,0,1-.17-3.39l0-.09a3.18,3.18,0,0,0,.53-2.47c-.08-.4.14-.57.56-.89v0l0,0c.64-.5,1.84-1.43,2.48-4.52.08-.39.16-.8.26-1.25.07-.29.13-.57.2-.85s.13-.49.19-.71a.13.13,0,0,1,.06-.05h0l0,0a1.76,1.76,0,0,1,.51,0l.16,0h.13l.08,0,.11,0,.12.05h0l.13.05.52.28,0,0,.14.08.06,0,.15.1.07.05.27.18.43.3.32.22.09.07.24.16.11.08.07,0,.45.29.15.09.08.05.26.15.21.11.24.13L22,28l.21.11.2.09.17.07.34.14.2.07.22.08.27.09h0l.3.09.33.08.34.08a42.44,42.44,0,0,0,9.27.95h0c0,.11,0,.23,0,.35a5.34,5.34,0,0,1-.15.89,13.48,13.48,0,0,0-.21,3.12,7.19,7.19,0,0,1-.19,2.31v0a2,2,0,0,0-.18,1.76l0,.17a17.94,17.94,0,0,1-1,5.16c-.38,1-.67,2,0,2.29s1.24.9,1.18,1.26v.07l0,0,0,0s0,0,0,0c.49.52-.14,1.88-.14,1.9l0,.07.07,0a2.45,2.45,0,0,0,.69.24h0l.1,0,.15,0h.72a10,10,0,0,0,1.66-.15l.11,0-.12-.27c0-.12-.13-.29-.23-.49l0,0c-.16-.33-.48-1-.67-1.35a.25.25,0,0,1,0-.07l0-.06,0,0-.12-.07h0c-.1-.06-1.16-.73-1.1-1.5a1.27,1.27,0,0,1,.17-.66.49.49,0,0,0,.08-.36.63.63,0,0,0-.19-.42.36.36,0,0,1-.11-.34c0-.08,0-.24.06-.46a19.69,19.69,0,0,1,.63-3.72,8.9,8.9,0,0,0,.47-1.22,8.79,8.79,0,0,0,.26-1v0c.15-.71.44-2,.78-3.16,0,.25.06.49.08.73a6.58,6.58,0,0,1,.08,2.34,2,2,0,0,0,0,1.78l.06.17a16.9,16.9,0,0,1-.34,5.2c-.26,1-.44,2,.25,2.29s1.35.91,1.34,1.28v.06l.06,0,.07,0h0c.56.53.09,1.9.09,1.92l0,.06.07,0a3.74,3.74,0,0,0,1.74.33,10,10,0,0,0,1.65-.15l.12,0-.16-.27-.28-.5,0,0c-.19-.33-.6-1-.83-1.37l0-.07,0,0h0l-.06,0c-.05-.06-.09-.08-.13-.07h0c-.24-.15-1.21-.78-1.23-1.49a1.3,1.3,0,0,1,.08-.66.47.47,0,0,0,0-.37.66.66,0,0,0-.23-.41.39.39,0,0,1-.15-.35v-.47a18.19,18.19,0,0,1,.2-3.74,10.43,10.43,0,0,0,.47-2.22v0a21.86,21.86,0,0,1,.91-5.07,15.41,15.41,0,0,0,1.12-4,3.23,3.23,0,0,1,.12-.59l0-.16h0v0c1.15-.57,1.76-1.47,2.32-3.43a4.66,4.66,0,0,0,.32-.8h0a5.67,5.67,0,0,0,.22-1.88c0-.27,0-.5,0-.71v-.14l0-.31-.09,0h.09a.76.76,0,0,0,0-.15,4.8,4.8,0,0,1,1-2.81c.53-.91,1-1.9,1.43-2.86a9.75,9.75,0,0,1,1.79-3.07.71.71,0,0,0,.14-.1,3.45,3.45,0,0,1,.66-.34,1.79,1.79,0,0,1,1-.11c.08.15.14.23.15.25a1.38,1.38,0,0,0,.24.28,4.6,4.6,0,0,0,2.57.81l.37,0c.19.08,2.39,1,2.71,1.23a.51.51,0,0,1,.14.34c.06.3.13.7.88.71l.63,0c.56,0,.79,0,.88-.08l0,0s0,0,0,0v-.07a1.43,1.43,0,0,0,.43-.11A1.15,1.15,0,0,0,60,14.7h0l0,0a.93.93,0,0,0,.2-.48.68.68,0,0,0,0-.14V14a2.67,2.67,0,0,1,.17-.57,1.06,1.06,0,0,0,.1-.5,3.11,3.11,0,0,0-.49-1.23,14.83,14.83,0,0,0-1.49-2,16.1,16.1,0,0,1-1.75-2.5,10.29,10.29,0,0,0-.6-.91C56.13,6.17,56,6,55.8,5.7l-.15-.22-.23-.32c-.17-.24-.36-.49-.56-.75h0l.11,0,0-.07a3.16,3.16,0,0,0-.54-.91l.33.19.3.19-.17-.3a2.21,2.21,0,0,0-.74-.75A3.56,3.56,0,0,0,54,.86L53.84.54l0,.34a2,2,0,0,1-.73,1.31l-.15.13h-.1a3.69,3.69,0,0,0-.15-2L52.54,0l0,.34a2,2,0,0,1-.72,1.31,4.78,4.78,0,0,0-.6.56,5.57,5.57,0,0,0-3.72,1,1,1,0,0,1-.39.21,3.26,3.26,0,0,0-1.57.7,3.92,3.92,0,0,0-.35.31,3.9,3.9,0,0,1-1.65,1.07,5.63,5.63,0,0,0-2.2,1.39l-.05,0a4.35,4.35,0,0,1-.4.29,7.17,7.17,0,0,0-1.42,1.14c-.22.25-.36.46-.48.62s-.32.46-.59.51a1.13,1.13,0,0,0-.86.69,1.28,1.28,0,0,1-.74.79l-.14.06h0a3.73,3.73,0,0,1-.44.14l-.77.17-.31.06a19.37,19.37,0,0,0-3.64,1.06,13.2,13.2,0,0,0-1.56.75l-.36.2c-2.17,1.29-7.32-.17-10.4-1.05l-1.63-.44a12.38,12.38,0,0,0-6.68.14,11.63,11.63,0,0,0-3.31,1.49h0c-.33.09-3.27,1-4.55,5.91a28.36,28.36,0,0,0-.49,8A27.19,27.19,0,0,1,2,35.56l-.1.36.25-.28A5.37,5.37,0,0,0,3,33.14a32.67,32.67,0,0,1-.8,6.49A23.56,23.56,0,0,1,0,45.28ZM6.2,32.58A50.46,50.46,0,0,1,4.81,22.46,18.44,18.44,0,0,0,6.57,26.6c.27.51.51.95.66,1.31a.51.51,0,0,0,.09.16A3.5,3.5,0,0,1,7,31.59c-.27.43-.53.8-.78,1.13C6.21,32.68,6.21,32.63,6.2,32.58Z"/></g></g></svg>