<svg xmlns="http://www.w3.org/2000/svg" viewBox="0 0 81.63 51.49"><defs><style>.cls-1{fill:#271e16;}</style></defs><title>perfil_rhino</title><g id="Layer_2" data-name="Layer 2"><g id="Layer_1-2" data-name="Layer 1"><path class="cls-1" d="M.09,31.14a5.28,5.28,0,0,0,.6,2.22s.1.09.12,0c.13-.25-.18-.91-.21-1.18A5,5,0,0,1,1,29.38c.36-.76.89-1.42,1.28-2.18a5.2,5.2,0,0,0,.49-1.42,9.1,9.1,0,0,1,.65,2.09c0,1.43-.53,1.59.31,3.09s-.53,4.28-1.31,7a4.9,4.9,0,0,0-.24,2.3c0-.14,0-.28,0-.42a2.84,2.84,0,0,0,.11.67,7.33,7.33,0,0,0,1.37,2.09,3.91,3.91,0,0,1,.59,1.17,4.12,4.12,0,0,1-.86,3.89.81.81,0,0,0-.22.8c0,.13.13.37.25.37h0s0,0,0,0l.14.08,0,0,.18.11h0l.2.1,0,0,.46.17h0l.22.06h0l.25.06H5l.24,0h0a4.28,4.28,0,0,0,.49.05h.68a.57.57,0,0,0,.15,0h0l.1,0h0l0,0s.07,0,.09,0h0a3.61,3.61,0,0,0,.34.28l.11.07.1.06.14.09.1.06.17.07.11.05.19.06a.45.45,0,0,0,.11,0,1,1,0,0,0,.3.05,3.81,3.81,0,0,0,1.78-.49s.05,0,.06,0,0,.05,0,0a1.86,1.86,0,0,0,.7.21h0c.07,0,.13-.09.2-.09s0-.1,0-.1h.24l.15,0h.08l.14,0,.09,0,.12,0,.09,0,.11,0,.09,0,.1-.06.08-.06.09-.09.06-.07a.83.83,0,0,0,.08-.12l0-.07q0-.1.09-.24s0-.05,0-.08h0a1.33,1.33,0,0,0-.08-.71A5.59,5.59,0,0,0,10.82,46a5.34,5.34,0,0,1-1.29-1.94,5.24,5.24,0,0,1,.58-4.38h0a7.62,7.62,0,0,1,.51-.78l.16-.18c7.12-2.91,5.83-6.83,5.63-7.34h0a8.29,8.29,0,0,0,2.64,3.26,5.14,5.14,0,0,1,.19,3.44,1.74,1.74,0,0,0-.11.18s0,0,0,0a3.85,3.85,0,0,0-.19,3.1s0,0,0,0a2.27,2.27,0,0,0,.3.63l.1.2a9.66,9.66,0,0,1,.56,3.6l-.07.11s0,0,0,0c-.38.32-2.08,1.89.13,3.29l.14.08h0l.11,0a2.69,2.69,0,0,0,.29.16l.13.06.28.12.12,0,.28.09.1,0,.27.06h.08L22,50h.37a1.6,1.6,0,0,0,.23,0h0l.22-.05h0l.21-.07h0a2.12,2.12,0,0,0,.73-.42h-.07s-.11,0-.11,0h0c.58.29.7.46,1,.56h.12l.2,0,.13,0,.16,0h.48l.13,0H26l.27-.07h0l.13,0,.06,0,.11,0,.07,0,.09,0,0,0,.15-.08.05,0,0,0,0,0,0,0h.05s0,0,0,0-.14.46.61.46h0a4.22,4.22,0,0,0,1.11-.39c.07,0,.13-.13.19-.16l.05,0,.11-.07,0,0a.3.3,0,0,0,.08-.08l0,0a.47.47,0,0,0,.06-.09,0,0,0,0,0,0,0,.65.65,0,0,0,0-.13l0,0s0-.07,0-.1v0s0-.06,0-.09,0,0,0-.06,0-.06,0-.09h0a.11.11,0,0,1,.05,0,.35.35,0,0,0-.07-.12A6.06,6.06,0,0,0,26.59,46c-1.29-.48-.77-1.59-1.71-3.27-.32-.58-.6-.79-.39-1.21a2.4,2.4,0,0,0,.35-.36s0-.05-.06-.05c.12-.13.26-.28.44-.45a4.06,4.06,0,0,0,.46-.55,2.09,2.09,0,0,0,.22-.2s0,0,0,0a8.86,8.86,0,0,0,1-2.57c.8.09,1.65.16,2.55.2,6.89.31,10.72-2.26,11.21-2.61,0,0,.07,0,.08,0a23.47,23.47,0,0,1,1,3.4h-.06a5,5,0,0,0,.23,2.84c.11.27.41.53.41.79h0s.07,0,.09.08l.52,4.16h0l0,.06h0l-.06.07,0,0-.07.11h0c-.42.59-1.31,2-1,3.1a.84.84,0,0,0,.06.14.74.74,0,0,0,0,.14h0l0,.06a1.24,1.24,0,0,0,.17.23,2.08,2.08,0,0,0,.21.21.46.46,0,0,0,.07.07l.13.1.08.05.11.07.09,0,.1,0,.09,0,.09,0h.66l.35,0h.83l.14,0,.16,0,.1,0,0,0h-.1s.64.2,1.15.34a6.86,6.86,0,0,0,.7.19h0a2.52,2.52,0,0,0,.37,0h.08a2.68,2.68,0,0,0,.65,0l.06,0a1.77,1.77,0,0,0,.46-.17l0,0a.83.83,0,0,0,.16-.12h0a.57.57,0,0,0,.13-.14l0,0a1.27,1.27,0,0,0,.11-.13h.06s-.05,0-.05,0h0s0,0,0-.06,0,0,.06,0,0,0,0,0h.09s0,0,0,0,.07,0,.12,0h.29l.14,0H50l.15,0,.07,0,.2,0,.06,0,.19-.08,0,0a1.22,1.22,0,0,0,.19-.12l.09-.09s0,0,0,0a.36.36,0,0,0,0-.09.13.13,0,0,0,0-.06.19.19,0,0,0,0-.08s0,0,0-.08,0,0,0,0H51l.05,0,0,0v0c.29,0,.58.11.84.11h0s.07-.16.11-.16.12-.15.18-.15h.07l.2,0h0a.59.59,0,0,1,.16.06l.06,0h0l0,0h0a4.65,4.65,0,0,0,1.65.51h.7l.24,0,.07,0,.15,0,.07,0,.11,0,0,0,.12,0h0s.08,0,.09,0v0h0a1.4,1.4,0,0,0,.66.29s0,.05,0,.05.15.11.22.11h0c.07,0,.15-.08.22-.09s0-.09,0-.09l.21,0h0l.2-.05,0,0,.17-.07h0l.14-.11,0,0,.1-.15a1.11,1.11,0,0,0,.1-.29l0-.1c0-.06,0-.1,0-.17v-.09s0,0,0-.1,0,.05,0,0a1.85,1.85,0,0,1,0,.23h0a4.49,4.49,0,0,0-2.23-2.7,6.43,6.43,0,0,1,0-2.8l.06,0s0,0,0-.06c0-.2.1-.4.16-.61l0,0s0,0,0,0a16.2,16.2,0,0,1,1.14-2.74l.08-.06s0,0,0,0c.31-.61.65-1.19,1-1.72a1.21,1.21,0,0,0,.21-.24s0,0,0,0l.52-.81a5.73,5.73,0,0,0,1.16-2.47h0s0,0,0,0,.06-.28.1-.42l0-.13c0-.09,0-.19.08-.28l0-.13a2.21,2.21,0,0,0,0-.25l0-.1a1.67,1.67,0,0,0,.06-.29h0c0-.1,0-.18.05-.26v-.06a.5.5,0,0,0,0-.12c.31,0,.79-.27,1.33-1.25a8.41,8.41,0,0,1,4.06,2.55c1.71,2,2.19,1.19,4,1.58s3.22.63,4-1c0,0,0,0,0,0,.25,0,2.75,0,3.42-1.63a1.52,1.52,0,0,0,.11-1.07s0,0,0-.06h0a.25.25,0,0,0,0-.07l0-.08,0-.07a.25.25,0,0,0,0-.07l-.07-.11,0-.08,0-.08a.56.56,0,0,0,0-.08l0-.08a.36.36,0,0,0,0-.09l0-.09a.19.19,0,0,1,0-.08.5.5,0,0,1,0-.13s0,0,0-.06a1,1,0,0,1,0-.2l0,0a2.55,2.55,0,0,1,.11-1s.63-.27.05-1.54h.19a2.27,2.27,0,0,1-.62.79l-.06,0s0,0,0,0a4.81,4.81,0,0,0,.83-.71s0,.13,0,.12.06.13.13.13h0c.85-1.16,4.89-5.53,3.71-11.64,0-.06,0-.39,0-.44l0,0,0-.09,0,0,0-.06h0l-.06,0h0l0,0h0l-.06.05,0,0a.62.62,0,0,0-.08.12.08.08,0,0,0,0,0s-.09.13-.11.18a1.14,1.14,0,0,0-.11.11v0A11.59,11.59,0,0,1,80.5,18c-.19,1.47-2.66,5.88-6.06,5.88h0a1.22,1.22,0,0,0,0-.33.67.67,0,0,0-.76-.5.54.54,0,0,0,0-.29c0-.09-.1-.14-.25-.14a1.38,1.38,0,0,1-1,.31,1.76,1.76,0,0,0,.88-.21h.17a9.12,9.12,0,0,0,2-4.48c0-.12,0-.39.06-.5a.25.25,0,0,1,0-.09c0-.09,0-.19,0-.27s0-.09,0-.11,0-.37,0-.37h0s0-.06,0-.13,0,.07,0,.06l0-.17s0,0,0,0,.06-.22.06-.3h.1s.19-.07.19-.1h0v-.07h0s-.23,0-.24,0h-.22l0,0h0l0,0h0s0,0,0,0h0a.15.15,0,0,0-.05.06l0,0,0,0,0,0h0c-.15.25-.34.63-.52,1a5.55,5.55,0,0,1-3.47,2.77H71.1a.82.82,0,0,0,0-.36.63.63,0,0,0-.56-.49s-.62-.32-1.11-1.85c-.07-.22-.13-.46-.19-.73-.38-1.62.11-3.41-.49-5.38a6.58,6.58,0,0,0-.84-1.74c.12-.8.88-1.16,2.33-2.48,1.62-1.47.56-6.49.56-6.49-.18.52-.89,1.14-2.76,2.47A3.44,3.44,0,0,0,66.56,7a2.65,2.65,0,0,1,0,1.12A6,6,0,0,0,62.94,7s-1.17-.13-2.79-2.25A6.59,6.59,0,0,0,57.59,2.9l0,0,0,0c-.26-.33-2.06-2.56-4-2.84a6.55,6.55,0,0,1,.13,1.86s0,0,0,0h0A10.18,10.18,0,0,0,47,3.43a0,0,0,0,0,0,0l-.09.05a16.44,16.44,0,0,1-2.43-.71c-1.23-.46-3-.34-7.16,1.43s-6.83-.08-8.75-.8-6.86-.75-8.38-1.2C12.75-.06,2.37,3.56,1.78,14c-.07,1.34-.1,2.54-.1,3.62-.7,1.09-.39,2.62-.31,3.84a12,12,0,0,1-.81,5.75A6.81,6.81,0,0,0,.09,31.14ZM48.62,46.26a9.18,9.18,0,0,1,.26-4.95A1.36,1.36,0,0,0,49,41s0,0,0,0l.07-.25c.11-.39.21-.73.31-1a1.84,1.84,0,0,0,.09-.25s0,0,0,0c.41-1.29.62-1.77.71-2.14a1.18,1.18,0,0,0,.1-.38h0s0,0,0-.06c.16,0,.52-.07,1-.17a16.52,16.52,0,0,0-.11,1.94s-.06,0-.06,0l.06.26c0,1.82.14,3.73-.24,4.51a4.63,4.63,0,0,0-.42,2.22l-.14.22s0,0,0,0l-.14.18h0a6.59,6.59,0,0,0-.68,1.17l-.26-.16A1.5,1.5,0,0,1,48.62,46.26ZM76.61,29h0Zm-31.25,22h0l.06,0Zm-4.66-16h0v0Z"/></g></g></svg>