<svg xmlns="http://www.w3.org/2000/svg" viewBox="0 0 60.81 32.57"><defs><style>.cls-1{fill:#382e26;}</style></defs><title>tapir_silueta01</title><g id="Layer_2" data-name="Layer 2"><g id="Layer_1-2" data-name="Layer 1"><path class="cls-1" d="M.33,8c-.1.22-.33.83-.33.83l.2,0L0,9.35s.24-.42.2-.3a7.07,7.07,0,0,0-.15.7l.09-.14-.06.56H.2a2.3,2.3,0,0,0,0,.87l.15-.12v.49l.16-.19-.12.46.22,0c-.31.41-.16.66-.16.66s.28-.22.28-.22l-.09.54.13-.08L.68,13,1,12.91a4.07,4.07,0,0,0-.1.71l.19-.09L1,13.85l.24-.1-.14.32.38-.19-.18.33.24-.08-.24.29.27,0,0,.3.2,0L1.71,15l.3.16-.13.18a6.17,6.17,0,0,1,.87,2.24,6.35,6.35,0,0,1-1.37,3.37,1.91,1.91,0,0,0-.56,1.65,6.23,6.23,0,0,1,.24,1.49c0,.88.07.41.09.75s0,1.6,0,1.6h.11l-.17.37.12-.06-.11.39.19.12-.08.2A9,9,0,0,1,1,29.15c-.09.5,1,.89,1,.89a8.06,8.06,0,0,0,1.27.35c.4.08.28-.74.28-.74a3.27,3.27,0,0,0,.32.27,2.81,2.81,0,0,0,.72.28c.67.54,1.34.4,1.41.18s-.53-.82-1.13-1.29-1-.64-.92-1.09A17.56,17.56,0,0,0,4,25.76c0-.35.17-.42.14-.53s-.08-.16.17-.48a6.8,6.8,0,0,0,.52-.91s0,.14.31,1,0,.93,0,.93l.12-.06,0,.18.15-.15,0,.4.11-.06-.09.3.15-.05-.08.26.11,0,0,.49.12,0-.06.47s0-.16.13,0a1.93,1.93,0,0,1,.14.91,4.91,4.91,0,0,0,0,.77c.17.45,1.08.57,1.08.57a1.81,1.81,0,0,0,.5.41c.06.12,1.31.56,1.51.38s-.36-1.27-.36-1.27a1.52,1.52,0,0,0,2.25-.06s-.17-.53-1.42-.95-1.09-.7-1.24-2.33a5.28,5.28,0,0,1,.33-2.68c.14-.5.53-1.3.74-2.1A19.11,19.11,0,0,1,11,17.66c.24-.32.49-.17.49-.17l-.07.14.45,0-.12.07h.3l-.24.16h.41l-.08.06h.35l-.07.1L13,18l-.16.06h.4l-.13.12.44,0-.11.07.48,0-.15.1.47,0-.1.12.43-.06,0,.14H15l-.14.11.58,0-.09.12.4-.06-.06.11h.46l-.11.09h.53l-.11.15.61-.13-.05.15.5-.08-.07.14.57-.08v.11l.29,0,0,.12.47-.09-.13.14.35-.07L19,19.4l.24-.06.14.15.42-.11.05.06.34-.14,0,.14a8.66,8.66,0,0,0,1-.2l-.23.23a3.28,3.28,0,0,1,.71-.09,1.49,1.49,0,0,0,.67-.09l0,.18.31-.12,0,.18.42-.23v.22l.51-.18v.13a2.64,2.64,0,0,1,.68-.09,16.4,16.4,0,0,1,1.69.08l0,.15.28-.09.08.15.33-.2.05.17a1.2,1.2,0,0,1,.6-.14c.26.05.12.68.12,1.05a1,1,0,0,0,.4.66h-.11l.14.47-.11.06.11.27a2.42,2.42,0,0,0,.07.89c.14.47.12.93.21,1s0,.29,0,.29l.13.16-.28,0a.75.75,0,0,1,.24.33l-.15.26H28l-.18.26.26-.05-.08.17a.18.18,0,0,1,0,.26.42.42,0,0,1-.18.45.25.25,0,0,1,.34.17c-.17.25.13.62.06.83a3.55,3.55,0,0,0-.12.68l.16-.06-.26.53.28-.18s0-.19-.06.39a7.52,7.52,0,0,0-.19,1.94,8.32,8.32,0,0,1,.07,1.19c.06.62.3.82.46.65a2,2,0,0,0,.29-.68,1.23,1.23,0,0,0,.5.59.63.63,0,0,0,.45.39c.37.09,1.71.24,1.38-.1s-.2-.62-.2-.62a3.53,3.53,0,0,0,1,.57c.57.23,1.43.36.92-.51a8.13,8.13,0,0,0-1.41-1.61,6.38,6.38,0,0,1-.25-3.7c.31-1.09.89-3.86.89-3.86a7.77,7.77,0,0,0,.39.88l-.1-.06.18.23H32.4l.31.25-.12.06a1.25,1.25,0,0,1,.27.34c.16.24-.06.28.16.54a1.7,1.7,0,0,1,.28.67l-.1,0,.22.18c0,.44.08.8.08.8s.09-.2.18.15a.92.92,0,0,1-.08.64l.22-.06v.42l.15,0-.15.33.22-.06c.06.15.23.88.32,1.2s.18.81.18.81l.14-.15.07.41,0-.09.09.36.09-.07.06.36s-.07-.11.12.07a1.72,1.72,0,0,1,.32.65c.7.88.88.22.88.22.27.48.78.42,1.39.51s.15-.76.15-.76c.61.7,1.42.34,2,.37s-.61-1.12-1.46-1.42-1.3-1.58-1.3-1.58a10.28,10.28,0,0,1-.54-5.71c.12-1.12,0-3.57,0-3.57a7.33,7.33,0,0,1,1.09-1.27c.6-.55.6-.88,1-1.33s.12-.58.81-.7.85-.88,1.24-1.27.61-.18.61-.18l-.12-.21.51-.19-.18-.24.58,0-.1-.36c.43.09.82-.36.82-.36l-.12-.22.88-.3,0-.12.54-.24a3.78,3.78,0,0,0,.91-.42,11.33,11.33,0,0,0,2.66.42,15.13,15.13,0,0,0,6.78-2.39s1.78-1.36,2.72-.92,2.74.12,1.87-.64S58,8,57.77,7.67a1.15,1.15,0,0,0-.18-1,.42.42,0,0,0-.3.19,1.44,1.44,0,0,0-.2-.44,13.6,13.6,0,0,1,1.39-.33,1.16,1.16,0,0,0,.41-.1l0,.13L59,6a8.23,8.23,0,0,1,1.27-.65c.18,0,.69-.7.5-1s-.14-.8-1.67-.75a10.69,10.69,0,0,1-2.87-.25,6.35,6.35,0,0,0-1.33-.16c-.74,0-3.3-.27-3.72-.38a41.48,41.48,0,0,0-4.66-.48s-2.65,0-2.92.07a1.32,1.32,0,0,0-1.51-.63h-.24l0,.06-.2,0,.06.09-.26.07.08.05-.27.06.12,0-.2.13.08.06-.29.3-.12-.1-.08-.07v.17l-.31-.12,0,.09L40,2.35l0,.11-.53-.12.08.1-.79-.15.14.14-.52-.08.16.11-.64-.06.09.13a2.6,2.6,0,0,1-.88,0l.16.1h-.64l.09.09-.54-.08.12.15s-1-.24-1.12-.13l.16.12s-1.1,0-1.39,0A46.2,46.2,0,0,1,27,2.26a12.43,12.43,0,0,1-3.66-1.1l.06.18-.38-.29.16.2L22.67.94l.21.28L22.34.87l.13.23L21.85.81,22,1A5.57,5.57,0,0,0,20.57.52,40.3,40.3,0,0,0,15.67,0,27.92,27.92,0,0,0,8.56.93a8,8,0,0,0-2.48.92S4.39,3.08,3.92,3.36A7.44,7.44,0,0,0,1,6.4l.07.08-.36.27.15,0Z"/></g></g></svg>
