<svg xmlns="http://www.w3.org/2000/svg" viewBox="0 0 58.24 39.74"><defs><style>.cls-1{fill:#9b9838;}</style></defs><title>tapir_02</title><g id="Layer_2" data-name="Layer 2"><g id="Layer_1-2" data-name="Layer 1"><path class="cls-1" d="M6.4,37.15s-.22,1.48-1.51.12a5.3,5.3,0,0,0-.34-.71,8.78,8.78,0,0,1-.38-2.65c0-.84-.39-2.81-.45-5.15s-.1-1.87.69-2.73,2.39-2.67,2.37-3.16a37.94,37.94,0,0,0-3.54-3.25c-.3,0-.88.24-.78-.77,0,0-1.91-1.68-2.45-5.82,0,0-.29-3.12,3.27-7a17.27,17.27,0,0,1,13.39-6,27.19,27.19,0,0,1,9.41,1.47c.62.16,2.81,1.51,7.47-.28l.41.12V1.19l.22.12-.06-.16s.42.28.42.22A2.14,2.14,0,0,0,34.42,1l.3.26L34.64.88l.2.27,0-.35.3.23.06-.27L35.4,1l0-.34.28.26.18-.38.45.2,0-.22.3.16,0-.26.34.26,0-.32.24.24L37.23.2l.36.18,0-.24.29.24V.12l.32.3.06-.3.34.24L38.7.12,39,.38,39.1.06l.34.34L39.52,0l.24.24,0-.28L40,.3,40.11,0l.24.3.14-.3.22.34L40.77.1l.12.24.36-.28-.18.28.48-.16L41.41.4,42,.26l-.25.32.51-.22-.2.3.46-.22L42.26.7l.48-.14-.2.24.52-.08-.18.2.7,0-.3.19h.48l-.18.2.55,0-.22.24.52-.08-.2.16.42,0-.2.18.46,0-.18.2.4,0L45,2.05l.38,0-.22.24a.8.8,0,0,0,.6-.3c.17-.28.77-1.29,1.71-.42,0,0,.73.34.32,2.29h.29l-.18.2h.38l-.14.14.32,0-.22.2.28.06-.16.16h.3l-.18.18.36,0L48.67,5a.71.71,0,0,1,.3.31,8,8,0,0,0,2.59,2.67,16.87,16.87,0,0,1,2.94,2,14.55,14.55,0,0,0,1.2.84A7.59,7.59,0,0,1,58.2,16a3.12,3.12,0,0,1,0,1.05.86.86,0,0,1-1.07.62,1.8,1.8,0,0,1-.48,0,1.42,1.42,0,0,1-.87.08,3.86,3.86,0,0,1-2.17.16c-1-.3-.76.38-3.94-.08a21.41,21.41,0,0,1-4.76-1.13s-.46.14-1.29.43-1.42.28-1.68.62A5.35,5.35,0,0,1,40,19.5,8,8,0,0,0,37.53,22c-.2.3-1.81,4.56-2.31,6.21s-.78,7.28,0,8.3,1.51.83,1.51.83,1.63,1,.76,1.08a8.3,8.3,0,0,1-2.79.06s.2.75-.85.53-1-.41-1-.85a13.29,13.29,0,0,1-.4-2.59c0-1.15-.26-1.31-.26-1.31a8.34,8.34,0,0,1-1.91,2.27c-.93.59-1.55.63-1.57.2s-.16-1,.52-1.4c0,0-.94.24-1.16.6a.91.91,0,0,1-.31-1.39c.61-.92.67-.8.67-.8s-1.19.28-.69-.32,1.87-2.05,2.22-2.56a1.47,1.47,0,0,0,.12-1.62s-.61-1.05-.95-1.53-3.4-4-3.52-4.3l-.88.24-.32.28,0-.2-.49.26,0-.16-.73.26.12-.16-.46.12s-.4,0-.8,0l-.49.18.06-.18s-1.54.08-2.75,0h-.34l0-.1-.48.1.08-.16-.53.2.18-.22-.42.14,0-.2-.36.16.06-.16-.3.06-.06-.12-.36.06.06-.18-.3.12.14-.16-.34.12.16-.2-.35.06.06-.1-.46,0,.22-.1-.36,0s-.54-.47-.78-.49a3.83,3.83,0,0,1-.85-.34s-.42.26-.46.47.08.24-.22.34a3.62,3.62,0,0,1,0,1.5s.08.41.26,1.75a25.11,25.11,0,0,0,1.05,4.32,8.63,8.63,0,0,0,1.06,2.78c.83,1.22,1.73,2.73,2.92,3.34,0,0,.56.1,1.6,1.34a1.47,1.47,0,0,1-1.14-.16s.72.83.34,1a3,3,0,0,1-1.91-.26,2.26,2.26,0,0,0-.7-.33s-.26,1.35-1,1.13-.58-.6-.84-.95a6.79,6.79,0,0,1-.69-1.7,8.49,8.49,0,0,0-1.42-2.44,3.85,3.85,0,0,1-1.13-2.21,2.91,2.91,0,0,1-.9-1.63,16.33,16.33,0,0,0-1-3.19s-2.09,2.11-2.13,3.68-.46,3.45.69,4.28l1.8,1.3-.5.19s.44.68.26.8a12.1,12.1,0,0,1-2.31-.46Z"/></g></g></svg>