<svg xmlns="http://www.w3.org/2000/svg" viewBox="0 0 57.54 38.29"><defs><style>.cls-1{fill:#382e26;}</style></defs><title>tapir_silueta03</title><g id="Layer_2" data-name="Layer 2"><g id="Layer_1-2" data-name="Layer 1"><path class="cls-1" d="M38.6,36.51c-1.19-.54-1.17-2.83-1.17-2.83-.13-.47.27-9.34.44-10.64s.69-1.14,1-1.44a1.69,1.69,0,0,1,1.26-.69A15.8,15.8,0,0,0,43.38,20c1.88-.6,1.74-1,1.74-1a1.26,1.26,0,0,0,.94.24c.53-.11.37-.67,1.27.37a17.19,17.19,0,0,0,3.28,2.63c.62.37,1.75.9,1.91,1a7.43,7.43,0,0,0,1.13.58,1.57,1.57,0,0,1,.55.29.48.48,0,0,0,.55-.2c.2-.32.54-.2.81,0a6.17,6.17,0,0,0,.87.49c1,.29,1-1.45,1-1.45,0-1.95.44-1.58-1-5.17,0,0-.93-3-1.55-5.63s-.43-3.29-.43-3.29S55.81,6.39,53,6c0,0-1.68-4.58-14.18-3.65,0,0-5.82.31-9.47-.81,0,0-8.24-1.73-10.77-1.55S6.9.63,2,8.12c0,0-2.91,4.21-1.73,7.49S2,18.9,2.2,20.2c0,0,.74.18.68-1.3a5.74,5.74,0,0,1,3.84,3.59,8,8,0,0,1-1.24,5.38s-1,.62-.31,2.42,1.92,4.08,2.54,5.57S8,37.9,9,38.09s2.85.49,2-.44c0,0,3.1.93,1.73-.49a5.44,5.44,0,0,1-1.44-.85c-.62-.53-2.39-3.09-1.73-5.2S11,27,11,27s4,4.21,4.66,4.95c0,0,1.65,2.27,1.53.82,0,0,1.11,1.37,1,.13A5,5,0,0,0,17.39,30c-.83-1.53-2.56-3-2.69-3.88s2.44-3.22,2.44-4.09l.54.82.16-.28.41.08s1,.12,1.81.31A33.6,33.6,0,0,0,26.7,23a5.84,5.84,0,0,0,2.55-.74s.08,0,.09,0c.49.92-.06,3.6-.07,4.32s-.14,1.59-.19,2.49a31.63,31.63,0,0,0,.19,3.77c.11.89-.12,1.52,0,2.14a2,2,0,0,0,.58,1c.15.22.65.33,1,.53a6.24,6.24,0,0,0,1.47.58c.75.22.81-.26.81-.26,0-.17-.3-.65-.3-.65a6.63,6.63,0,0,0,1.2.47c.41.07.89.09,1-.1s-.63-.77-1-1-.91-.28-1.45-.7-.56-2-.73-2.82a12.14,12.14,0,0,1,.68-3.7c.22-.74.56-1.79.56-1.79a4,4,0,0,1,.34,1.17c.12.79.48,1.64.85,3.22a25.33,25.33,0,0,1,.77,3.86c.14,1.47.25,2.12.92,2.8a.87.87,0,0,0,1.25.14c.34.6,2.12.73,2.31.59C39.62,37.7,39.42,37.15,38.6,36.51Z"/></g></g></svg>
