<svg xmlns="http://www.w3.org/2000/svg" viewBox="0 0 64.85 37.63"><defs><style>.cls-1{fill:#382e26;}.cls-2{fill:#dfdbda;}</style></defs><title>tapir_silueta02_1</title><g id="Layer_2" data-name="Layer 2"><g id="Layer_1-2" data-name="Layer 1"><path class="cls-1" d="M18.23,34.88c-.42-.33-.78-3.25-1.24-4.41s-.58-5.58-.61-6.3.45-2,.36-2.2a1,1,0,0,0,.14.13c-2-3.08-5.44-7.68-8.9-8.5A13.76,13.76,0,0,1,1.52,10,6.26,6.26,0,0,0,.93,13.5v.22c-.22.84-.57,2.22-.72,2.72-.21.74-.39,1.32.11,1.67.67.46,1.43-.94,1.7-1.56H2a1.07,1.07,0,0,0,.31.06s1.88,1.95,2.34,2a11,11,0,0,1,.61,3.15c-.1,1-.48,1-1,1.95s-1.91,1.94-1.78,3.05A23.21,23.21,0,0,1,2,32.32c-.32,1.23-.42,3,0,3.24a3.31,3.31,0,0,0,1.1.39S5.7,36.7,5,35.66c0,0,1.59.74,1.75,0S5.25,34.2,5.25,34.2a.93.93,0,0,1-.42-1,8.87,8.87,0,0,1,1-2.69c.64-.94,3.56-6.49,4.64-7.4a5.35,5.35,0,0,1,.9,2.53c.23,1.69.62,3.51,1.53,4.54s2.11,4.71,1.82,6,.13.68,1,1,2.4.82,2-.16c0,0,2.47.59,1.95-.45A4.26,4.26,0,0,0,18.23,34.88Z"/><path class="cls-1" d="M64.75,26.7a22.65,22.65,0,0,0-1.33-5.45c-1.26-3.79-2-4.15-2.36-4.44s-2.15-2.83-2.6-3.25-1-.68-1-1.52a1.58,1.58,0,0,0-1-2,1.37,1.37,0,0,0-1.56.39S49.15,5.48,42.59,4L38,3.22h0a26.69,26.69,0,0,0-1.45,3.27c-1.35,3.55-1.4,7.71-1.67,10.43a17.34,17.34,0,0,1-2.1,5.23h0a3.62,3.62,0,0,0,.81,2,5.51,5.51,0,0,0,.75,1.53A13.25,13.25,0,0,1,36,28.65c.39,1.17.62,1.72.36,1.78s-4.16.75-3.28,1.82a2,2,0,0,0-1.23,1.59s0,.39.52.42c0,0-.65.88.48,1.07a5.86,5.86,0,0,0,1.5-.39A20.51,20.51,0,0,1,37,33.84s.13,2.6.68,2.89a7.22,7.22,0,0,0,1.79.32c.29.1,2.5.75,1.88-.16a1.15,1.15,0,0,0,.68.29c.42,0,.07-.55.07-.55a2.94,2.94,0,0,0,1,.49c.29,0-.07-.62-.39-.94a3.46,3.46,0,0,0-1-.68c-.56-.33-1.43-.72-1.59-3.25,0,0,1.94-3,1.29-4.54a36.27,36.27,0,0,0,1.33-4,5.87,5.87,0,0,1,.69-.49c.32-.2,1.36-1.1,1.36-1.1a3.41,3.41,0,0,0,.94-.07,3.72,3.72,0,0,1,1-.06c1,.09,1.27-.33,1.27-.33.58.07.65-.36.65-.36.26.65,1.56.39,1.56.39.39-.35.52.07.52.07a17.73,17.73,0,0,0,3.6,3.44,6.25,6.25,0,0,1,1.78,1.46,1.13,1.13,0,0,0,1.07.55c.2,0,.91,0,1.46,1.2a4.79,4.79,0,0,0,2.24,2.11c.55.26.07-1.88.07-1.88a3.15,3.15,0,0,1,.68,1.91c0,1.14.26,2.6.71,2.82s1.46,1,2.11-.52S64.79,27.77,64.75,26.7Z"/><path class="cls-2" d="M35.07,2.73c-.65-.13-5.42-1.08-6.56-1.43S21.7-1.14,16.05.84A49.06,49.06,0,0,0,4.76,6.26,10.15,10.15,0,0,0,1.52,10,13.76,13.76,0,0,0,8,13.6c3.46.82,6.92,5.42,8.9,8.51.63.52,3.46,2.28,12.22.67,0,0,3.1-.92,3.64-.63a17.34,17.34,0,0,0,2.1-5.23c.27-2.72.32-6.88,1.67-10.43A26.69,26.69,0,0,1,38,3.22Z"/></g></g></svg>
