<svg xmlns="http://www.w3.org/2000/svg" viewBox="0 0 56.82 38.78"><defs><style>.cls-1{fill:#382e26;}.cls-2{fill:#8d837e;}</style></defs><title>tapir_silueta02</title><g id="Layer_2" data-name="Layer 2"><g id="Layer_1-2" data-name="Layer 1"><path class="cls-1" d="M6.24,36.24S6,37.7,4.77,36.36a6.09,6.09,0,0,0-.33-.68,8.45,8.45,0,0,1-.38-2.59c0-.83-.37-2.75-.43-5s-.09-1.83.67-2.67,2.33-2.61,2.31-3.08a36.08,36.08,0,0,0-3.45-3.18c-.29,0-.86.24-.76-.74,0,0-1.87-1.65-2.39-5.69,0,0-.28-3,3.19-6.81A16.86,16.86,0,0,1,16.26.06a26.38,26.38,0,0,1,9.18,1.43c.61.16,2.75,1.47,7.3-.27l.39.11V1.16l.22.11-.06-.15s.41.27.41.21A2,2,0,0,0,33.58,1l.3.26L33.8.86l.19.26,0-.34.3.22.06-.25.21.21,0-.33.28.25L35,.51l.44.2,0-.22.29.16,0-.26L36,.65l0-.32.24.24L36.33.2l.35.17,0-.23L37,.37V.12l.32.29.06-.29.33.23.06-.23L38,.37l.12-.31.33.33L38.56,0l.24.23,0-.27.2.29L39.13,0l.24.29L39.5,0l.22.33L39.78.1l.12.23.35-.27-.18.27.47-.15-.13.21.53-.14L40.7.57l.49-.22L41,.65l.45-.22-.22.26L41.7.55l-.19.23L42,.71,41.84.9l.69,0-.3.18h.47l-.17.2.52,0-.21.24.51-.08-.2.16.41,0-.19.18.45,0-.18.19.4,0L43.88,2l.37,0L44,2.2s.43,0,.58-.3.75-1.25,1.67-.41c0,0,.71.33.31,2.24h.28l-.18.19h.38l-.14.14.31,0-.21.2.27,0-.16.16h.3l-.18.18.35,0-.13.13s.13,0,.29.3a7.88,7.88,0,0,0,2.53,2.61,16,16,0,0,1,2.86,1.94c.32.27.87.61,1.18.82a7.42,7.42,0,0,1,2.43,5.06s.1.87,0,1a.83.83,0,0,1-1,.61,1.7,1.7,0,0,1-.47,0,1.33,1.33,0,0,1-.84.08,3.74,3.74,0,0,1-2.12.15c-1-.29-.74.38-3.84-.07a21.07,21.07,0,0,1-4.65-1.1l-1.26.41c-.8.27-1.39.27-1.64.61A5,5,0,0,1,39,19a7.91,7.91,0,0,0-2.39,2.46c-.19.29-1.76,4.45-2.25,6.06s-.77,7.1,0,8.1,1.47.8,1.47.8,1.59,1,.74,1.06a8.15,8.15,0,0,1-2.72.06s.19.72-.83.51-1-.39-1-.83a12.8,12.8,0,0,1-.39-2.53c0-1.11-.25-1.27-.25-1.27a8.21,8.21,0,0,1-1.87,2.22c-.9.56-1.51.6-1.53.19a1.23,1.23,0,0,1,.51-1.37s-.92.23-1.14.59a.89.89,0,0,1-.29-1.36c.59-.9.65-.78.65-.78s-1.16.27-.67-.31,1.82-2,2.16-2.5a1.44,1.44,0,0,0,.12-1.58s-.59-1-.93-1.49-3.31-3.89-3.43-4.2l-.86.23-.31.28,0-.2-.48.26,0-.16-.7.26.12-.16-.46.12-.78,0-.47.17.06-.17s-1.51.07-2.69,0h-.33l0-.1-.47.1.08-.16-.51.19.17-.21-.41.14,0-.2-.35.16.06-.16-.3.06-.06-.12-.35.06.06-.18-.3.12.14-.16-.33.12.15-.19-.33.05.06-.09-.45,0,.21-.1-.35,0a2.5,2.5,0,0,0-.76-.47,3.67,3.67,0,0,1-.83-.33s-.41.25-.45.45.08.23-.21.33a3.66,3.66,0,0,1,0,1.47s.07.39.25,1.71a26.29,26.29,0,0,0,1,4.21,8.38,8.38,0,0,0,1,2.71c.8,1.2,1.69,2.67,2.84,3.26,0,0,.55.09,1.57,1.31a1.4,1.4,0,0,1-1.11-.16s.7.81.33.94A2.94,2.94,0,0,1,16.7,38a2.3,2.3,0,0,0-.69-.31s-.26,1.31-.94,1.09-.57-.58-.83-.92a6.31,6.31,0,0,1-.66-1.66,8.12,8.12,0,0,0-1.4-2.38,3.74,3.74,0,0,1-1.09-2.15,2.88,2.88,0,0,1-.89-1.59,15.92,15.92,0,0,0-1-3.12s-2,2.06-2.08,3.59-.45,3.37.67,4.17L9.58,36l-.49.18s.43.66.25.78a11.47,11.47,0,0,1-2.25-.45Z"/><path class="cls-2" d="M47.62,4.71l-.35,0,.18-.18h-.3l.16-.16-.27,0,.21-.2-.31,0,.14-.14H46.7l.18-.19H46.7l-.18,0-.23-.14.14-.1L46,3.34l.33-.11-.68-.12L45.83,3l-.52,0,.24-.19-.49,0,.27-.21-.47.12h0l.24-.23-.46.1,0,0,.26-.23-.54,0,.17-.18L44,2.2h0L44.25,2l-.37,0L44,1.86l-.4,0,.18-.19-.45,0,.19-.18-.41,0,.2-.16-.51.08.21-.24-.52,0,.17-.2h-.47l.3-.18-.69,0L42,.71l-.51.07L41.7.55l-.47.14.22-.26L41,.65l.19-.3L40.7.57l.24-.32-.53.14.13-.21-.47.15.18-.27L39.9.33,39.78.1l-.06.27L39.5,0l-.13.29L39.13,0,39,.29,38.78,0l0,.27L38.56,0l-.08.35L38.15.06,38,.37,37.76.12,37.7.35,37.37.12l-.06.29L37,.12V.37L36.72.14l0,.23L36.33.2l-.12.37L36,.33l0,.32L35.68.39l0,.26L35.37.49l0,.22L35,.51l-.17.37L34.5.63l0,.33L34.33.75,34.27,1,34,.78l0,.34L33.8.86l.08.4L33.58,1a2,2,0,0,1,.12.33c0,.06-.41-.21-.41-.21l.06.15-.22-.11v.17l-.39-.11c-.61.23-1.17.4-1.69.54a23.16,23.16,0,0,0,2.6.1l.8-.09.12-.19.66.14.18-.14,1,.14.48-.14h.32l.5.14h1.14l.56.28.66.14a1,1,0,0,1,.6.06,2.44,2.44,0,0,0,.66.18l.74.08.32.14.52.36s-.2,0,.62.28.75.22.74.22a1.59,1.59,0,0,0,.46.32,1.68,1.68,0,0,0,.54.18l.58.14v.32l.28.1c.2.08.56.26.56.26l.3.1.26,0,.33,0a.34.34,0,0,0-.09-.06Z"/></g></g></svg>
