<svg xmlns="http://www.w3.org/2000/svg" viewBox="0 0 22.67 22.67"><defs><style>.cls-1{fill:#9b9838;}.cls-2{fill:#fff;}</style></defs><title>food_semilla</title><g id="Layer_2" data-name="Layer 2"><g id="Layer_1-2" data-name="Layer 1"><path id="path13404" class="cls-1" d="M22.67,11.33A11.34,11.34,0,1,1,11.33,0,11.34,11.34,0,0,1,22.67,11.33Z"/><path class="cls-2" d="M9.36,16.35c.52.13,1.29-.51,1.45-1.26s-.24-1.61-.78-1.71S8.66,14.2,8.61,15a1.51,1.51,0,0,0,.3,1A.9.9,0,0,0,9.36,16.35Z"/><path class="cls-2" d="M6.89,15.45c.47-.29.53-1.28.1-1.92s-1.33-.94-1.78-.62-.35,1.56.2,2.15a1.46,1.46,0,0,0,.93.48A.87.87,0,0,0,6.89,15.45Z"/><path class="cls-2" d="M10,12.86a1,1,0,0,0,.29-.23c.37-.45.12-1.34-.33-1.86s-1.18-1-1.78-.62A1.46,1.46,0,0,0,7.91,12a1.64,1.64,0,0,0,.85.78A1.47,1.47,0,0,0,10,12.86Z"/><path class="cls-2" d="M12.47,14.6c.52-.16.85-1.1.59-1.83s-1-1.25-1.55-1.06-.75,1.41-.36,2.13a1.42,1.42,0,0,0,.77.7A.82.82,0,0,0,12.47,14.6Z"/><path class="cls-2" d="M15.66,13.74c.54,0,1.13-.8,1.1-1.57s-.61-1.51-1.16-1.48-1.13,1.13-1,1.93a1.46,1.46,0,0,0,.52.9A.9.9,0,0,0,15.66,13.74Z"/><path class="cls-2" d="M15.79,15.62c0-.55-.75-1.17-1.53-1.18s-1.53.55-1.52,1.1,1.08,1.18,1.88,1.07a1.49,1.49,0,0,0,.93-.49A.94.94,0,0,0,15.79,15.62Z"/><path class="cls-2" d="M8.94,9.15c.48-.26.6-1.25.19-1.91s-1.27-1-1.74-.71S7,8.07,7.49,8.69a1.46,1.46,0,0,0,.9.53A.93.93,0,0,0,8.94,9.15Z"/><path class="cls-2" d="M17.78,7.37c.09-.53-.63-1.23-1.39-1.32s-1.58.39-1.63.94,1,1.29,1.76,1.25a1.39,1.39,0,0,0,1-.39A.88.88,0,0,0,17.78,7.37Z"/><path class="cls-2" d="M6.59,9.28a1.55,1.55,0,0,0-2.1-.36A1.48,1.48,0,0,0,4,10.83a1.52,1.52,0,0,0,2.12.2,1.74,1.74,0,0,0,.56-1.2A1,1,0,0,0,6.59,9.28Z"/><path class="cls-2" d="M11.41,7.62c-.51-.18-1.33.39-1.55,1.13s.1,1.63.63,1.77S11.93,9.82,12,9a1.53,1.53,0,0,0-.21-1A.91.91,0,0,0,11.41,7.62Z"/><path class="cls-2" d="M14.53,7.78a1.53,1.53,0,0,0-1.75,1.06,1.5,1.5,0,0,0,.83,1.85,1.5,1.5,0,0,0,1.77-1.14A1.82,1.82,0,0,0,15,8.16,1.16,1.16,0,0,0,14.53,7.78Z"/></g></g></svg>