<svg xmlns="http://www.w3.org/2000/svg" viewBox="0 0 46.8 29.82"><defs><style>.cls-1{fill:#8d837e;}</style></defs><title>perfil_tapir</title><g id="Layer_2" data-name="Layer 2"><g id="Layer_1-2" data-name="Layer 1"><path class="cls-1" d="M46.67,14.89c-.23-.27-.33-.9-.47-1.11a10.25,10.25,0,0,0-2.32-3.08s-1.44-.84-1.53-1.37a5.89,5.89,0,0,0-1.54-2.21C40,6.47,38.7,4.17,38.36,3.87l-.29-.24.06-.08c1-1.61.59-2.57.37-2.8s-.23.17-.48.62a5,5,0,0,1-1.48,1.1l0,.16c-.33-.17-.68-.33-1-.48-.15-.77-.73-1-1.25-1.31s-.72,0-1,.52A36.55,36.55,0,0,0,26.58.09a18.58,18.58,0,0,1-4.46,0,54.47,54.47,0,0,0-9.35.25c-1.38.23-5.51,1.23-8,3.54s-3.64,4-3.52,6.28a3.62,3.62,0,0,0,.24,1.49s.05.45.05.85c0,0-.1.91.07,1s.35.12.78-.63c0,0,1.38,1.26,1.78,1.74A3.86,3.86,0,0,1,5,15.88a3.81,3.81,0,0,1-.68,1.53,14.69,14.69,0,0,0-2.08,3.07c-.63,1.4-.8,2.53-1.08,3.09A10.08,10.08,0,0,0,.35,25.3L0,25.63s.38-.12.32.53.18,1.55.56,1.7.78.39.55-1.08c0,0,.2,1,.93,1.06s1.66.41,1.14-.3c0,0,.35.12.2-.12S3.45,27,3.45,27l.32-.08s.13-.12-.3-.37a1.22,1.22,0,0,1-.58-.76,6.76,6.76,0,0,1,.86-2.16c.55-.9,1.08-1.91,1.3-1.94s.53-.09.48-.29a6.36,6.36,0,0,1,1.63-1.87,21.34,21.34,0,0,1,.46,2.89,3.89,3.89,0,0,0,.57,1.29,13.14,13.14,0,0,1,.68,1.35c.26.41.81,1.29.91,1.49a8.29,8.29,0,0,1,.55,1.66c0,.27.06.47.45.65a2.8,2.8,0,0,0,.44.65c.24.21,1.32.44,1.17.18a1.61,1.61,0,0,1-.17-.6,5.24,5.24,0,0,1,1.13.1.8.8,0,0,0,.51,0,.65.65,0,0,0,.67,0c.31-.22.23-.15-.2-.45a3.16,3.16,0,0,0,.68-.08c0-.05-.85-.78-.85-.78a2.84,2.84,0,0,0-1.36-.78,2.39,2.39,0,0,1-.6-.95c-.33-.76-.64-1-.88-1.64A5.2,5.2,0,0,1,11,22.91a2.73,2.73,0,0,0-.15-1.05,10.2,10.2,0,0,1-.1-2.07,13.43,13.43,0,0,1,.43-3.26s.86.78,4.53,1.33c0,0,4.07-.45,5.3-1.13,0,0,.8.45.93.76a34.64,34.64,0,0,0,3.41,3.13,16,16,0,0,1-.17,1.91c-.12.51.12.53.12.53s-1.13,2.45-.32,2a.84.84,0,0,0-.15.7s.18,1.14.52,1.23.39,0,.39,0,0,.93.3,1.1A.33.33,0,0,0,26.5,28s1.16.24,1.26.11-.15-.33-.15-.33a2.66,2.66,0,0,0,.77,0c.48,0,1.81.07,1.61-.28s-1-.75-1.08-.9-.68-.33-.73-.64-.09-.88-.09-.88a1.19,1.19,0,0,0,.3-1.13,19.36,19.36,0,0,1,.24-2,2.65,2.65,0,0,0-.24-1.84s.35-1.06.67-1.76,1.18-3.49,1.36-3.83a2.77,2.77,0,0,1,.6-.78c.25-.15.84-.77,1.46-.74a3.34,3.34,0,0,1,1.44.37,7.23,7.23,0,0,0,1.55.81c.74.25,3.76,1.55,4.29,1.65a3.94,3.94,0,0,0,1.18.33c.38,0,.88-.23,1.15,0A1.26,1.26,0,0,0,43.78,16a.69.69,0,0,1,.86-.18,1.25,1.25,0,0,0,.73.21s.19.55.85-.08S46.9,15.15,46.67,14.89Z"/></g></g></svg>
